<?xml version="1.0" encoding="UTF-8" standalone="no"?><svg xmlns="http://www.w3.org/2000/svg" xmlns:xlink="http://www.w3.org/1999/xlink" clip-rule="evenodd" stroke-miterlimit="4.00" viewBox="0 0 143 33"><desc>SVG generated by Keynote</desc><defs></defs><g transform="matrix(1.00, 0.00, -0.00, -1.00, 0.0, 33.0)"><text xml:space="preserve" font-family="Impact" font-weight="bold" font-size="27.6" fill="#FAFDC3" transform="matrix(1.00, 0.00, -0.00, -1.00, 1.0, 7.0)">M</text><text xml:space="preserve" font-family="Impact" font-weight="bold" font-size="27.6" fill="#FAFDC3" transform="matrix(1.00, 0.00, -0.00, -1.00, 20.8, 7.0)">a</text><text xml:space="preserve" font-family="Impact" font-weight="bold" font-size="27.6" fill="#FAFDC3" transform="matrix(1.00, 0.00, -0.00, -1.00, 34.7, 7.0)">n</text><text xml:space="preserve" font-family="Impact" font-weight="bold" font-size="27.6" fill="#FAFDC3" transform="matrix(1.00, 0.00, -0.00, -1.00, 49.1, 7.0)">u</text><text xml:space="preserve" font-family="Impact" font-weight="bold" font-size="27.6" fill="#FAFDC3" transform="matrix(1.00, 0.00, -0.00, -1.00, 63.6, 7.0)">t</text><text xml:space="preserve" font-family="Impact" font-weight="bold" font-size="27.6" fill="#FAFDC3" transform="matrix(1.00, 0.00, -0.00, -1.00, 72.0, 7.0)">e</text><text xml:space="preserve" font-family="Impact" font-weight="bold" font-size="27.6" fill="#FAFDC3" transform="matrix(1.00, 0.00, -0.00, -1.00, 86.1, 7.0)">n</text><text xml:space="preserve" font-family="Impact" font-weight="bold" font-size="27.6" fill="#FAFDC3" transform="matrix(1.00, 0.00, -0.00, -1.00, 100.5, 7.0)">รง</text><text xml:space="preserve" font-family="Impact" font-weight="bold" font-size="27.6" fill="#FAFDC3" transform="matrix(1.00, 0.00, -0.00, -1.00, 114.1, 7.0)">รฃ</text><text xml:space="preserve" font-family="Impact" font-weight="bold" font-size="27.6" fill="#FAFDC3" transform="matrix(1.00, 0.00, -0.00, -1.00, 128.0, 7.0)">o</text></g></svg>