<?xml version="1.0" encoding="UTF-8" standalone="no"?><svg xmlns="http://www.w3.org/2000/svg" xmlns:xlink="http://www.w3.org/1999/xlink" clip-rule="evenodd" stroke-miterlimit="4.00" viewBox="0 0 1024 768"><desc>SVG generated by Keynote</desc><defs></defs><g transform="matrix(1.00, 0.00, -0.00, -1.00, 0.0, 768.0)"><path d="M 0.0 768.0 L 1024.0 768.0 L 1024.0 0.0 L 0.0 0.0 Z M 0.0 768.0 " fill="#00DEE1"></path><text xml:space="preserve" font-family="Impact" font-weight="bold" font-size="80.0" fill="#802438" transform="matrix(1.00, 0.00, -0.00, -1.00, 116.0, 138.0)">M</text><text xml:space="preserve" font-family="Impact" font-weight="bold" font-size="80.0" fill="#802438" transform="matrix(1.00, 0.00, -0.00, -1.00, 173.3, 138.0)">o</text><text xml:space="preserve" font-family="Impact" font-weight="bold" font-size="80.0" fill="#802438" transform="matrix(1.00, 0.00, -0.00, -1.00, 214.2, 138.0)">d</text><text xml:space="preserve" font-family="Impact" font-weight="bold" font-size="80.0" fill="#802438" transform="matrix(1.00, 0.00, -0.00, -1.00, 255.8, 138.0)">e</text><text xml:space="preserve" font-family="Impact" font-weight="bold" font-size="80.0" fill="#802438" transform="matrix(1.00, 0.00, -0.00, -1.00, 296.7, 138.0)">l</text><text xml:space="preserve" font-family="Impact" font-weight="bold" font-size="80.0" fill="#802438" transform="matrix(1.00, 0.00, -0.00, -1.00, 318.6, 138.0)">a</text><text xml:space="preserve" font-family="Impact" font-weight="bold" font-size="80.0" fill="#802438" transform="matrix(1.00, 0.00, -0.00, -1.00, 358.9, 138.0)">g</text><text xml:space="preserve" font-family="Impact" font-weight="bold" font-size="80.0" fill="#802438" transform="matrix(1.00, 0.00, -0.00, -1.00, 400.3, 138.0)">e</text><text xml:space="preserve" font-family="Impact" font-weight="bold" font-size="80.0" fill="#802438" transform="matrix(1.00, 0.00, -0.00, -1.00, 441.3, 138.0)">m</text><text xml:space="preserve" font-family="Impact" font-weight="bold" font-size="80.0" fill="#802438" transform="matrix(1.00, 0.00, -0.00, -1.00, 502.9, 138.0)"> </text><text xml:space="preserve" font-family="Impact" font-weight="bold" font-size="80.0" fill="#802438" transform="matrix(1.00, 0.00, -0.00, -1.00, 517.1, 138.0)">M</text><text xml:space="preserve" font-family="Impact" font-weight="bold" font-size="80.0" fill="#802438" transform="matrix(1.00, 0.00, -0.00, -1.00, 574.4, 138.0)">a</text><text xml:space="preserve" font-family="Impact" font-weight="bold" font-size="80.0" fill="#802438" transform="matrix(1.00, 0.00, -0.00, -1.00, 614.7, 138.0)">t</text><text xml:space="preserve" font-family="Impact" font-weight="bold" font-size="80.0" fill="#802438" transform="matrix(1.00, 0.00, -0.00, -1.00, 639.0, 138.0)">e</text><text xml:space="preserve" font-family="Impact" font-weight="bold" font-size="80.0" fill="#802438" transform="matrix(1.00, 0.00, -0.00, -1.00, 680.0, 138.0)">m</text><text xml:space="preserve" font-family="Impact" font-weight="bold" font-size="80.0" fill="#802438" transform="matrix(1.00, 0.00, -0.00, -1.00, 741.6, 138.0)">รก</text><text xml:space="preserve" font-family="Impact" font-weight="bold" font-size="80.0" fill="#802438" transform="matrix(1.00, 0.00, -0.00, -1.00, 781.9, 138.0)">t</text><text xml:space="preserve" font-family="Impact" font-weight="bold" font-size="80.0" fill="#802438" transform="matrix(1.00, 0.00, -0.00, -1.00, 806.3, 138.0)">i</text><text xml:space="preserve" font-family="Impact" font-weight="bold" font-size="80.0" fill="#802438" transform="matrix(1.00, 0.00, -0.00, -1.00, 828.2, 138.0)">c</text><text xml:space="preserve" font-family="Impact" font-weight="bold" font-size="80.0" fill="#802438" transform="matrix(1.00, 0.00, -0.00, -1.00, 867.7, 138.0)">a</text></g></svg>