<?xml version="1.0" encoding="UTF-8" standalone="no"?><svg xmlns="http://www.w3.org/2000/svg" xmlns:xlink="http://www.w3.org/1999/xlink" clip-rule="evenodd" stroke-miterlimit="4.00" viewBox="0 0 1024 768"><desc>SVG generated by Keynote</desc><defs></defs><g transform="matrix(1.00, 0.00, -0.00, -1.00, 0.0, 768.0)"><path d="M 0.0 768.0 L 1024.0 768.0 L 1024.0 0.0 L 0.0 0.0 Z M 0.0 768.0 " fill="#802438"></path><text xml:space="preserve" font-family="Impact" font-weight="bold" font-size="30.0" fill="#FAFDC3" transform="matrix(1.00, 0.00, -0.00, -1.00, 823.0, 365.0)">F</text><text xml:space="preserve" font-family="Impact" font-weight="bold" font-size="30.0" fill="#FAFDC3" transform="matrix(1.00, 0.00, -0.00, -1.00, 834.9, 365.0)">r</text><text xml:space="preserve" font-family="Impact" font-weight="bold" font-size="30.0" fill="#FAFDC3" transform="matrix(1.00, 0.00, -0.00, -1.00, 845.7, 365.0)">e</text><text xml:space="preserve" font-family="Impact" font-weight="bold" font-size="30.0" fill="#FAFDC3" transform="matrix(1.00, 0.00, -0.00, -1.00, 861.0, 365.0)">t</text><text xml:space="preserve" font-family="Impact" font-weight="bold" font-size="30.0" fill="#FAFDC3" transform="matrix(1.00, 0.00, -0.00, -1.00, 870.1, 365.0)">e</text><text xml:space="preserve" font-family="Impact" font-weight="bold" font-size="30.0" fill="#FAFDC3" transform="matrix(1.00, 0.00, -0.00, -1.00, 885.5, 365.0)">s</text><image xlink:href="0472D6EF6BC17F9BFBDB5E392A1D1ACD.png" width="3320.00" height="3520.00" transform="matrix(0.20, 0.00, -0.00, 0.20, 150.0, 29.0)"></image><text xml:space="preserve" font-family="Impact" font-weight="bold" font-size="28.2" fill="#FAFDC3" transform="matrix(1.00, 0.00, -0.00, -1.00, 278.0, 692.0)">O</text><text xml:space="preserve" font-family="Impact" font-weight="bold" font-size="28.2" fill="#FAFDC3" transform="matrix(1.00, 0.00, -0.00, -1.00, 293.4, 692.0)">u</text><text xml:space="preserve" font-family="Impact" font-weight="bold" font-size="28.2" fill="#FAFDC3" transform="matrix(1.00, 0.00, -0.00, -1.00, 308.2, 692.0)">t</text><text xml:space="preserve" font-family="Impact" font-weight="bold" font-size="28.2" fill="#FAFDC3" transform="matrix(1.00, 0.00, -0.00, -1.00, 316.7, 692.0)">r</text><text xml:space="preserve" font-family="Impact" font-weight="bold" font-size="28.2" fill="#FAFDC3" transform="matrix(1.00, 0.00, -0.00, -1.00, 326.8, 692.0)">o</text><text xml:space="preserve" font-family="Impact" font-weight="bold" font-size="28.2" fill="#FAFDC3" transform="matrix(1.00, 0.00, -0.00, -1.00, 341.2, 692.0)">s</text><text xml:space="preserve" font-family="Impact" font-weight="bold" font-size="27.3" fill="#FAFDC3" transform="matrix(1.00, 0.00, -0.00, -1.00, 52.0, 404.0)">P</text><text xml:space="preserve" font-family="Impact" font-weight="bold" font-size="27.3" fill="#FAFDC3" transform="matrix(1.00, 0.00, -0.00, -1.00, 65.7, 404.0)">e</text><text xml:space="preserve" font-family="Impact" font-weight="bold" font-size="27.3" fill="#FAFDC3" transform="matrix(1.00, 0.00, -0.00, -1.00, 79.7, 404.0)">s</text><text xml:space="preserve" font-family="Impact" font-weight="bold" font-size="27.3" fill="#FAFDC3" transform="matrix(1.00, 0.00, -0.00, -1.00, 92.5, 404.0)">s</text><text xml:space="preserve" font-family="Impact" font-weight="bold" font-size="27.3" fill="#FAFDC3" transform="matrix(1.00, 0.00, -0.00, -1.00, 105.3, 404.0)">o</text><text xml:space="preserve" font-family="Impact" font-weight="bold" font-size="27.3" fill="#FAFDC3" transform="matrix(1.00, 0.00, -0.00, -1.00, 119.3, 404.0)">a</text><text xml:space="preserve" font-family="Impact" font-weight="bold" font-size="27.3" fill="#FAFDC3" transform="matrix(1.00, 0.00, -0.00, -1.00, 133.1, 404.0)">l</text><text xml:space="preserve" font-family="Impact" font-weight="bold" font-size="29.1" fill="#FAFDC3" transform="matrix(1.00, 0.00, -0.00, -1.00, 735.0, 608.0)">E</text><text xml:space="preserve" font-family="Impact" font-weight="bold" font-size="29.1" fill="#FAFDC3" transform="matrix(1.00, 0.00, -0.00, -1.00, 747.1, 608.0)">n</text><text xml:space="preserve" font-family="Impact" font-weight="bold" font-size="29.1" fill="#FAFDC3" transform="matrix(1.00, 0.00, -0.00, -1.00, 762.3, 608.0)">e</text><text xml:space="preserve" font-family="Impact" font-weight="bold" font-size="29.1" fill="#FAFDC3" transform="matrix(1.00, 0.00, -0.00, -1.00, 777.2, 608.0)">r</text><text xml:space="preserve" font-family="Impact" font-weight="bold" font-size="29.1" fill="#FAFDC3" transform="matrix(1.00, 0.00, -0.00, -1.00, 787.6, 608.0)">g</text><text xml:space="preserve" font-family="Impact" font-weight="bold" font-size="29.1" fill="#FAFDC3" transform="matrix(1.00, 0.00, -0.00, -1.00, 802.6, 608.0)">i</text><text xml:space="preserve" font-family="Impact" font-weight="bold" font-size="29.1" fill="#FAFDC3" transform="matrix(1.00, 0.00, -0.00, -1.00, 810.6, 608.0)">a</text><text xml:space="preserve" font-family="Impact" font-weight="bold" font-size="29.1" fill="#FAFDC3" transform="matrix(1.00, 0.00, -0.00, -1.00, 825.3, 608.0)"> </text><text xml:space="preserve" font-family="Impact" font-weight="bold" font-size="29.1" fill="#FAFDC3" transform="matrix(1.00, 0.00, -0.00, -1.00, 830.4, 608.0)">E</text><text xml:space="preserve" font-family="Impact" font-weight="bold" font-size="29.1" fill="#FAFDC3" transform="matrix(1.00, 0.00, -0.00, -1.00, 842.5, 608.0)">l</text><text xml:space="preserve" font-family="Impact" font-weight="bold" font-size="29.1" fill="#FAFDC3" transform="matrix(1.00, 0.00, -0.00, -1.00, 850.4, 608.0)">é</text><text xml:space="preserve" font-family="Impact" font-weight="bold" font-size="29.1" fill="#FAFDC3" transform="matrix(1.00, 0.00, -0.00, -1.00, 865.3, 608.0)">t</text><text xml:space="preserve" font-family="Impact" font-weight="bold" font-size="29.1" fill="#FAFDC3" transform="matrix(1.00, 0.00, -0.00, -1.00, 874.2, 608.0)">r</text><text xml:space="preserve" font-family="Impact" font-weight="bold" font-size="29.1" fill="#FAFDC3" transform="matrix(1.00, 0.00, -0.00, -1.00, 884.6, 608.0)">i</text><text xml:space="preserve" font-family="Impact" font-weight="bold" font-size="29.1" fill="#FAFDC3" transform="matrix(1.00, 0.00, -0.00, -1.00, 892.5, 608.0)">c</text><text xml:space="preserve" font-family="Impact" font-weight="bold" font-size="29.1" fill="#FAFDC3" transform="matrix(1.00, 0.00, -0.00, -1.00, 906.9, 608.0)">a</text><text xml:space="preserve" font-family="Impact" font-weight="bold" font-size="28.2" fill="#FAFDC3" transform="matrix(1.00, 0.00, -0.00, -1.00, 708.0, 132.0)">P</text><text xml:space="preserve" font-family="Impact" font-weight="bold" font-size="28.2" fill="#FAFDC3" transform="matrix(1.00, 0.00, -0.00, -1.00, 722.2, 132.0)">r</text><text xml:space="preserve" font-family="Impact" font-weight="bold" font-size="28.2" fill="#FAFDC3" transform="matrix(1.00, 0.00, -0.00, -1.00, 732.2, 132.0)">o</text><text xml:space="preserve" font-family="Impact" font-weight="bold" font-size="28.2" fill="#FAFDC3" transform="matrix(1.00, 0.00, -0.00, -1.00, 746.7, 132.0)">d</text><text xml:space="preserve" font-family="Impact" font-weight="bold" font-size="28.2" fill="#FAFDC3" transform="matrix(1.00, 0.00, -0.00, -1.00, 761.3, 132.0)">u</text><text xml:space="preserve" font-family="Impact" font-weight="bold" font-size="28.2" fill="#FAFDC3" transform="matrix(1.00, 0.00, -0.00, -1.00, 776.1, 132.0)">t</text><text xml:space="preserve" font-family="Impact" font-weight="bold" font-size="28.2" fill="#FAFDC3" transform="matrix(1.00, 0.00, -0.00, -1.00, 784.6, 132.0)">o</text><text xml:space="preserve" font-family="Impact" font-weight="bold" font-size="28.2" fill="#FAFDC3" transform="matrix(1.00, 0.00, -0.00, -1.00, 799.1, 132.0)">s</text><text xml:space="preserve" font-family="Impact" font-weight="bold" font-size="28.2" fill="#FAFDC3" transform="matrix(1.00, 0.00, -0.00, -1.00, 812.3, 132.0)"> </text><text xml:space="preserve" font-family="Impact" font-weight="bold" font-size="28.2" fill="#FAFDC3" transform="matrix(1.00, 0.00, -0.00, -1.00, 708.0, 98.0)">Q</text><text xml:space="preserve" font-family="Impact" font-weight="bold" font-size="28.2" fill="#FAFDC3" transform="matrix(1.00, 0.00, -0.00, -1.00, 723.4, 98.0)">u</text><text xml:space="preserve" font-family="Impact" font-weight="bold" font-size="28.2" fill="#FAFDC3" transform="matrix(1.00, 0.00, -0.00, -1.00, 738.2, 98.0)">í</text><text xml:space="preserve" font-family="Impact" font-weight="bold" font-size="28.2" fill="#FAFDC3" transform="matrix(1.00, 0.00, -0.00, -1.00, 745.9, 98.0)">m</text><text xml:space="preserve" font-family="Impact" font-weight="bold" font-size="28.2" fill="#FAFDC3" transform="matrix(1.00, 0.00, -0.00, -1.00, 767.6, 98.0)">i</text><text xml:space="preserve" font-family="Impact" font-weight="bold" font-size="28.2" fill="#FAFDC3" transform="matrix(1.00, 0.00, -0.00, -1.00, 775.4, 98.0)">c</text><text xml:space="preserve" font-family="Impact" font-weight="bold" font-size="28.2" fill="#FAFDC3" transform="matrix(1.00, 0.00, -0.00, -1.00, 789.3, 98.0)">o</text><text xml:space="preserve" font-family="Impact" font-weight="bold" font-size="28.2" fill="#FAFDC3" transform="matrix(1.00, 0.00, -0.00, -1.00, 803.7, 98.0)">s</text><text xml:space="preserve" font-family="Impact" font-weight="bold" font-size="27.6" fill="#FAFDC3" transform="matrix(1.00, 0.00, -0.00, -1.00, 553.0, 706.0)">M</text><text xml:space="preserve" font-family="Impact" font-weight="bold" font-size="27.6" fill="#FAFDC3" transform="matrix(1.00, 0.00, -0.00, -1.00, 572.8, 706.0)">a</text><text xml:space="preserve" font-family="Impact" font-weight="bold" font-size="27.6" fill="#FAFDC3" transform="matrix(1.00, 0.00, -0.00, -1.00, 586.7, 706.0)">n</text><text xml:space="preserve" font-family="Impact" font-weight="bold" font-size="27.6" fill="#FAFDC3" transform="matrix(1.00, 0.00, -0.00, -1.00, 601.1, 706.0)">u</text><text xml:space="preserve" font-family="Impact" font-weight="bold" font-size="27.6" fill="#FAFDC3" transform="matrix(1.00, 0.00, -0.00, -1.00, 615.6, 706.0)">t</text><text xml:space="preserve" font-family="Impact" font-weight="bold" font-size="27.6" fill="#FAFDC3" transform="matrix(1.00, 0.00, -0.00, -1.00, 624.0, 706.0)">e</text><text xml:space="preserve" font-family="Impact" font-weight="bold" font-size="27.6" fill="#FAFDC3" transform="matrix(1.00, 0.00, -0.00, -1.00, 638.1, 706.0)">n</text><text xml:space="preserve" font-family="Impact" font-weight="bold" font-size="27.6" fill="#FAFDC3" transform="matrix(1.00, 0.00, -0.00, -1.00, 652.5, 706.0)">ç</text><text xml:space="preserve" font-family="Impact" font-weight="bold" font-size="27.6" fill="#FAFDC3" transform="matrix(1.00, 0.00, -0.00, -1.00, 666.1, 706.0)">ã</text><text xml:space="preserve" font-family="Impact" font-weight="bold" font-size="27.6" fill="#FAFDC3" transform="matrix(1.00, 0.00, -0.00, -1.00, 680.0, 706.0)">o</text><text xml:space="preserve" font-family="Impact" font-weight="bold" font-size="28.2" fill="#FAFDC3" transform="matrix(1.00, 0.00, -0.00, -1.00, 241.0, 74.0)">M</text><text xml:space="preserve" font-family="Impact" font-weight="bold" font-size="28.2" fill="#FAFDC3" transform="matrix(1.00, 0.00, -0.00, -1.00, 261.2, 74.0)">a</text><text xml:space="preserve" font-family="Impact" font-weight="bold" font-size="28.2" fill="#FAFDC3" transform="matrix(1.00, 0.00, -0.00, -1.00, 275.4, 74.0)">d</text><text xml:space="preserve" font-family="Impact" font-weight="bold" font-size="28.2" fill="#FAFDC3" transform="matrix(1.00, 0.00, -0.00, -1.00, 290.1, 74.0)">e</text><text xml:space="preserve" font-family="Impact" font-weight="bold" font-size="28.2" fill="#FAFDC3" transform="matrix(1.00, 0.00, -0.00, -1.00, 304.5, 74.0)">i</text><text xml:space="preserve" font-family="Impact" font-weight="bold" font-size="28.2" fill="#FAFDC3" transform="matrix(1.00, 0.00, -0.00, -1.00, 312.2, 74.0)">r</text><text xml:space="preserve" font-family="Impact" font-weight="bold" font-size="28.2" fill="#FAFDC3" transform="matrix(1.00, 0.00, -0.00, -1.00, 322.3, 74.0)">a</text><text xml:space="preserve" font-family="Impact" font-weight="bold" font-size="28.2" fill="#FAFDC3" transform="matrix(1.00, 0.00, -0.00, -1.00, 336.5, 74.0)"> </text><text xml:space="preserve" font-family="Impact" font-weight="bold" font-size="28.2" fill="#FAFDC3" transform="matrix(1.00, 0.00, -0.00, -1.00, 241.0, 40.0)">e</text><text xml:space="preserve" font-family="Impact" font-weight="bold" font-size="28.2" fill="#FAFDC3" transform="matrix(1.00, 0.00, -0.00, -1.00, 255.4, 40.0)"> </text><text xml:space="preserve" font-family="Impact" font-weight="bold" font-size="28.2" fill="#FAFDC3" transform="matrix(1.00, 0.00, -0.00, -1.00, 260.4, 40.0)">F</text><text xml:space="preserve" font-family="Impact" font-weight="bold" font-size="28.2" fill="#FAFDC3" transform="matrix(1.00, 0.00, -0.00, -1.00, 271.6, 40.0)">i</text><text xml:space="preserve" font-family="Impact" font-weight="bold" font-size="28.2" fill="#FAFDC3" transform="matrix(1.00, 0.00, -0.00, -1.00, 279.4, 40.0)">b</text><text xml:space="preserve" font-family="Impact" font-weight="bold" font-size="28.2" fill="#FAFDC3" transform="matrix(1.00, 0.00, -0.00, -1.00, 294.0, 40.0)">r</text><text xml:space="preserve" font-family="Impact" font-weight="bold" font-size="28.2" fill="#FAFDC3" transform="matrix(1.00, 0.00, -0.00, -1.00, 304.1, 40.0)">a</text><text xml:space="preserve" font-family="Impact" font-weight="bold" font-size="28.2" fill="#FAFDC3" transform="matrix(1.00, 0.00, -0.00, -1.00, 318.3, 40.0)">s</text></g></svg>