<?xml version="1.0" encoding="UTF-8" standalone="no"?><svg xmlns="http://www.w3.org/2000/svg" xmlns:xlink="http://www.w3.org/1999/xlink" clip-rule="evenodd" stroke-miterlimit="4.00" viewBox="0 0 1024 768"><desc>SVG generated by Keynote</desc><defs></defs><g transform="matrix(1.00, 0.00, -0.00, -1.00, 0.0, 768.0)"><path d="M 0.0 768.0 L 1024.0 768.0 L 1024.0 0.0 L 0.0 0.0 Z M 0.0 768.0 " fill="#802438"></path><text xml:space="preserve" font-family="Impact" font-weight="bold" font-size="43.5" fill="#FAFDC3" transform="matrix(1.00, 0.00, -0.00, -1.00, 690.0, 576.0)">M</text><text xml:space="preserve" font-family="Impact" font-weight="bold" font-size="43.5" fill="#FAFDC3" transform="matrix(1.00, 0.00, -0.00, -1.00, 721.2, 576.0)">e</text><text xml:space="preserve" font-family="Impact" font-weight="bold" font-size="43.5" fill="#FAFDC3" transform="matrix(1.00, 0.00, -0.00, -1.00, 743.4, 576.0)">r</text><text xml:space="preserve" font-family="Impact" font-weight="bold" font-size="43.5" fill="#FAFDC3" transform="matrix(1.00, 0.00, -0.00, -1.00, 759.0, 576.0)">c</text><text xml:space="preserve" font-family="Impact" font-weight="bold" font-size="43.5" fill="#FAFDC3" transform="matrix(1.00, 0.00, -0.00, -1.00, 780.5, 576.0)">a</text><text xml:space="preserve" font-family="Impact" font-weight="bold" font-size="43.5" fill="#FAFDC3" transform="matrix(1.00, 0.00, -0.00, -1.00, 802.4, 576.0)">d</text><text xml:space="preserve" font-family="Impact" font-weight="bold" font-size="43.5" fill="#FAFDC3" transform="matrix(1.00, 0.00, -0.00, -1.00, 825.0, 576.0)">o</text><text xml:space="preserve" font-family="Impact" font-weight="bold" font-size="43.5" fill="#FAFDC3" transform="matrix(1.00, 0.00, -0.00, -1.00, 847.2, 576.0)"> </text><text xml:space="preserve" font-family="Impact" font-weight="bold" font-size="43.5" fill="#FAFDC3" transform="matrix(1.00, 0.00, -0.00, -1.00, 690.0, 523.0)">I</text><text xml:space="preserve" font-family="Impact" font-weight="bold" font-size="43.5" fill="#FAFDC3" transform="matrix(1.00, 0.00, -0.00, -1.00, 702.5, 523.0)">n</text><text xml:space="preserve" font-family="Impact" font-weight="bold" font-size="43.5" fill="#FAFDC3" transform="matrix(1.00, 0.00, -0.00, -1.00, 725.3, 523.0)">t</text><text xml:space="preserve" font-family="Impact" font-weight="bold" font-size="43.5" fill="#FAFDC3" transform="matrix(1.00, 0.00, -0.00, -1.00, 738.5, 523.0)">e</text><text xml:space="preserve" font-family="Impact" font-weight="bold" font-size="43.5" fill="#FAFDC3" transform="matrix(1.00, 0.00, -0.00, -1.00, 760.8, 523.0)">r</text><text xml:space="preserve" font-family="Impact" font-weight="bold" font-size="43.5" fill="#FAFDC3" transform="matrix(1.00, 0.00, -0.00, -1.00, 776.4, 523.0)">n</text><text xml:space="preserve" font-family="Impact" font-weight="bold" font-size="43.5" fill="#FAFDC3" transform="matrix(1.00, 0.00, -0.00, -1.00, 799.1, 523.0)">o</text><image xlink:href="77075D12592AF2DB6C6F0E2E8715B05B.png" width="2295.00" height="2500.00" transform="matrix(0.20, 0.00, -0.00, 0.20, 209.0, 134.0)"></image></g></svg>