<?xml version="1.0" encoding="UTF-8" standalone="no"?><svg xmlns="http://www.w3.org/2000/svg" xmlns:xlink="http://www.w3.org/1999/xlink" clip-rule="evenodd" stroke-miterlimit="4.00" viewBox="0 0 1024 768"><desc>SVG generated by Keynote</desc><defs></defs><g transform="matrix(1.00, 0.00, -0.00, -1.00, 0.0, 768.0)"><path d="M 0.0 768.0 L 1024.0 768.0 L 1024.0 0.0 L 0.0 0.0 Z M 0.0 768.0 " fill="#802438"></path><text xml:space="preserve" font-family="Impact" font-weight="bold" font-size="50.0" fill="#FAFDC3" transform="matrix(1.00, 0.00, -0.00, -1.00, 96.0, 455.0)">C</text><text xml:space="preserve" font-family="Impact" font-weight="bold" font-size="50.0" fill="#FAFDC3" transform="matrix(1.00, 0.00, -0.00, -1.00, 123.7, 455.0)">e</text><text xml:space="preserve" font-family="Impact" font-weight="bold" font-size="50.0" fill="#FAFDC3" transform="matrix(1.00, 0.00, -0.00, -1.00, 149.2, 455.0)">l</text><text xml:space="preserve" font-family="Impact" font-weight="bold" font-size="50.0" fill="#FAFDC3" transform="matrix(1.00, 0.00, -0.00, -1.00, 162.9, 455.0)">u</text><text xml:space="preserve" font-family="Impact" font-weight="bold" font-size="50.0" fill="#FAFDC3" transform="matrix(1.00, 0.00, -0.00, -1.00, 189.1, 455.0)">l</text><text xml:space="preserve" font-family="Impact" font-weight="bold" font-size="50.0" fill="#FAFDC3" transform="matrix(1.00, 0.00, -0.00, -1.00, 202.8, 455.0)">o</text><text xml:space="preserve" font-family="Impact" font-weight="bold" font-size="50.0" fill="#FAFDC3" transform="matrix(1.00, 0.00, -0.00, -1.00, 228.3, 455.0)">s</text><text xml:space="preserve" font-family="Impact" font-weight="bold" font-size="50.0" fill="#FAFDC3" transform="matrix(1.00, 0.00, -0.00, -1.00, 251.9, 455.0)">e</text><text xml:space="preserve" font-family="Impact" font-weight="bold" font-size="50.0" fill="#FAFDC3" transform="matrix(1.00, 0.00, -0.00, -1.00, 277.4, 455.0)"> </text><text xml:space="preserve" font-family="Impact" font-weight="bold" font-size="50.0" fill="#FAFDC3" transform="matrix(1.00, 0.00, -0.00, -1.00, 286.3, 455.0)">c</text><text xml:space="preserve" font-family="Impact" font-weight="bold" font-size="50.0" fill="#FAFDC3" transform="matrix(1.00, 0.00, -0.00, -1.00, 311.0, 455.0)">o</text><text xml:space="preserve" font-family="Impact" font-weight="bold" font-size="50.0" fill="#FAFDC3" transform="matrix(1.00, 0.00, -0.00, -1.00, 336.5, 455.0)">m</text><text xml:space="preserve" font-family="Impact" font-weight="bold" font-size="50.0" fill="#FAFDC3" transform="matrix(1.00, 0.00, -0.00, -1.00, 375.1, 455.0)"> </text><text xml:space="preserve" font-family="Impact" font-weight="bold" font-size="50.0" fill="#FAFDC3" transform="matrix(1.00, 0.00, -0.00, -1.00, 96.0, 394.0)">p</text><text xml:space="preserve" font-family="Impact" font-weight="bold" font-size="50.0" fill="#FAFDC3" transform="matrix(1.00, 0.00, -0.00, -1.00, 122.0, 394.0)">r</text><text xml:space="preserve" font-family="Impact" font-weight="bold" font-size="50.0" fill="#FAFDC3" transform="matrix(1.00, 0.00, -0.00, -1.00, 139.8, 394.0)">o</text><text xml:space="preserve" font-family="Impact" font-weight="bold" font-size="50.0" fill="#FAFDC3" transform="matrix(1.00, 0.00, -0.00, -1.00, 165.4, 394.0)">p</text><text xml:space="preserve" font-family="Impact" font-weight="bold" font-size="50.0" fill="#FAFDC3" transform="matrix(1.00, 0.00, -0.00, -1.00, 191.4, 394.0)">r</text><text xml:space="preserve" font-family="Impact" font-weight="bold" font-size="50.0" fill="#FAFDC3" transform="matrix(1.00, 0.00, -0.00, -1.00, 209.3, 394.0)">i</text><text xml:space="preserve" font-family="Impact" font-weight="bold" font-size="50.0" fill="#FAFDC3" transform="matrix(1.00, 0.00, -0.00, -1.00, 222.9, 394.0)">e</text><text xml:space="preserve" font-family="Impact" font-weight="bold" font-size="50.0" fill="#FAFDC3" transform="matrix(1.00, 0.00, -0.00, -1.00, 248.5, 394.0)">d</text><text xml:space="preserve" font-family="Impact" font-weight="bold" font-size="50.0" fill="#FAFDC3" transform="matrix(1.00, 0.00, -0.00, -1.00, 274.5, 394.0)">a</text><text xml:space="preserve" font-family="Impact" font-weight="bold" font-size="50.0" fill="#FAFDC3" transform="matrix(1.00, 0.00, -0.00, -1.00, 299.7, 394.0)">d</text><text xml:space="preserve" font-family="Impact" font-weight="bold" font-size="50.0" fill="#FAFDC3" transform="matrix(1.00, 0.00, -0.00, -1.00, 325.6, 394.0)">e</text><text xml:space="preserve" font-family="Impact" font-weight="bold" font-size="50.0" fill="#FAFDC3" transform="matrix(1.00, 0.00, -0.00, -1.00, 351.2, 394.0)">s</text><text xml:space="preserve" font-family="Impact" font-weight="bold" font-size="50.0" fill="#FAFDC3" transform="matrix(1.00, 0.00, -0.00, -1.00, 374.7, 394.0)"> </text><text xml:space="preserve" font-family="Impact" font-weight="bold" font-size="50.0" fill="#FAFDC3" transform="matrix(1.00, 0.00, -0.00, -1.00, 383.5, 394.0)">d</text><text xml:space="preserve" font-family="Impact" font-weight="bold" font-size="50.0" fill="#FAFDC3" transform="matrix(1.00, 0.00, -0.00, -1.00, 409.5, 394.0)">e</text><text xml:space="preserve" font-family="Impact" font-weight="bold" font-size="50.0" fill="#FAFDC3" transform="matrix(1.00, 0.00, -0.00, -1.00, 435.1, 394.0)"> </text><text xml:space="preserve" font-family="Impact" font-weight="bold" font-size="50.0" fill="#FAFDC3" transform="matrix(1.00, 0.00, -0.00, -1.00, 96.0, 333.0)">t</text><text xml:space="preserve" font-family="Impact" font-weight="bold" font-size="50.0" fill="#FAFDC3" transform="matrix(1.00, 0.00, -0.00, -1.00, 111.2, 333.0)">r</text><text xml:space="preserve" font-family="Impact" font-weight="bold" font-size="50.0" fill="#FAFDC3" transform="matrix(1.00, 0.00, -0.00, -1.00, 129.1, 333.0)">a</text><text xml:space="preserve" font-family="Impact" font-weight="bold" font-size="50.0" fill="#FAFDC3" transform="matrix(1.00, 0.00, -0.00, -1.00, 154.3, 333.0)">n</text><text xml:space="preserve" font-family="Impact" font-weight="bold" font-size="50.0" fill="#FAFDC3" transform="matrix(1.00, 0.00, -0.00, -1.00, 180.4, 333.0)">s</text><text xml:space="preserve" font-family="Impact" font-weight="bold" font-size="50.0" fill="#FAFDC3" transform="matrix(1.00, 0.00, -0.00, -1.00, 204.0, 333.0)">p</text><text xml:space="preserve" font-family="Impact" font-weight="bold" font-size="50.0" fill="#FAFDC3" transform="matrix(1.00, 0.00, -0.00, -1.00, 229.9, 333.0)">a</text><text xml:space="preserve" font-family="Impact" font-weight="bold" font-size="50.0" fill="#FAFDC3" transform="matrix(1.00, 0.00, -0.00, -1.00, 255.1, 333.0)">r</text><text xml:space="preserve" font-family="Impact" font-weight="bold" font-size="50.0" fill="#FAFDC3" transform="matrix(1.00, 0.00, -0.00, -1.00, 273.0, 333.0)">ê</text><text xml:space="preserve" font-family="Impact" font-weight="bold" font-size="50.0" fill="#FAFDC3" transform="matrix(1.00, 0.00, -0.00, -1.00, 298.6, 333.0)">n</text><text xml:space="preserve" font-family="Impact" font-weight="bold" font-size="50.0" fill="#FAFDC3" transform="matrix(1.00, 0.00, -0.00, -1.00, 324.7, 333.0)">c</text><text xml:space="preserve" font-family="Impact" font-weight="bold" font-size="50.0" fill="#FAFDC3" transform="matrix(1.00, 0.00, -0.00, -1.00, 349.4, 333.0)">i</text><text xml:space="preserve" font-family="Impact" font-weight="bold" font-size="50.0" fill="#FAFDC3" transform="matrix(1.00, 0.00, -0.00, -1.00, 363.1, 333.0)">a</text><text xml:space="preserve" font-family="Impact" font-weight="bold" font-size="50.0" fill="#FAFDC3" transform="matrix(1.00, 0.00, -0.00, -1.00, 388.3, 333.0)"> </text><text xml:space="preserve" font-family="Impact" font-weight="bold" font-size="50.0" fill="#FAFDC3" transform="matrix(1.00, 0.00, -0.00, -1.00, 397.1, 333.0)">e</text><text xml:space="preserve" font-family="Impact" font-weight="bold" font-size="50.0" fill="#FAFDC3" transform="matrix(1.00, 0.00, -0.00, -1.00, 422.7, 333.0)"> </text><text xml:space="preserve" font-family="Impact" font-weight="bold" font-size="50.0" fill="#FAFDC3" transform="matrix(1.00, 0.00, -0.00, -1.00, 96.0, 272.0)">h</text><text xml:space="preserve" font-family="Impact" font-weight="bold" font-size="50.0" fill="#FAFDC3" transform="matrix(1.00, 0.00, -0.00, -1.00, 122.2, 272.0)">i</text><text xml:space="preserve" font-family="Impact" font-weight="bold" font-size="50.0" fill="#FAFDC3" transform="matrix(1.00, 0.00, -0.00, -1.00, 135.9, 272.0)">d</text><text xml:space="preserve" font-family="Impact" font-weight="bold" font-size="50.0" fill="#FAFDC3" transform="matrix(1.00, 0.00, -0.00, -1.00, 161.9, 272.0)">r</text><text xml:space="preserve" font-family="Impact" font-weight="bold" font-size="50.0" fill="#FAFDC3" transform="matrix(1.00, 0.00, -0.00, -1.00, 179.7, 272.0)">o</text><text xml:space="preserve" font-family="Impact" font-weight="bold" font-size="50.0" fill="#FAFDC3" transform="matrix(1.00, 0.00, -0.00, -1.00, 205.3, 272.0)">f</text><text xml:space="preserve" font-family="Impact" font-weight="bold" font-size="50.0" fill="#FAFDC3" transform="matrix(1.00, 0.00, -0.00, -1.00, 219.7, 272.0)">o</text><text xml:space="preserve" font-family="Impact" font-weight="bold" font-size="50.0" fill="#FAFDC3" transform="matrix(1.00, 0.00, -0.00, -1.00, 245.3, 272.0)">b</text><text xml:space="preserve" font-family="Impact" font-weight="bold" font-size="50.0" fill="#FAFDC3" transform="matrix(1.00, 0.00, -0.00, -1.00, 271.3, 272.0)">i</text><text xml:space="preserve" font-family="Impact" font-weight="bold" font-size="50.0" fill="#FAFDC3" transform="matrix(1.00, 0.00, -0.00, -1.00, 285.0, 272.0)">a</text><g><clipPath id="clip-842"><path d="M 552.5 524.5 L 955.5 524.5 L 955.5 658.6 L 552.5 658.6 Z M 552.5 524.5 "></path></clipPath><g clip-path="url(#clip-842)"><text xml:space="preserve" font-family="Impact" font-weight="bold" font-size="30.0" fill="#FAFDC3" transform="matrix(1.00, 0.00, -0.00, -1.00, 562.0, 598.0)">I</text><text xml:space="preserve" font-family="Impact" font-weight="bold" font-size="30.0" fill="#FAFDC3" transform="matrix(1.00, 0.00, -0.00, -1.00, 570.6, 598.0)">m</text><text xml:space="preserve" font-family="Impact" font-weight="bold" font-size="30.0" fill="#FAFDC3" transform="matrix(1.00, 0.00, -0.00, -1.00, 593.8, 598.0)">a</text><text xml:space="preserve" font-family="Impact" font-weight="bold" font-size="30.0" fill="#FAFDC3" transform="matrix(1.00, 0.00, -0.00, -1.00, 608.9, 598.0)">g</text><text xml:space="preserve" font-family="Impact" font-weight="bold" font-size="30.0" fill="#FAFDC3" transform="matrix(1.00, 0.00, -0.00, -1.00, 624.4, 598.0)">i</text><text xml:space="preserve" font-family="Impact" font-weight="bold" font-size="30.0" fill="#FAFDC3" transform="matrix(1.00, 0.00, -0.00, -1.00, 632.6, 598.0)">n</text><text xml:space="preserve" font-family="Impact" font-weight="bold" font-size="30.0" fill="#FAFDC3" transform="matrix(1.00, 0.00, -0.00, -1.00, 648.3, 598.0)">e</text><text xml:space="preserve" font-family="Impact" font-weight="bold" font-size="30.0" fill="#FAFDC3" transform="matrix(1.00, 0.00, -0.00, -1.00, 663.7, 598.0)"> </text><text xml:space="preserve" font-family="Impact" font-weight="bold" font-size="30.0" fill="#FAFDC3" transform="matrix(1.00, 0.00, -0.00, -1.00, 669.0, 598.0)">n</text><text xml:space="preserve" font-family="Impact" font-weight="bold" font-size="30.0" fill="#FAFDC3" transform="matrix(1.00, 0.00, -0.00, -1.00, 684.7, 598.0)">o</text><text xml:space="preserve" font-family="Impact" font-weight="bold" font-size="30.0" fill="#FAFDC3" transform="matrix(1.00, 0.00, -0.00, -1.00, 700.0, 598.0)">v</text><text xml:space="preserve" font-family="Impact" font-weight="bold" font-size="30.0" fill="#FAFDC3" transform="matrix(1.00, 0.00, -0.00, -1.00, 713.1, 598.0)">a</text><text xml:space="preserve" font-family="Impact" font-weight="bold" font-size="30.0" fill="#FAFDC3" transform="matrix(1.00, 0.00, -0.00, -1.00, 728.2, 598.0)">s</text><text xml:space="preserve" font-family="Impact" font-weight="bold" font-size="30.0" fill="#FAFDC3" transform="matrix(1.00, 0.00, -0.00, -1.00, 742.3, 598.0)"> </text><text xml:space="preserve" font-family="Impact" font-weight="bold" font-size="30.0" fill="#FAFDC3" transform="matrix(1.00, 0.00, -0.00, -1.00, 747.6, 598.0)">i</text><text xml:space="preserve" font-family="Impact" font-weight="bold" font-size="30.0" fill="#FAFDC3" transform="matrix(1.00, 0.00, -0.00, -1.00, 755.9, 598.0)">n</text><text xml:space="preserve" font-family="Impact" font-weight="bold" font-size="30.0" fill="#FAFDC3" transform="matrix(1.00, 0.00, -0.00, -1.00, 771.5, 598.0)">t</text><text xml:space="preserve" font-family="Impact" font-weight="bold" font-size="30.0" fill="#FAFDC3" transform="matrix(1.00, 0.00, -0.00, -1.00, 780.7, 598.0)">e</text><text xml:space="preserve" font-family="Impact" font-weight="bold" font-size="30.0" fill="#FAFDC3" transform="matrix(1.00, 0.00, -0.00, -1.00, 796.0, 598.0)">r</text><text xml:space="preserve" font-family="Impact" font-weight="bold" font-size="30.0" fill="#FAFDC3" transform="matrix(1.00, 0.00, -0.00, -1.00, 807.3, 598.0)">f</text><text xml:space="preserve" font-family="Impact" font-weight="bold" font-size="30.0" fill="#FAFDC3" transform="matrix(1.00, 0.00, -0.00, -1.00, 816.0, 598.0)">a</text><text xml:space="preserve" font-family="Impact" font-weight="bold" font-size="30.0" fill="#FAFDC3" transform="matrix(1.00, 0.00, -0.00, -1.00, 831.1, 598.0)">c</text><text xml:space="preserve" font-family="Impact" font-weight="bold" font-size="30.0" fill="#FAFDC3" transform="matrix(1.00, 0.00, -0.00, -1.00, 845.9, 598.0)">e</text><text xml:space="preserve" font-family="Impact" font-weight="bold" font-size="30.0" fill="#FAFDC3" transform="matrix(1.00, 0.00, -0.00, -1.00, 861.2, 598.0)">s</text><text xml:space="preserve" font-family="Impact" font-weight="bold" font-size="30.0" fill="#FAFDC3" transform="matrix(1.00, 0.00, -0.00, -1.00, 875.4, 598.0)"> </text><text xml:space="preserve" font-family="Impact" font-weight="bold" font-size="30.0" fill="#FAFDC3" transform="matrix(1.00, 0.00, -0.00, -1.00, 562.0, 562.0)">d</text><text xml:space="preserve" font-family="Impact" font-weight="bold" font-size="30.0" fill="#FAFDC3" transform="matrix(1.00, 0.00, -0.00, -1.00, 577.6, 562.0)">i</text><text xml:space="preserve" font-family="Impact" font-weight="bold" font-size="30.0" fill="#FAFDC3" transform="matrix(1.00, 0.00, -0.00, -1.00, 585.8, 562.0)">g</text><text xml:space="preserve" font-family="Impact" font-weight="bold" font-size="30.0" fill="#FAFDC3" transform="matrix(1.00, 0.00, -0.00, -1.00, 601.3, 562.0)">i</text><text xml:space="preserve" font-family="Impact" font-weight="bold" font-size="30.0" fill="#FAFDC3" transform="matrix(1.00, 0.00, -0.00, -1.00, 609.5, 562.0)">t</text><text xml:space="preserve" font-family="Impact" font-weight="bold" font-size="30.0" fill="#FAFDC3" transform="matrix(1.00, 0.00, -0.00, -1.00, 618.7, 562.0)">a</text><text xml:space="preserve" font-family="Impact" font-weight="bold" font-size="30.0" fill="#FAFDC3" transform="matrix(1.00, 0.00, -0.00, -1.00, 633.8, 562.0)">i</text><text xml:space="preserve" font-family="Impact" font-weight="bold" font-size="30.0" fill="#FAFDC3" transform="matrix(1.00, 0.00, -0.00, -1.00, 642.0, 562.0)">s</text><text xml:space="preserve" font-family="Impact" font-weight="bold" font-size="30.0" fill="#FAFDC3" transform="matrix(1.00, 0.00, -0.00, -1.00, 656.1, 562.0)"> </text><text xml:space="preserve" font-family="Impact" font-weight="bold" font-size="30.0" fill="#FAFDC3" transform="matrix(1.00, 0.00, -0.00, -1.00, 661.4, 562.0)">f</text><text xml:space="preserve" font-family="Impact" font-weight="bold" font-size="30.0" fill="#FAFDC3" transform="matrix(1.00, 0.00, -0.00, -1.00, 670.1, 562.0)">l</text><text xml:space="preserve" font-family="Impact" font-weight="bold" font-size="30.0" fill="#FAFDC3" transform="matrix(1.00, 0.00, -0.00, -1.00, 678.3, 562.0)">e</text><text xml:space="preserve" font-family="Impact" font-weight="bold" font-size="30.0" fill="#FAFDC3" transform="matrix(1.00, 0.00, -0.00, -1.00, 693.6, 562.0)">x</text><text xml:space="preserve" font-family="Impact" font-weight="bold" font-size="30.0" fill="#FAFDC3" transform="matrix(1.00, 0.00, -0.00, -1.00, 706.6, 562.0)">í</text><text xml:space="preserve" font-family="Impact" font-weight="bold" font-size="30.0" fill="#FAFDC3" transform="matrix(1.00, 0.00, -0.00, -1.00, 714.9, 562.0)">v</text><text xml:space="preserve" font-family="Impact" font-weight="bold" font-size="30.0" fill="#FAFDC3" transform="matrix(1.00, 0.00, -0.00, -1.00, 728.0, 562.0)">e</text><text xml:space="preserve" font-family="Impact" font-weight="bold" font-size="30.0" fill="#FAFDC3" transform="matrix(1.00, 0.00, -0.00, -1.00, 743.3, 562.0)">i</text><text xml:space="preserve" font-family="Impact" font-weight="bold" font-size="30.0" fill="#FAFDC3" transform="matrix(1.00, 0.00, -0.00, -1.00, 751.5, 562.0)">s</text><text xml:space="preserve" font-family="Impact" font-weight="bold" font-size="30.0" fill="#FAFDC3" transform="matrix(1.00, 0.00, -0.00, -1.00, 765.6, 562.0)">…</text></g></g><g><clipPath id="clip-843"><path d="M 507.0 495.9 L 922.8 495.9 L 922.8 687.3 L 507.0 687.3 Z M 507.0 495.9 "></path></clipPath><g clip-path="url(#clip-843)"><path d="M 205.9 0.0 C 92.2 0.0 0.0 39.1 0.0 87.3 C 0.0 111.7 23.7 133.7 61.7 149.6 L 0.8 187.4 L 83.0 157.3 C 117.3 168.2 159.8 174.7 205.9 174.7 C 319.6 174.7 411.8 135.5 411.8 87.3 C 411.8 39.1 319.6 0.0 205.9 0.0 Z M 205.9 0.0 " fill="none" stroke="#85878C" stroke-width="2.00" transform="matrix(1.00, 0.00, 0.00, -1.00, 509.0, 685.3)"></path></g></g><g><clipPath id="clip-844"><path d="M 552.5 346.5 L 955.5 346.5 L 955.5 480.6 L 552.5 480.6 Z M 552.5 346.5 "></path></clipPath><g clip-path="url(#clip-844)"><text xml:space="preserve" font-family="Impact" font-weight="bold" font-size="30.0" fill="#FAFDC3" transform="matrix(1.00, 0.00, -0.00, -1.00, 562.0, 438.0)">I</text><text xml:space="preserve" font-family="Impact" font-weight="bold" font-size="30.0" fill="#FAFDC3" transform="matrix(1.00, 0.00, -0.00, -1.00, 570.6, 438.0)">m</text><text xml:space="preserve" font-family="Impact" font-weight="bold" font-size="30.0" fill="#FAFDC3" transform="matrix(1.00, 0.00, -0.00, -1.00, 593.8, 438.0)">a</text><text xml:space="preserve" font-family="Impact" font-weight="bold" font-size="30.0" fill="#FAFDC3" transform="matrix(1.00, 0.00, -0.00, -1.00, 608.9, 438.0)">g</text><text xml:space="preserve" font-family="Impact" font-weight="bold" font-size="30.0" fill="#FAFDC3" transform="matrix(1.00, 0.00, -0.00, -1.00, 624.4, 438.0)">i</text><text xml:space="preserve" font-family="Impact" font-weight="bold" font-size="30.0" fill="#FAFDC3" transform="matrix(1.00, 0.00, -0.00, -1.00, 632.6, 438.0)">n</text><text xml:space="preserve" font-family="Impact" font-weight="bold" font-size="30.0" fill="#FAFDC3" transform="matrix(1.00, 0.00, -0.00, -1.00, 648.3, 438.0)">e</text><text xml:space="preserve" font-family="Impact" font-weight="bold" font-size="30.0" fill="#FAFDC3" transform="matrix(1.00, 0.00, -0.00, -1.00, 663.7, 438.0)"> </text><text xml:space="preserve" font-family="Impact" font-weight="bold" font-size="30.0" fill="#FAFDC3" transform="matrix(1.00, 0.00, -0.00, -1.00, 669.0, 438.0)">n</text><text xml:space="preserve" font-family="Impact" font-weight="bold" font-size="30.0" fill="#FAFDC3" transform="matrix(1.00, 0.00, -0.00, -1.00, 684.7, 438.0)">o</text><text xml:space="preserve" font-family="Impact" font-weight="bold" font-size="30.0" fill="#FAFDC3" transform="matrix(1.00, 0.00, -0.00, -1.00, 700.0, 438.0)">v</text><text xml:space="preserve" font-family="Impact" font-weight="bold" font-size="30.0" fill="#FAFDC3" transform="matrix(1.00, 0.00, -0.00, -1.00, 713.1, 438.0)">o</text><text xml:space="preserve" font-family="Impact" font-weight="bold" font-size="30.0" fill="#FAFDC3" transform="matrix(1.00, 0.00, -0.00, -1.00, 728.5, 438.0)">s</text><text xml:space="preserve" font-family="Impact" font-weight="bold" font-size="30.0" fill="#FAFDC3" transform="matrix(1.00, 0.00, -0.00, -1.00, 742.6, 438.0)"> </text><text xml:space="preserve" font-family="Impact" font-weight="bold" font-size="30.0" fill="#FAFDC3" transform="matrix(1.00, 0.00, -0.00, -1.00, 747.9, 438.0)">m</text><text xml:space="preserve" font-family="Impact" font-weight="bold" font-size="30.0" fill="#FAFDC3" transform="matrix(1.00, 0.00, -0.00, -1.00, 771.0, 438.0)">a</text><text xml:space="preserve" font-family="Impact" font-weight="bold" font-size="30.0" fill="#FAFDC3" transform="matrix(1.00, 0.00, -0.00, -1.00, 786.1, 438.0)">t</text><text xml:space="preserve" font-family="Impact" font-weight="bold" font-size="30.0" fill="#FAFDC3" transform="matrix(1.00, 0.00, -0.00, -1.00, 795.2, 438.0)">e</text><text xml:space="preserve" font-family="Impact" font-weight="bold" font-size="30.0" fill="#FAFDC3" transform="matrix(1.00, 0.00, -0.00, -1.00, 810.6, 438.0)">r</text><text xml:space="preserve" font-family="Impact" font-weight="bold" font-size="30.0" fill="#FAFDC3" transform="matrix(1.00, 0.00, -0.00, -1.00, 821.3, 438.0)">i</text><text xml:space="preserve" font-family="Impact" font-weight="bold" font-size="30.0" fill="#FAFDC3" transform="matrix(1.00, 0.00, -0.00, -1.00, 829.5, 438.0)">a</text><text xml:space="preserve" font-family="Impact" font-weight="bold" font-size="30.0" fill="#FAFDC3" transform="matrix(1.00, 0.00, -0.00, -1.00, 844.6, 438.0)">s</text><text xml:space="preserve" font-family="Impact" font-weight="bold" font-size="30.0" fill="#FAFDC3" transform="matrix(1.00, 0.00, -0.00, -1.00, 858.8, 438.0)"> </text><text xml:space="preserve" font-family="Impact" font-weight="bold" font-size="30.0" fill="#FAFDC3" transform="matrix(1.00, 0.00, -0.00, -1.00, 864.1, 438.0)">p</text><text xml:space="preserve" font-family="Impact" font-weight="bold" font-size="30.0" fill="#FAFDC3" transform="matrix(1.00, 0.00, -0.00, -1.00, 879.6, 438.0)">a</text><text xml:space="preserve" font-family="Impact" font-weight="bold" font-size="30.0" fill="#FAFDC3" transform="matrix(1.00, 0.00, -0.00, -1.00, 894.7, 438.0)">r</text><text xml:space="preserve" font-family="Impact" font-weight="bold" font-size="30.0" fill="#FAFDC3" transform="matrix(1.00, 0.00, -0.00, -1.00, 905.5, 438.0)">a</text><text xml:space="preserve" font-family="Impact" font-weight="bold" font-size="30.0" fill="#FAFDC3" transform="matrix(1.00, 0.00, -0.00, -1.00, 920.6, 438.0)"> </text><text xml:space="preserve" font-family="Impact" font-weight="bold" font-size="30.0" fill="#FAFDC3" transform="matrix(1.00, 0.00, -0.00, -1.00, 562.0, 402.0)">p</text><text xml:space="preserve" font-family="Impact" font-weight="bold" font-size="30.0" fill="#FAFDC3" transform="matrix(1.00, 0.00, -0.00, -1.00, 577.6, 402.0)">r</text><text xml:space="preserve" font-family="Impact" font-weight="bold" font-size="30.0" fill="#FAFDC3" transform="matrix(1.00, 0.00, -0.00, -1.00, 588.3, 402.0)">o</text><text xml:space="preserve" font-family="Impact" font-weight="bold" font-size="30.0" fill="#FAFDC3" transform="matrix(1.00, 0.00, -0.00, -1.00, 603.6, 402.0)">d</text><text xml:space="preserve" font-family="Impact" font-weight="bold" font-size="30.0" fill="#FAFDC3" transform="matrix(1.00, 0.00, -0.00, -1.00, 619.2, 402.0)">u</text><text xml:space="preserve" font-family="Impact" font-weight="bold" font-size="30.0" fill="#FAFDC3" transform="matrix(1.00, 0.00, -0.00, -1.00, 634.9, 402.0)">ç</text><text xml:space="preserve" font-family="Impact" font-weight="bold" font-size="30.0" fill="#FAFDC3" transform="matrix(1.00, 0.00, -0.00, -1.00, 649.7, 402.0)">ã</text><text xml:space="preserve" font-family="Impact" font-weight="bold" font-size="30.0" fill="#FAFDC3" transform="matrix(1.00, 0.00, -0.00, -1.00, 664.8, 402.0)">o</text><text xml:space="preserve" font-family="Impact" font-weight="bold" font-size="30.0" fill="#FAFDC3" transform="matrix(1.00, 0.00, -0.00, -1.00, 680.2, 402.0)"> </text><text xml:space="preserve" font-family="Impact" font-weight="bold" font-size="30.0" fill="#FAFDC3" transform="matrix(1.00, 0.00, -0.00, -1.00, 685.5, 402.0)">d</text><text xml:space="preserve" font-family="Impact" font-weight="bold" font-size="30.0" fill="#FAFDC3" transform="matrix(1.00, 0.00, -0.00, -1.00, 701.1, 402.0)">e</text><text xml:space="preserve" font-family="Impact" font-weight="bold" font-size="30.0" fill="#FAFDC3" transform="matrix(1.00, 0.00, -0.00, -1.00, 716.4, 402.0)"> </text><text xml:space="preserve" font-family="Impact" font-weight="bold" font-size="30.0" fill="#FAFDC3" transform="matrix(1.00, 0.00, -0.00, -1.00, 721.7, 402.0)">e</text><text xml:space="preserve" font-family="Impact" font-weight="bold" font-size="30.0" fill="#FAFDC3" transform="matrix(1.00, 0.00, -0.00, -1.00, 737.0, 402.0)">q</text><text xml:space="preserve" font-family="Impact" font-weight="bold" font-size="30.0" fill="#FAFDC3" transform="matrix(1.00, 0.00, -0.00, -1.00, 752.6, 402.0)">u</text><text xml:space="preserve" font-family="Impact" font-weight="bold" font-size="30.0" fill="#FAFDC3" transform="matrix(1.00, 0.00, -0.00, -1.00, 768.3, 402.0)">i</text><text xml:space="preserve" font-family="Impact" font-weight="bold" font-size="30.0" fill="#FAFDC3" transform="matrix(1.00, 0.00, -0.00, -1.00, 776.5, 402.0)">p</text><text xml:space="preserve" font-family="Impact" font-weight="bold" font-size="30.0" fill="#FAFDC3" transform="matrix(1.00, 0.00, -0.00, -1.00, 792.1, 402.0)">a</text><text xml:space="preserve" font-family="Impact" font-weight="bold" font-size="30.0" fill="#FAFDC3" transform="matrix(1.00, 0.00, -0.00, -1.00, 807.2, 402.0)">m</text><text xml:space="preserve" font-family="Impact" font-weight="bold" font-size="30.0" fill="#FAFDC3" transform="matrix(1.00, 0.00, -0.00, -1.00, 830.3, 402.0)">e</text><text xml:space="preserve" font-family="Impact" font-weight="bold" font-size="30.0" fill="#FAFDC3" transform="matrix(1.00, 0.00, -0.00, -1.00, 845.7, 402.0)">n</text><text xml:space="preserve" font-family="Impact" font-weight="bold" font-size="30.0" fill="#FAFDC3" transform="matrix(1.00, 0.00, -0.00, -1.00, 861.3, 402.0)">t</text><text xml:space="preserve" font-family="Impact" font-weight="bold" font-size="30.0" fill="#FAFDC3" transform="matrix(1.00, 0.00, -0.00, -1.00, 870.5, 402.0)">o</text><text xml:space="preserve" font-family="Impact" font-weight="bold" font-size="30.0" fill="#FAFDC3" transform="matrix(1.00, 0.00, -0.00, -1.00, 885.8, 402.0)"> </text><text xml:space="preserve" font-family="Impact" font-weight="bold" font-size="30.0" fill="#FAFDC3" transform="matrix(1.00, 0.00, -0.00, -1.00, 891.1, 402.0)">n</text><text xml:space="preserve" font-family="Impact" font-weight="bold" font-size="30.0" fill="#FAFDC3" transform="matrix(1.00, 0.00, -0.00, -1.00, 906.8, 402.0)">a</text><text xml:space="preserve" font-family="Impact" font-weight="bold" font-size="30.0" fill="#FAFDC3" transform="matrix(1.00, 0.00, -0.00, -1.00, 921.9, 402.0)"> </text><text xml:space="preserve" font-family="Impact" font-weight="bold" font-size="30.0" fill="#FAFDC3" transform="matrix(1.00, 0.00, -0.00, -1.00, 562.0, 366.0)">á</text><text xml:space="preserve" font-family="Impact" font-weight="bold" font-size="30.0" fill="#FAFDC3" transform="matrix(1.00, 0.00, -0.00, -1.00, 577.1, 366.0)">r</text><text xml:space="preserve" font-family="Impact" font-weight="bold" font-size="30.0" fill="#FAFDC3" transform="matrix(1.00, 0.00, -0.00, -1.00, 587.8, 366.0)">e</text><text xml:space="preserve" font-family="Impact" font-weight="bold" font-size="30.0" fill="#FAFDC3" transform="matrix(1.00, 0.00, -0.00, -1.00, 603.2, 366.0)">a</text><text xml:space="preserve" font-family="Impact" font-weight="bold" font-size="30.0" fill="#FAFDC3" transform="matrix(1.00, 0.00, -0.00, -1.00, 618.3, 366.0)"> </text><text xml:space="preserve" font-family="Impact" font-weight="bold" font-size="30.0" fill="#FAFDC3" transform="matrix(1.00, 0.00, -0.00, -1.00, 623.6, 366.0)">m</text><text xml:space="preserve" font-family="Impact" font-weight="bold" font-size="30.0" fill="#FAFDC3" transform="matrix(1.00, 0.00, -0.00, -1.00, 646.7, 366.0)">é</text><text xml:space="preserve" font-family="Impact" font-weight="bold" font-size="30.0" fill="#FAFDC3" transform="matrix(1.00, 0.00, -0.00, -1.00, 662.1, 366.0)">d</text><text xml:space="preserve" font-family="Impact" font-weight="bold" font-size="30.0" fill="#FAFDC3" transform="matrix(1.00, 0.00, -0.00, -1.00, 677.6, 366.0)">i</text><text xml:space="preserve" font-family="Impact" font-weight="bold" font-size="30.0" fill="#FAFDC3" transform="matrix(1.00, 0.00, -0.00, -1.00, 685.9, 366.0)">c</text><text xml:space="preserve" font-family="Impact" font-weight="bold" font-size="30.0" fill="#FAFDC3" transform="matrix(1.00, 0.00, -0.00, -1.00, 700.7, 366.0)">a</text><text xml:space="preserve" font-family="Impact" font-weight="bold" font-size="30.0" fill="#FAFDC3" transform="matrix(1.00, 0.00, -0.00, -1.00, 715.8, 366.0)">…</text></g></g><g><clipPath id="clip-845"><path d="M 463.9 302.9 L 987.9 302.9 L 987.9 509.3 L 463.9 509.3 Z M 463.9 302.9 "></path></clipPath><g clip-path="url(#clip-845)"><path d="M 260.0 0.0 C 116.4 -0.0 0.0 42.5 0.0 94.8 C 0.0 121.3 29.9 145.3 78.0 162.5 L 0.8 202.4 L 102.2 170.0 C 146.0 182.2 200.6 189.6 260.0 189.6 C 403.6 189.6 520.0 147.2 520.0 94.8 C 520.0 42.5 403.6 0.0 260.0 0.0 Z M 260.0 0.0 " fill="none" stroke="#85878C" stroke-width="2.00" transform="matrix(1.00, 0.00, 0.00, -1.00, 465.9, 507.3)"></path></g></g><g><clipPath id="clip-846"><path d="M 560.5 150.5 L 963.5 150.5 L 963.5 284.6 L 560.5 284.6 Z M 560.5 150.5 "></path></clipPath><g clip-path="url(#clip-846)"><text xml:space="preserve" font-family="Impact" font-weight="bold" font-size="30.0" fill="#FAFDC3" transform="matrix(1.00, 0.00, -0.00, -1.00, 570.0, 224.0)">I</text><text xml:space="preserve" font-family="Impact" font-weight="bold" font-size="30.0" fill="#FAFDC3" transform="matrix(1.00, 0.00, -0.00, -1.00, 578.6, 224.0)">m</text><text xml:space="preserve" font-family="Impact" font-weight="bold" font-size="30.0" fill="#FAFDC3" transform="matrix(1.00, 0.00, -0.00, -1.00, 601.8, 224.0)">a</text><text xml:space="preserve" font-family="Impact" font-weight="bold" font-size="30.0" fill="#FAFDC3" transform="matrix(1.00, 0.00, -0.00, -1.00, 616.9, 224.0)">g</text><text xml:space="preserve" font-family="Impact" font-weight="bold" font-size="30.0" fill="#FAFDC3" transform="matrix(1.00, 0.00, -0.00, -1.00, 632.4, 224.0)">i</text><text xml:space="preserve" font-family="Impact" font-weight="bold" font-size="30.0" fill="#FAFDC3" transform="matrix(1.00, 0.00, -0.00, -1.00, 640.6, 224.0)">n</text><text xml:space="preserve" font-family="Impact" font-weight="bold" font-size="30.0" fill="#FAFDC3" transform="matrix(1.00, 0.00, -0.00, -1.00, 656.3, 224.0)">e</text><text xml:space="preserve" font-family="Impact" font-weight="bold" font-size="30.0" fill="#FAFDC3" transform="matrix(1.00, 0.00, -0.00, -1.00, 671.7, 224.0)"> </text><text xml:space="preserve" font-family="Impact" font-weight="bold" font-size="30.0" fill="#FAFDC3" transform="matrix(1.00, 0.00, -0.00, -1.00, 677.0, 224.0)">p</text><text xml:space="preserve" font-family="Impact" font-weight="bold" font-size="30.0" fill="#FAFDC3" transform="matrix(1.00, 0.00, -0.00, -1.00, 692.5, 224.0)">a</text><text xml:space="preserve" font-family="Impact" font-weight="bold" font-size="30.0" fill="#FAFDC3" transform="matrix(1.00, 0.00, -0.00, -1.00, 707.7, 224.0)">p</text><text xml:space="preserve" font-family="Impact" font-weight="bold" font-size="30.0" fill="#FAFDC3" transform="matrix(1.00, 0.00, -0.00, -1.00, 723.2, 224.0)">e</text><text xml:space="preserve" font-family="Impact" font-weight="bold" font-size="30.0" fill="#FAFDC3" transform="matrix(1.00, 0.00, -0.00, -1.00, 738.6, 224.0)">l</text><text xml:space="preserve" font-family="Impact" font-weight="bold" font-size="30.0" fill="#FAFDC3" transform="matrix(1.00, 0.00, -0.00, -1.00, 746.8, 224.0)"> </text><text xml:space="preserve" font-family="Impact" font-weight="bold" font-size="30.0" fill="#FAFDC3" transform="matrix(1.00, 0.00, -0.00, -1.00, 752.1, 224.0)">e</text><text xml:space="preserve" font-family="Impact" font-weight="bold" font-size="30.0" fill="#FAFDC3" transform="matrix(1.00, 0.00, -0.00, -1.00, 767.4, 224.0)"> </text><text xml:space="preserve" font-family="Impact" font-weight="bold" font-size="30.0" fill="#FAFDC3" transform="matrix(1.00, 0.00, -0.00, -1.00, 772.7, 224.0)">t</text><text xml:space="preserve" font-family="Impact" font-weight="bold" font-size="30.0" fill="#FAFDC3" transform="matrix(1.00, 0.00, -0.00, -1.00, 781.9, 224.0)">e</text><text xml:space="preserve" font-family="Impact" font-weight="bold" font-size="30.0" fill="#FAFDC3" transform="matrix(1.00, 0.00, -0.00, -1.00, 797.2, 224.0)">c</text><text xml:space="preserve" font-family="Impact" font-weight="bold" font-size="30.0" fill="#FAFDC3" transform="matrix(1.00, 0.00, -0.00, -1.00, 812.0, 224.0)">i</text><text xml:space="preserve" font-family="Impact" font-weight="bold" font-size="30.0" fill="#FAFDC3" transform="matrix(1.00, 0.00, -0.00, -1.00, 820.2, 224.0)">d</text><text xml:space="preserve" font-family="Impact" font-weight="bold" font-size="30.0" fill="#FAFDC3" transform="matrix(1.00, 0.00, -0.00, -1.00, 835.8, 224.0)">o</text><text xml:space="preserve" font-family="Impact" font-weight="bold" font-size="30.0" fill="#FAFDC3" transform="matrix(1.00, 0.00, -0.00, -1.00, 851.2, 224.0)">s</text><text xml:space="preserve" font-family="Impact" font-weight="bold" font-size="30.0" fill="#FAFDC3" transform="matrix(1.00, 0.00, -0.00, -1.00, 865.3, 224.0)"> </text><text xml:space="preserve" font-family="Impact" font-weight="bold" font-size="30.0" fill="#FAFDC3" transform="matrix(1.00, 0.00, -0.00, -1.00, 570.0, 188.0)">o</text><text xml:space="preserve" font-family="Impact" font-weight="bold" font-size="30.0" fill="#FAFDC3" transform="matrix(1.00, 0.00, -0.00, -1.00, 585.3, 188.0)">r</text><text xml:space="preserve" font-family="Impact" font-weight="bold" font-size="30.0" fill="#FAFDC3" transform="matrix(1.00, 0.00, -0.00, -1.00, 596.1, 188.0)">g</text><text xml:space="preserve" font-family="Impact" font-weight="bold" font-size="30.0" fill="#FAFDC3" transform="matrix(1.00, 0.00, -0.00, -1.00, 611.6, 188.0)">â</text><text xml:space="preserve" font-family="Impact" font-weight="bold" font-size="30.0" fill="#FAFDC3" transform="matrix(1.00, 0.00, -0.00, -1.00, 626.7, 188.0)">n</text><text xml:space="preserve" font-family="Impact" font-weight="bold" font-size="30.0" fill="#FAFDC3" transform="matrix(1.00, 0.00, -0.00, -1.00, 642.4, 188.0)">i</text><text xml:space="preserve" font-family="Impact" font-weight="bold" font-size="30.0" fill="#FAFDC3" transform="matrix(1.00, 0.00, -0.00, -1.00, 650.6, 188.0)">c</text><text xml:space="preserve" font-family="Impact" font-weight="bold" font-size="30.0" fill="#FAFDC3" transform="matrix(1.00, 0.00, -0.00, -1.00, 665.5, 188.0)">o</text><text xml:space="preserve" font-family="Impact" font-weight="bold" font-size="30.0" fill="#FAFDC3" transform="matrix(1.00, 0.00, -0.00, -1.00, 680.8, 188.0)">s</text><text xml:space="preserve" font-family="Impact" font-weight="bold" font-size="30.0" fill="#FAFDC3" transform="matrix(1.00, 0.00, -0.00, -1.00, 694.9, 188.0)"> </text><text xml:space="preserve" font-family="Impact" font-weight="bold" font-size="30.0" fill="#FAFDC3" transform="matrix(1.00, 0.00, -0.00, -1.00, 700.2, 188.0)">e</text><text xml:space="preserve" font-family="Impact" font-weight="bold" font-size="30.0" fill="#FAFDC3" transform="matrix(1.00, 0.00, -0.00, -1.00, 715.6, 188.0)"> </text><text xml:space="preserve" font-family="Impact" font-weight="bold" font-size="30.0" fill="#FAFDC3" transform="matrix(1.00, 0.00, -0.00, -1.00, 720.9, 188.0)">b</text><text xml:space="preserve" font-family="Impact" font-weight="bold" font-size="30.0" fill="#FAFDC3" transform="matrix(1.00, 0.00, -0.00, -1.00, 736.4, 188.0)">i</text><text xml:space="preserve" font-family="Impact" font-weight="bold" font-size="30.0" fill="#FAFDC3" transform="matrix(1.00, 0.00, -0.00, -1.00, 744.6, 188.0)">o</text><text xml:space="preserve" font-family="Impact" font-weight="bold" font-size="30.0" fill="#FAFDC3" transform="matrix(1.00, 0.00, -0.00, -1.00, 760.0, 188.0)">d</text><text xml:space="preserve" font-family="Impact" font-weight="bold" font-size="30.0" fill="#FAFDC3" transform="matrix(1.00, 0.00, -0.00, -1.00, 775.6, 188.0)">e</text><text xml:space="preserve" font-family="Impact" font-weight="bold" font-size="30.0" fill="#FAFDC3" transform="matrix(1.00, 0.00, -0.00, -1.00, 790.9, 188.0)">g</text><text xml:space="preserve" font-family="Impact" font-weight="bold" font-size="30.0" fill="#FAFDC3" transform="matrix(1.00, 0.00, -0.00, -1.00, 806.4, 188.0)">r</text><text xml:space="preserve" font-family="Impact" font-weight="bold" font-size="30.0" fill="#FAFDC3" transform="matrix(1.00, 0.00, -0.00, -1.00, 817.2, 188.0)">a</text><text xml:space="preserve" font-family="Impact" font-weight="bold" font-size="30.0" fill="#FAFDC3" transform="matrix(1.00, 0.00, -0.00, -1.00, 832.3, 188.0)">d</text><text xml:space="preserve" font-family="Impact" font-weight="bold" font-size="30.0" fill="#FAFDC3" transform="matrix(1.00, 0.00, -0.00, -1.00, 847.9, 188.0)">á</text><text xml:space="preserve" font-family="Impact" font-weight="bold" font-size="30.0" fill="#FAFDC3" transform="matrix(1.00, 0.00, -0.00, -1.00, 863.0, 188.0)">v</text><text xml:space="preserve" font-family="Impact" font-weight="bold" font-size="30.0" fill="#FAFDC3" transform="matrix(1.00, 0.00, -0.00, -1.00, 876.1, 188.0)">e</text><text xml:space="preserve" font-family="Impact" font-weight="bold" font-size="30.0" fill="#FAFDC3" transform="matrix(1.00, 0.00, -0.00, -1.00, 891.4, 188.0)">i</text><text xml:space="preserve" font-family="Impact" font-weight="bold" font-size="30.0" fill="#FAFDC3" transform="matrix(1.00, 0.00, -0.00, -1.00, 899.6, 188.0)">s</text><text xml:space="preserve" font-family="Impact" font-weight="bold" font-size="30.0" fill="#FAFDC3" transform="matrix(1.00, 0.00, -0.00, -1.00, 913.8, 188.0)">…</text></g></g><g><clipPath id="clip-847"><path d="M 507.0 125.7 L 991.8 125.7 L 991.8 295.3 L 507.0 295.3 Z M 507.0 125.7 "></path></clipPath><g clip-path="url(#clip-847)"><path d="M 240.4 0.0 C 107.6 0.0 0.0 34.2 0.0 76.4 C 0.0 97.9 28.0 117.3 72.9 131.2 L 0.8 165.6 L 100.3 138.4 C 139.8 147.5 188.1 152.8 240.4 152.8 C 373.2 152.8 480.8 118.6 480.8 76.4 C 480.8 34.2 373.2 0.0 240.4 0.0 Z M 240.4 0.0 " fill="none" stroke="#85878C" stroke-width="2.00" transform="matrix(1.00, 0.00, 0.00, -1.00, 509.0, 293.3)"></path></g></g></g></svg>