<?xml version="1.0" encoding="UTF-8" standalone="no"?><svg xmlns="http://www.w3.org/2000/svg" xmlns:xlink="http://www.w3.org/1999/xlink" clip-rule="evenodd" stroke-miterlimit="4.00" viewBox="0 0 343 228"><desc>SVG generated by Keynote</desc><defs></defs><g transform="matrix(1.00, 0.00, -0.00, -1.00, 0.0, 228.0)"><text xml:space="preserve" font-family="Impact" font-weight="bold" font-size="50.0" fill="#FAFDC3" transform="matrix(1.00, 0.00, -0.00, -1.00, 2.0, 186.0)">C</text><text xml:space="preserve" font-family="Impact" font-weight="bold" font-size="50.0" fill="#FAFDC3" transform="matrix(1.00, 0.00, -0.00, -1.00, 29.7, 186.0)">e</text><text xml:space="preserve" font-family="Impact" font-weight="bold" font-size="50.0" fill="#FAFDC3" transform="matrix(1.00, 0.00, -0.00, -1.00, 55.2, 186.0)">l</text><text xml:space="preserve" font-family="Impact" font-weight="bold" font-size="50.0" fill="#FAFDC3" transform="matrix(1.00, 0.00, -0.00, -1.00, 68.9, 186.0)">u</text><text xml:space="preserve" font-family="Impact" font-weight="bold" font-size="50.0" fill="#FAFDC3" transform="matrix(1.00, 0.00, -0.00, -1.00, 95.1, 186.0)">l</text><text xml:space="preserve" font-family="Impact" font-weight="bold" font-size="50.0" fill="#FAFDC3" transform="matrix(1.00, 0.00, -0.00, -1.00, 108.8, 186.0)">o</text><text xml:space="preserve" font-family="Impact" font-weight="bold" font-size="50.0" fill="#FAFDC3" transform="matrix(1.00, 0.00, -0.00, -1.00, 134.3, 186.0)">s</text><text xml:space="preserve" font-family="Impact" font-weight="bold" font-size="50.0" fill="#FAFDC3" transform="matrix(1.00, 0.00, -0.00, -1.00, 157.9, 186.0)">e</text><text xml:space="preserve" font-family="Impact" font-weight="bold" font-size="50.0" fill="#FAFDC3" transform="matrix(1.00, 0.00, -0.00, -1.00, 183.4, 186.0)"> </text><text xml:space="preserve" font-family="Impact" font-weight="bold" font-size="50.0" fill="#FAFDC3" transform="matrix(1.00, 0.00, -0.00, -1.00, 192.3, 186.0)">c</text><text xml:space="preserve" font-family="Impact" font-weight="bold" font-size="50.0" fill="#FAFDC3" transform="matrix(1.00, 0.00, -0.00, -1.00, 217.0, 186.0)">o</text><text xml:space="preserve" font-family="Impact" font-weight="bold" font-size="50.0" fill="#FAFDC3" transform="matrix(1.00, 0.00, -0.00, -1.00, 242.5, 186.0)">m</text><text xml:space="preserve" font-family="Impact" font-weight="bold" font-size="50.0" fill="#FAFDC3" transform="matrix(1.00, 0.00, -0.00, -1.00, 281.1, 186.0)"> </text><text xml:space="preserve" font-family="Impact" font-weight="bold" font-size="50.0" fill="#FAFDC3" transform="matrix(1.00, 0.00, -0.00, -1.00, 2.0, 125.0)">p</text><text xml:space="preserve" font-family="Impact" font-weight="bold" font-size="50.0" fill="#FAFDC3" transform="matrix(1.00, 0.00, -0.00, -1.00, 28.0, 125.0)">r</text><text xml:space="preserve" font-family="Impact" font-weight="bold" font-size="50.0" fill="#FAFDC3" transform="matrix(1.00, 0.00, -0.00, -1.00, 45.8, 125.0)">o</text><text xml:space="preserve" font-family="Impact" font-weight="bold" font-size="50.0" fill="#FAFDC3" transform="matrix(1.00, 0.00, -0.00, -1.00, 71.4, 125.0)">p</text><text xml:space="preserve" font-family="Impact" font-weight="bold" font-size="50.0" fill="#FAFDC3" transform="matrix(1.00, 0.00, -0.00, -1.00, 97.4, 125.0)">r</text><text xml:space="preserve" font-family="Impact" font-weight="bold" font-size="50.0" fill="#FAFDC3" transform="matrix(1.00, 0.00, -0.00, -1.00, 115.3, 125.0)">i</text><text xml:space="preserve" font-family="Impact" font-weight="bold" font-size="50.0" fill="#FAFDC3" transform="matrix(1.00, 0.00, -0.00, -1.00, 128.9, 125.0)">e</text><text xml:space="preserve" font-family="Impact" font-weight="bold" font-size="50.0" fill="#FAFDC3" transform="matrix(1.00, 0.00, -0.00, -1.00, 154.5, 125.0)">d</text><text xml:space="preserve" font-family="Impact" font-weight="bold" font-size="50.0" fill="#FAFDC3" transform="matrix(1.00, 0.00, -0.00, -1.00, 180.5, 125.0)">a</text><text xml:space="preserve" font-family="Impact" font-weight="bold" font-size="50.0" fill="#FAFDC3" transform="matrix(1.00, 0.00, -0.00, -1.00, 205.7, 125.0)">d</text><text xml:space="preserve" font-family="Impact" font-weight="bold" font-size="50.0" fill="#FAFDC3" transform="matrix(1.00, 0.00, -0.00, -1.00, 231.6, 125.0)">e</text><text xml:space="preserve" font-family="Impact" font-weight="bold" font-size="50.0" fill="#FAFDC3" transform="matrix(1.00, 0.00, -0.00, -1.00, 257.2, 125.0)">s</text><text xml:space="preserve" font-family="Impact" font-weight="bold" font-size="50.0" fill="#FAFDC3" transform="matrix(1.00, 0.00, -0.00, -1.00, 280.7, 125.0)"> </text><text xml:space="preserve" font-family="Impact" font-weight="bold" font-size="50.0" fill="#FAFDC3" transform="matrix(1.00, 0.00, -0.00, -1.00, 289.5, 125.0)">d</text><text xml:space="preserve" font-family="Impact" font-weight="bold" font-size="50.0" fill="#FAFDC3" transform="matrix(1.00, 0.00, -0.00, -1.00, 315.5, 125.0)">e</text><text xml:space="preserve" font-family="Impact" font-weight="bold" font-size="50.0" fill="#FAFDC3" transform="matrix(1.00, 0.00, -0.00, -1.00, 341.1, 125.0)"> </text><text xml:space="preserve" font-family="Impact" font-weight="bold" font-size="50.0" fill="#FAFDC3" transform="matrix(1.00, 0.00, -0.00, -1.00, 2.0, 64.0)">t</text><text xml:space="preserve" font-family="Impact" font-weight="bold" font-size="50.0" fill="#FAFDC3" transform="matrix(1.00, 0.00, -0.00, -1.00, 17.2, 64.0)">r</text><text xml:space="preserve" font-family="Impact" font-weight="bold" font-size="50.0" fill="#FAFDC3" transform="matrix(1.00, 0.00, -0.00, -1.00, 35.1, 64.0)">a</text><text xml:space="preserve" font-family="Impact" font-weight="bold" font-size="50.0" fill="#FAFDC3" transform="matrix(1.00, 0.00, -0.00, -1.00, 60.3, 64.0)">n</text><text xml:space="preserve" font-family="Impact" font-weight="bold" font-size="50.0" fill="#FAFDC3" transform="matrix(1.00, 0.00, -0.00, -1.00, 86.4, 64.0)">s</text><text xml:space="preserve" font-family="Impact" font-weight="bold" font-size="50.0" fill="#FAFDC3" transform="matrix(1.00, 0.00, -0.00, -1.00, 110.0, 64.0)">p</text><text xml:space="preserve" font-family="Impact" font-weight="bold" font-size="50.0" fill="#FAFDC3" transform="matrix(1.00, 0.00, -0.00, -1.00, 135.9, 64.0)">a</text><text xml:space="preserve" font-family="Impact" font-weight="bold" font-size="50.0" fill="#FAFDC3" transform="matrix(1.00, 0.00, -0.00, -1.00, 161.1, 64.0)">r</text><text xml:space="preserve" font-family="Impact" font-weight="bold" font-size="50.0" fill="#FAFDC3" transform="matrix(1.00, 0.00, -0.00, -1.00, 179.0, 64.0)">ê</text><text xml:space="preserve" font-family="Impact" font-weight="bold" font-size="50.0" fill="#FAFDC3" transform="matrix(1.00, 0.00, -0.00, -1.00, 204.6, 64.0)">n</text><text xml:space="preserve" font-family="Impact" font-weight="bold" font-size="50.0" fill="#FAFDC3" transform="matrix(1.00, 0.00, -0.00, -1.00, 230.7, 64.0)">c</text><text xml:space="preserve" font-family="Impact" font-weight="bold" font-size="50.0" fill="#FAFDC3" transform="matrix(1.00, 0.00, -0.00, -1.00, 255.4, 64.0)">i</text><text xml:space="preserve" font-family="Impact" font-weight="bold" font-size="50.0" fill="#FAFDC3" transform="matrix(1.00, 0.00, -0.00, -1.00, 269.1, 64.0)">a</text><text xml:space="preserve" font-family="Impact" font-weight="bold" font-size="50.0" fill="#FAFDC3" transform="matrix(1.00, 0.00, -0.00, -1.00, 294.3, 64.0)"> </text><text xml:space="preserve" font-family="Impact" font-weight="bold" font-size="50.0" fill="#FAFDC3" transform="matrix(1.00, 0.00, -0.00, -1.00, 303.1, 64.0)">e</text><text xml:space="preserve" font-family="Impact" font-weight="bold" font-size="50.0" fill="#FAFDC3" transform="matrix(1.00, 0.00, -0.00, -1.00, 328.7, 64.0)"> </text><text xml:space="preserve" font-family="Impact" font-weight="bold" font-size="50.0" fill="#FAFDC3" transform="matrix(1.00, 0.00, -0.00, -1.00, 2.0, 3.0)">h</text><text xml:space="preserve" font-family="Impact" font-weight="bold" font-size="50.0" fill="#FAFDC3" transform="matrix(1.00, 0.00, -0.00, -1.00, 28.2, 3.0)">i</text><text xml:space="preserve" font-family="Impact" font-weight="bold" font-size="50.0" fill="#FAFDC3" transform="matrix(1.00, 0.00, -0.00, -1.00, 41.9, 3.0)">d</text><text xml:space="preserve" font-family="Impact" font-weight="bold" font-size="50.0" fill="#FAFDC3" transform="matrix(1.00, 0.00, -0.00, -1.00, 67.9, 3.0)">r</text><text xml:space="preserve" font-family="Impact" font-weight="bold" font-size="50.0" fill="#FAFDC3" transform="matrix(1.00, 0.00, -0.00, -1.00, 85.7, 3.0)">o</text><text xml:space="preserve" font-family="Impact" font-weight="bold" font-size="50.0" fill="#FAFDC3" transform="matrix(1.00, 0.00, -0.00, -1.00, 111.3, 3.0)">f</text><text xml:space="preserve" font-family="Impact" font-weight="bold" font-size="50.0" fill="#FAFDC3" transform="matrix(1.00, 0.00, -0.00, -1.00, 125.7, 3.0)">o</text><text xml:space="preserve" font-family="Impact" font-weight="bold" font-size="50.0" fill="#FAFDC3" transform="matrix(1.00, 0.00, -0.00, -1.00, 151.3, 3.0)">b</text><text xml:space="preserve" font-family="Impact" font-weight="bold" font-size="50.0" fill="#FAFDC3" transform="matrix(1.00, 0.00, -0.00, -1.00, 177.3, 3.0)">i</text><text xml:space="preserve" font-family="Impact" font-weight="bold" font-size="50.0" fill="#FAFDC3" transform="matrix(1.00, 0.00, -0.00, -1.00, 191.0, 3.0)">a</text></g></svg>