<?xml version="1.0" encoding="UTF-8" standalone="no"?><svg xmlns="http://www.w3.org/2000/svg" xmlns:xlink="http://www.w3.org/1999/xlink" clip-rule="evenodd" stroke-miterlimit="4.00" viewBox="0 0 1024 768"><desc>SVG generated by Keynote</desc><defs></defs><g transform="matrix(1.00, 0.00, -0.00, -1.00, 0.0, 768.0)"><path d="M 0.0 768.0 L 1024.0 768.0 L 1024.0 0.0 L 0.0 0.0 Z M 0.0 768.0 " fill="#00DEE1"></path><text xml:space="preserve" font-family="Impact" font-weight="bold" font-size="120.0" fill="#802438" transform="matrix(1.00, 0.00, -0.00, -1.00, 182.0, 378.0)">P</text><text xml:space="preserve" font-family="Impact" font-weight="bold" font-size="120.0" fill="#802438" transform="matrix(1.00, 0.00, -0.00, -1.00, 242.2, 378.0)">a</text><text xml:space="preserve" font-family="Impact" font-weight="bold" font-size="120.0" fill="#802438" transform="matrix(1.00, 0.00, -0.00, -1.00, 302.7, 378.0)">r</text><text xml:space="preserve" font-family="Impact" font-weight="bold" font-size="120.0" fill="#802438" transform="matrix(1.00, 0.00, -0.00, -1.00, 345.6, 378.0)">a</text><text xml:space="preserve" font-family="Impact" font-weight="bold" font-size="120.0" fill="#802438" transform="matrix(1.00, 0.00, -0.00, -1.00, 406.1, 378.0)"> </text><text xml:space="preserve" font-family="Impact" font-weight="bold" font-size="120.0" fill="#802438" transform="matrix(1.00, 0.00, -0.00, -1.00, 427.3, 378.0)">o</text><text xml:space="preserve" font-family="Impact" font-weight="bold" font-size="120.0" fill="#802438" transform="matrix(1.00, 0.00, -0.00, -1.00, 488.6, 378.0)"> </text><text xml:space="preserve" font-family="Impact" font-weight="bold" font-size="120.0" fill="#802438" transform="matrix(1.00, 0.00, -0.00, -1.00, 509.8, 378.0)">q</text><text xml:space="preserve" font-family="Impact" font-weight="bold" font-size="120.0" fill="#802438" transform="matrix(1.00, 0.00, -0.00, -1.00, 572.0, 378.0)">u</text><text xml:space="preserve" font-family="Impact" font-weight="bold" font-size="120.0" fill="#802438" transform="matrix(1.00, 0.00, -0.00, -1.00, 634.8, 378.0)">e</text><text xml:space="preserve" font-family="Impact" font-weight="bold" font-size="120.0" fill="#802438" transform="matrix(1.00, 0.00, -0.00, -1.00, 696.1, 378.0)"> </text><text xml:space="preserve" font-family="Impact" font-weight="bold" font-size="120.0" fill="#802438" transform="matrix(1.00, 0.00, -0.00, -1.00, 717.3, 378.0)">é</text><text xml:space="preserve" font-family="Impact" font-weight="bold" font-size="120.0" fill="#802438" transform="matrix(1.00, 0.00, -0.00, -1.00, 778.7, 378.0)">?</text></g></svg>