<?xml version="1.0" encoding="UTF-8" standalone="no"?><svg xmlns="http://www.w3.org/2000/svg" xmlns:xlink="http://www.w3.org/1999/xlink" clip-rule="evenodd" stroke-miterlimit="4.00" viewBox="0 0 1024 768"><desc>SVG generated by Keynote</desc><defs></defs><g transform="matrix(1.00, 0.00, -0.00, -1.00, 0.0, 768.0)"><path d="M 0.0 768.0 L 1024.0 768.0 L 1024.0 0.0 L 0.0 0.0 Z M 0.0 768.0 " fill="#00DEE1"></path><text xml:space="preserve" font-family="Impact" font-weight="bold" font-size="120.0" fill="#802438" transform="matrix(1.00, 0.00, -0.00, -1.00, 265.0, 378.0)">Q</text><text xml:space="preserve" font-family="Impact" font-weight="bold" font-size="120.0" fill="#802438" transform="matrix(1.00, 0.00, -0.00, -1.00, 330.6, 378.0)">u</text><text xml:space="preserve" font-family="Impact" font-weight="bold" font-size="120.0" fill="#802438" transform="matrix(1.00, 0.00, -0.00, -1.00, 393.4, 378.0)">a</text><text xml:space="preserve" font-family="Impact" font-weight="bold" font-size="120.0" fill="#802438" transform="matrix(1.00, 0.00, -0.00, -1.00, 453.8, 378.0)">n</text><text xml:space="preserve" font-family="Impact" font-weight="bold" font-size="120.0" fill="#802438" transform="matrix(1.00, 0.00, -0.00, -1.00, 516.4, 378.0)">t</text><text xml:space="preserve" font-family="Impact" font-weight="bold" font-size="120.0" fill="#802438" transform="matrix(1.00, 0.00, -0.00, -1.00, 552.9, 378.0)">o</text><text xml:space="preserve" font-family="Impact" font-weight="bold" font-size="120.0" fill="#802438" transform="matrix(1.00, 0.00, -0.00, -1.00, 614.3, 378.0)"> </text><text xml:space="preserve" font-family="Impact" font-weight="bold" font-size="120.0" fill="#802438" transform="matrix(1.00, 0.00, -0.00, -1.00, 635.5, 378.0)">é</text><text xml:space="preserve" font-family="Impact" font-weight="bold" font-size="120.0" fill="#802438" transform="matrix(1.00, 0.00, -0.00, -1.00, 696.9, 378.0)">?</text></g></svg>