<?xml version="1.0" encoding="UTF-8" standalone="no"?><svg xmlns="http://www.w3.org/2000/svg" xmlns:xlink="http://www.w3.org/1999/xlink" clip-rule="evenodd" stroke-miterlimit="4.00" viewBox="0 0 1024 768"><desc>SVG generated by Keynote</desc><defs></defs><g transform="matrix(1.00, 0.00, -0.00, -1.00, 0.0, 768.0)"><path d="M 0.0 768.0 L 1024.0 768.0 L 1024.0 0.0 L 0.0 0.0 Z M 0.0 768.0 " fill="#802438"></path><text xml:space="preserve" font-family="Impact" font-weight="bold" font-size="47.0" fill="#FAFDC3" transform="matrix(1.00, 0.00, -0.00, -1.00, 106.0, 613.0)">W</text><text xml:space="preserve" font-family="Impact" font-weight="bold" font-size="47.0" fill="#FAFDC3" transform="matrix(1.00, 0.00, -0.00, -1.00, 144.3, 613.0)">o</text><text xml:space="preserve" font-family="Impact" font-weight="bold" font-size="47.0" fill="#FAFDC3" transform="matrix(1.00, 0.00, -0.00, -1.00, 168.3, 613.0)">r</text><text xml:space="preserve" font-family="Impact" font-weight="bold" font-size="47.0" fill="#FAFDC3" transform="matrix(1.00, 0.00, -0.00, -1.00, 185.2, 613.0)">k</text><text xml:space="preserve" font-family="Impact" font-weight="bold" font-size="47.0" fill="#FAFDC3" transform="matrix(1.00, 0.00, -0.00, -1.00, 207.6, 613.0)">s</text><text xml:space="preserve" font-family="Impact" font-weight="bold" font-size="47.0" fill="#FAFDC3" transform="matrix(1.00, 0.00, -0.00, -1.00, 229.7, 613.0)">h</text><text xml:space="preserve" font-family="Impact" font-weight="bold" font-size="47.0" fill="#FAFDC3" transform="matrix(1.00, 0.00, -0.00, -1.00, 254.4, 613.0)">o</text><text xml:space="preserve" font-family="Impact" font-weight="bold" font-size="47.0" fill="#FAFDC3" transform="matrix(1.00, 0.00, -0.00, -1.00, 278.4, 613.0)">p</text><text xml:space="preserve" font-family="Impact" font-weight="bold" font-size="47.0" fill="#FAFDC3" transform="matrix(1.00, 0.00, -0.00, -1.00, 302.8, 613.0)">s</text><text xml:space="preserve" font-family="Impact" font-weight="bold" font-size="47.0" fill="#FAFDC3" transform="matrix(1.00, 0.00, -0.00, -1.00, 324.9, 613.0)"> </text><text xml:space="preserve" font-family="Impact" font-weight="bold" font-size="47.0" fill="#FAFDC3" transform="matrix(1.00, 0.00, -0.00, -1.00, 333.2, 613.0)">p</text><text xml:space="preserve" font-family="Impact" font-weight="bold" font-size="47.0" fill="#FAFDC3" transform="matrix(1.00, 0.00, -0.00, -1.00, 357.6, 613.0)">a</text><text xml:space="preserve" font-family="Impact" font-weight="bold" font-size="47.0" fill="#FAFDC3" transform="matrix(1.00, 0.00, -0.00, -1.00, 381.3, 613.0)">r</text><text xml:space="preserve" font-family="Impact" font-weight="bold" font-size="47.0" fill="#FAFDC3" transform="matrix(1.00, 0.00, -0.00, -1.00, 398.1, 613.0)">a</text><text xml:space="preserve" font-family="Impact" font-weight="bold" font-size="47.0" fill="#FAFDC3" transform="matrix(1.00, 0.00, -0.00, -1.00, 421.8, 613.0)"> </text><text xml:space="preserve" font-family="Impact" font-weight="bold" font-size="47.0" fill="#FAFDC3" transform="matrix(1.00, 0.00, -0.00, -1.00, 430.1, 613.0)">f</text><text xml:space="preserve" font-family="Impact" font-weight="bold" font-size="47.0" fill="#FAFDC3" transform="matrix(1.00, 0.00, -0.00, -1.00, 443.7, 613.0)">o</text><text xml:space="preserve" font-family="Impact" font-weight="bold" font-size="47.0" fill="#FAFDC3" transform="matrix(1.00, 0.00, -0.00, -1.00, 467.7, 613.0)">r</text><text xml:space="preserve" font-family="Impact" font-weight="bold" font-size="47.0" fill="#FAFDC3" transform="matrix(1.00, 0.00, -0.00, -1.00, 484.5, 613.0)">m</text><text xml:space="preserve" font-family="Impact" font-weight="bold" font-size="47.0" fill="#FAFDC3" transform="matrix(1.00, 0.00, -0.00, -1.00, 520.7, 613.0)">a</text><text xml:space="preserve" font-family="Impact" font-weight="bold" font-size="47.0" fill="#FAFDC3" transform="matrix(1.00, 0.00, -0.00, -1.00, 544.4, 613.0)">ç</text><text xml:space="preserve" font-family="Impact" font-weight="bold" font-size="47.0" fill="#FAFDC3" transform="matrix(1.00, 0.00, -0.00, -1.00, 567.7, 613.0)">ã</text><text xml:space="preserve" font-family="Impact" font-weight="bold" font-size="47.0" fill="#FAFDC3" transform="matrix(1.00, 0.00, -0.00, -1.00, 591.3, 613.0)">o</text><text xml:space="preserve" font-family="Impact" font-weight="bold" font-size="47.0" fill="#FAFDC3" transform="matrix(1.00, 0.00, -0.00, -1.00, 615.4, 613.0)"> </text><text xml:space="preserve" font-family="Impact" font-weight="bold" font-size="47.0" fill="#FAFDC3" transform="matrix(1.00, 0.00, -0.00, -1.00, 623.7, 613.0)">d</text><text xml:space="preserve" font-family="Impact" font-weight="bold" font-size="47.0" fill="#FAFDC3" transform="matrix(1.00, 0.00, -0.00, -1.00, 648.1, 613.0)">e</text><text xml:space="preserve" font-family="Impact" font-weight="bold" font-size="47.0" fill="#FAFDC3" transform="matrix(1.00, 0.00, -0.00, -1.00, 672.1, 613.0)"> </text><text xml:space="preserve" font-family="Impact" font-weight="bold" font-size="47.0" fill="#FAFDC3" transform="matrix(1.00, 0.00, -0.00, -1.00, 106.0, 556.0)">p</text><text xml:space="preserve" font-family="Impact" font-weight="bold" font-size="47.0" fill="#FAFDC3" transform="matrix(1.00, 0.00, -0.00, -1.00, 130.4, 556.0)">r</text><text xml:space="preserve" font-family="Impact" font-weight="bold" font-size="47.0" fill="#FAFDC3" transform="matrix(1.00, 0.00, -0.00, -1.00, 147.2, 556.0)">o</text><text xml:space="preserve" font-family="Impact" font-weight="bold" font-size="47.0" fill="#FAFDC3" transform="matrix(1.00, 0.00, -0.00, -1.00, 171.2, 556.0)">f</text><text xml:space="preserve" font-family="Impact" font-weight="bold" font-size="47.0" fill="#FAFDC3" transform="matrix(1.00, 0.00, -0.00, -1.00, 184.8, 556.0)">e</text><text xml:space="preserve" font-family="Impact" font-weight="bold" font-size="47.0" fill="#FAFDC3" transform="matrix(1.00, 0.00, -0.00, -1.00, 208.9, 556.0)">s</text><text xml:space="preserve" font-family="Impact" font-weight="bold" font-size="47.0" fill="#FAFDC3" transform="matrix(1.00, 0.00, -0.00, -1.00, 231.0, 556.0)">s</text><text xml:space="preserve" font-family="Impact" font-weight="bold" font-size="47.0" fill="#FAFDC3" transform="matrix(1.00, 0.00, -0.00, -1.00, 253.1, 556.0)">o</text><text xml:space="preserve" font-family="Impact" font-weight="bold" font-size="47.0" fill="#FAFDC3" transform="matrix(1.00, 0.00, -0.00, -1.00, 277.1, 556.0)">r</text><text xml:space="preserve" font-family="Impact" font-weight="bold" font-size="47.0" fill="#FAFDC3" transform="matrix(1.00, 0.00, -0.00, -1.00, 293.9, 556.0)">e</text><text xml:space="preserve" font-family="Impact" font-weight="bold" font-size="47.0" fill="#FAFDC3" transform="matrix(1.00, 0.00, -0.00, -1.00, 318.0, 556.0)">s</text><text xml:space="preserve" font-family="Impact" font-weight="bold" font-size="47.0" fill="#FAFDC3" transform="matrix(1.00, 0.00, -0.00, -1.00, 340.1, 556.0)"> </text><text xml:space="preserve" font-family="Impact" font-weight="bold" font-size="47.0" fill="#FAFDC3" transform="matrix(1.00, 0.00, -0.00, -1.00, 348.4, 556.0)">d</text><text xml:space="preserve" font-family="Impact" font-weight="bold" font-size="47.0" fill="#FAFDC3" transform="matrix(1.00, 0.00, -0.00, -1.00, 372.8, 556.0)">e</text><text xml:space="preserve" font-family="Impact" font-weight="bold" font-size="47.0" fill="#FAFDC3" transform="matrix(1.00, 0.00, -0.00, -1.00, 396.8, 556.0)"> </text><text xml:space="preserve" font-family="Impact" font-weight="bold" font-size="47.0" fill="#FAFDC3" transform="matrix(1.00, 0.00, -0.00, -1.00, 405.1, 556.0)">e</text><text xml:space="preserve" font-family="Impact" font-weight="bold" font-size="47.0" fill="#FAFDC3" transform="matrix(1.00, 0.00, -0.00, -1.00, 429.2, 556.0)">d</text><text xml:space="preserve" font-family="Impact" font-weight="bold" font-size="47.0" fill="#FAFDC3" transform="matrix(1.00, 0.00, -0.00, -1.00, 453.6, 556.0)">u</text><text xml:space="preserve" font-family="Impact" font-weight="bold" font-size="47.0" fill="#FAFDC3" transform="matrix(1.00, 0.00, -0.00, -1.00, 478.1, 556.0)">c</text><text xml:space="preserve" font-family="Impact" font-weight="bold" font-size="47.0" fill="#FAFDC3" transform="matrix(1.00, 0.00, -0.00, -1.00, 501.4, 556.0)">a</text><text xml:space="preserve" font-family="Impact" font-weight="bold" font-size="47.0" fill="#FAFDC3" transform="matrix(1.00, 0.00, -0.00, -1.00, 525.0, 556.0)">ç</text><text xml:space="preserve" font-family="Impact" font-weight="bold" font-size="47.0" fill="#FAFDC3" transform="matrix(1.00, 0.00, -0.00, -1.00, 548.3, 556.0)">ã</text><text xml:space="preserve" font-family="Impact" font-weight="bold" font-size="47.0" fill="#FAFDC3" transform="matrix(1.00, 0.00, -0.00, -1.00, 572.0, 556.0)">o</text><text xml:space="preserve" font-family="Impact" font-weight="bold" font-size="47.0" fill="#FAFDC3" transform="matrix(1.00, 0.00, -0.00, -1.00, 596.0, 556.0)"> </text><text xml:space="preserve" font-family="Impact" font-weight="bold" font-size="47.0" fill="#FAFDC3" transform="matrix(1.00, 0.00, -0.00, -1.00, 604.3, 556.0)">p</text><text xml:space="preserve" font-family="Impact" font-weight="bold" font-size="47.0" fill="#FAFDC3" transform="matrix(1.00, 0.00, -0.00, -1.00, 628.7, 556.0)">ú</text><text xml:space="preserve" font-family="Impact" font-weight="bold" font-size="47.0" fill="#FAFDC3" transform="matrix(1.00, 0.00, -0.00, -1.00, 653.3, 556.0)">b</text><text xml:space="preserve" font-family="Impact" font-weight="bold" font-size="47.0" fill="#FAFDC3" transform="matrix(1.00, 0.00, -0.00, -1.00, 677.7, 556.0)">l</text><text xml:space="preserve" font-family="Impact" font-weight="bold" font-size="47.0" fill="#FAFDC3" transform="matrix(1.00, 0.00, -0.00, -1.00, 690.5, 556.0)">i</text><text xml:space="preserve" font-family="Impact" font-weight="bold" font-size="47.0" fill="#FAFDC3" transform="matrix(1.00, 0.00, -0.00, -1.00, 703.4, 556.0)">c</text><text xml:space="preserve" font-family="Impact" font-weight="bold" font-size="47.0" fill="#FAFDC3" transform="matrix(1.00, 0.00, -0.00, -1.00, 726.6, 556.0)">a</text><text xml:space="preserve" font-family="Impact" font-weight="bold" font-size="47.0" fill="#FAFDC3" transform="matrix(1.00, 0.00, -0.00, -1.00, 750.3, 556.0)"> </text><text xml:space="preserve" font-family="Impact" font-weight="bold" font-size="47.0" fill="#FAFDC3" transform="matrix(1.00, 0.00, -0.00, -1.00, 758.6, 556.0)">c</text><text xml:space="preserve" font-family="Impact" font-weight="bold" font-size="47.0" fill="#FAFDC3" transform="matrix(1.00, 0.00, -0.00, -1.00, 781.8, 556.0)">o</text><text xml:space="preserve" font-family="Impact" font-weight="bold" font-size="47.0" fill="#FAFDC3" transform="matrix(1.00, 0.00, -0.00, -1.00, 805.9, 556.0)">m</text><text xml:space="preserve" font-family="Impact" font-weight="bold" font-size="47.0" fill="#FAFDC3" transform="matrix(1.00, 0.00, -0.00, -1.00, 842.1, 556.0)"> </text><text xml:space="preserve" font-family="Impact" font-weight="bold" font-size="47.0" fill="#FAFDC3" transform="matrix(1.00, 0.00, -0.00, -1.00, 106.0, 499.0)">f</text><text xml:space="preserve" font-family="Impact" font-weight="bold" font-size="47.0" fill="#FAFDC3" transform="matrix(1.00, 0.00, -0.00, -1.00, 119.6, 499.0)">e</text><text xml:space="preserve" font-family="Impact" font-weight="bold" font-size="47.0" fill="#FAFDC3" transform="matrix(1.00, 0.00, -0.00, -1.00, 143.6, 499.0)">r</text><text xml:space="preserve" font-family="Impact" font-weight="bold" font-size="47.0" fill="#FAFDC3" transform="matrix(1.00, 0.00, -0.00, -1.00, 160.4, 499.0)">r</text><text xml:space="preserve" font-family="Impact" font-weight="bold" font-size="47.0" fill="#FAFDC3" transform="matrix(1.00, 0.00, -0.00, -1.00, 177.3, 499.0)">a</text><text xml:space="preserve" font-family="Impact" font-weight="bold" font-size="47.0" fill="#FAFDC3" transform="matrix(1.00, 0.00, -0.00, -1.00, 200.9, 499.0)">m</text><text xml:space="preserve" font-family="Impact" font-weight="bold" font-size="47.0" fill="#FAFDC3" transform="matrix(1.00, 0.00, -0.00, -1.00, 237.2, 499.0)">e</text><text xml:space="preserve" font-family="Impact" font-weight="bold" font-size="47.0" fill="#FAFDC3" transform="matrix(1.00, 0.00, -0.00, -1.00, 261.2, 499.0)">n</text><text xml:space="preserve" font-family="Impact" font-weight="bold" font-size="47.0" fill="#FAFDC3" transform="matrix(1.00, 0.00, -0.00, -1.00, 285.8, 499.0)">t</text><text xml:space="preserve" font-family="Impact" font-weight="bold" font-size="47.0" fill="#FAFDC3" transform="matrix(1.00, 0.00, -0.00, -1.00, 300.1, 499.0)">a</text><text xml:space="preserve" font-family="Impact" font-weight="bold" font-size="47.0" fill="#FAFDC3" transform="matrix(1.00, 0.00, -0.00, -1.00, 323.8, 499.0)">s</text><text xml:space="preserve" font-family="Impact" font-weight="bold" font-size="47.0" fill="#FAFDC3" transform="matrix(1.00, 0.00, -0.00, -1.00, 345.9, 499.0)"> </text><text xml:space="preserve" font-family="Impact" font-weight="bold" font-size="47.0" fill="#FAFDC3" transform="matrix(1.00, 0.00, -0.00, -1.00, 354.2, 499.0)">d</text><text xml:space="preserve" font-family="Impact" font-weight="bold" font-size="47.0" fill="#FAFDC3" transform="matrix(1.00, 0.00, -0.00, -1.00, 378.6, 499.0)">e</text><text xml:space="preserve" font-family="Impact" font-weight="bold" font-size="47.0" fill="#FAFDC3" transform="matrix(1.00, 0.00, -0.00, -1.00, 402.6, 499.0)"> </text><text xml:space="preserve" font-family="Impact" font-weight="bold" font-size="47.0" fill="#FAFDC3" transform="matrix(1.00, 0.00, -0.00, -1.00, 410.9, 499.0)">j</text><text xml:space="preserve" font-family="Impact" font-weight="bold" font-size="47.0" fill="#FAFDC3" transform="matrix(1.00, 0.00, -0.00, -1.00, 424.1, 499.0)">o</text><text xml:space="preserve" font-family="Impact" font-weight="bold" font-size="47.0" fill="#FAFDC3" transform="matrix(1.00, 0.00, -0.00, -1.00, 448.1, 499.0)">g</text><text xml:space="preserve" font-family="Impact" font-weight="bold" font-size="47.0" fill="#FAFDC3" transform="matrix(1.00, 0.00, -0.00, -1.00, 472.4, 499.0)">o</text><text xml:space="preserve" font-family="Impact" font-weight="bold" font-size="47.0" fill="#FAFDC3" transform="matrix(1.00, 0.00, -0.00, -1.00, 496.5, 499.0)"> </text><text xml:space="preserve" font-family="Impact" font-weight="bold" font-size="47.0" fill="#FAFDC3" transform="matrix(1.00, 0.00, -0.00, -1.00, 504.8, 499.0)">p</text><text xml:space="preserve" font-family="Impact" font-weight="bold" font-size="47.0" fill="#FAFDC3" transform="matrix(1.00, 0.00, -0.00, -1.00, 529.2, 499.0)">a</text><text xml:space="preserve" font-family="Impact" font-weight="bold" font-size="47.0" fill="#FAFDC3" transform="matrix(1.00, 0.00, -0.00, -1.00, 552.9, 499.0)">r</text><text xml:space="preserve" font-family="Impact" font-weight="bold" font-size="47.0" fill="#FAFDC3" transform="matrix(1.00, 0.00, -0.00, -1.00, 569.7, 499.0)">a</text><text xml:space="preserve" font-family="Impact" font-weight="bold" font-size="47.0" fill="#FAFDC3" transform="matrix(1.00, 0.00, -0.00, -1.00, 593.3, 499.0)"> </text><text xml:space="preserve" font-family="Impact" font-weight="bold" font-size="47.0" fill="#FAFDC3" transform="matrix(1.00, 0.00, -0.00, -1.00, 601.6, 499.0)">c</text><text xml:space="preserve" font-family="Impact" font-weight="bold" font-size="47.0" fill="#FAFDC3" transform="matrix(1.00, 0.00, -0.00, -1.00, 624.9, 499.0)">r</text><text xml:space="preserve" font-family="Impact" font-weight="bold" font-size="47.0" fill="#FAFDC3" transform="matrix(1.00, 0.00, -0.00, -1.00, 641.7, 499.0)">i</text><text xml:space="preserve" font-family="Impact" font-weight="bold" font-size="47.0" fill="#FAFDC3" transform="matrix(1.00, 0.00, -0.00, -1.00, 654.6, 499.0)">a</text><text xml:space="preserve" font-family="Impact" font-weight="bold" font-size="47.0" fill="#FAFDC3" transform="matrix(1.00, 0.00, -0.00, -1.00, 678.2, 499.0)">n</text><text xml:space="preserve" font-family="Impact" font-weight="bold" font-size="47.0" fill="#FAFDC3" transform="matrix(1.00, 0.00, -0.00, -1.00, 702.8, 499.0)">ç</text><text xml:space="preserve" font-family="Impact" font-weight="bold" font-size="47.0" fill="#FAFDC3" transform="matrix(1.00, 0.00, -0.00, -1.00, 726.0, 499.0)">a</text><text xml:space="preserve" font-family="Impact" font-weight="bold" font-size="47.0" fill="#FAFDC3" transform="matrix(1.00, 0.00, -0.00, -1.00, 749.7, 499.0)">s</text><text xml:space="preserve" font-family="Impact" font-weight="bold" font-size="47.0" fill="#FAFDC3" transform="matrix(1.00, 0.00, -0.00, -1.00, 771.8, 499.0)"> </text><text xml:space="preserve" font-family="Impact" font-weight="bold" font-size="47.0" fill="#FAFDC3" transform="matrix(1.00, 0.00, -0.00, -1.00, 780.1, 499.0)">d</text><text xml:space="preserve" font-family="Impact" font-weight="bold" font-size="47.0" fill="#FAFDC3" transform="matrix(1.00, 0.00, -0.00, -1.00, 804.5, 499.0)">e</text><text xml:space="preserve" font-family="Impact" font-weight="bold" font-size="47.0" fill="#FAFDC3" transform="matrix(1.00, 0.00, -0.00, -1.00, 828.6, 499.0)"> </text><text xml:space="preserve" font-family="Impact" font-weight="bold" font-size="47.0" fill="#FAFDC3" transform="matrix(1.00, 0.00, -0.00, -1.00, 106.0, 442.0)">8</text><text xml:space="preserve" font-family="Impact" font-weight="bold" font-size="47.0" fill="#FAFDC3" transform="matrix(1.00, 0.00, -0.00, -1.00, 131.1, 442.0)">/</text><text xml:space="preserve" font-family="Impact" font-weight="bold" font-size="47.0" fill="#FAFDC3" transform="matrix(1.00, 0.00, -0.00, -1.00, 149.7, 442.0)">9</text><text xml:space="preserve" font-family="Impact" font-weight="bold" font-size="47.0" fill="#FAFDC3" transform="matrix(1.00, 0.00, -0.00, -1.00, 175.1, 442.0)"> </text><text xml:space="preserve" font-family="Impact" font-weight="bold" font-size="47.0" fill="#FAFDC3" transform="matrix(1.00, 0.00, -0.00, -1.00, 183.4, 442.0)">a</text><text xml:space="preserve" font-family="Impact" font-weight="bold" font-size="47.0" fill="#FAFDC3" transform="matrix(1.00, 0.00, -0.00, -1.00, 207.1, 442.0)">n</text><text xml:space="preserve" font-family="Impact" font-weight="bold" font-size="47.0" fill="#FAFDC3" transform="matrix(1.00, 0.00, -0.00, -1.00, 231.7, 442.0)">o</text><text xml:space="preserve" font-family="Impact" font-weight="bold" font-size="47.0" fill="#FAFDC3" transform="matrix(1.00, 0.00, -0.00, -1.00, 255.7, 442.0)">s</text><text xml:space="preserve" font-family="Impact" font-weight="bold" font-size="47.0" fill="#FAFDC3" transform="matrix(1.00, 0.00, -0.00, -1.00, 277.8, 442.0)"> </text><text xml:space="preserve" font-family="Impact" font-weight="bold" font-size="47.0" fill="#FAFDC3" transform="matrix(1.00, 0.00, -0.00, -1.00, 286.1, 442.0)">a</text><text xml:space="preserve" font-family="Impact" font-weight="bold" font-size="47.0" fill="#FAFDC3" transform="matrix(1.00, 0.00, -0.00, -1.00, 309.8, 442.0)">p</text><text xml:space="preserve" font-family="Impact" font-weight="bold" font-size="47.0" fill="#FAFDC3" transform="matrix(1.00, 0.00, -0.00, -1.00, 334.2, 442.0)">r</text><text xml:space="preserve" font-family="Impact" font-weight="bold" font-size="47.0" fill="#FAFDC3" transform="matrix(1.00, 0.00, -0.00, -1.00, 351.0, 442.0)">e</text><text xml:space="preserve" font-family="Impact" font-weight="bold" font-size="47.0" fill="#FAFDC3" transform="matrix(1.00, 0.00, -0.00, -1.00, 375.0, 442.0)">n</text><text xml:space="preserve" font-family="Impact" font-weight="bold" font-size="47.0" fill="#FAFDC3" transform="matrix(1.00, 0.00, -0.00, -1.00, 399.6, 442.0)">d</text><text xml:space="preserve" font-family="Impact" font-weight="bold" font-size="47.0" fill="#FAFDC3" transform="matrix(1.00, 0.00, -0.00, -1.00, 424.0, 442.0)">e</text><text xml:space="preserve" font-family="Impact" font-weight="bold" font-size="47.0" fill="#FAFDC3" transform="matrix(1.00, 0.00, -0.00, -1.00, 448.0, 442.0)">r</text><text xml:space="preserve" font-family="Impact" font-weight="bold" font-size="47.0" fill="#FAFDC3" transform="matrix(1.00, 0.00, -0.00, -1.00, 464.9, 442.0)">e</text><text xml:space="preserve" font-family="Impact" font-weight="bold" font-size="47.0" fill="#FAFDC3" transform="matrix(1.00, 0.00, -0.00, -1.00, 488.9, 442.0)">m</text><text xml:space="preserve" font-family="Impact" font-weight="bold" font-size="47.0" fill="#FAFDC3" transform="matrix(1.00, 0.00, -0.00, -1.00, 525.1, 442.0)"> </text><text xml:space="preserve" font-family="Impact" font-weight="bold" font-size="47.0" fill="#FAFDC3" transform="matrix(1.00, 0.00, -0.00, -1.00, 533.4, 442.0)">c</text><text xml:space="preserve" font-family="Impact" font-weight="bold" font-size="47.0" fill="#FAFDC3" transform="matrix(1.00, 0.00, -0.00, -1.00, 556.7, 442.0)">o</text><text xml:space="preserve" font-family="Impact" font-weight="bold" font-size="47.0" fill="#FAFDC3" transform="matrix(1.00, 0.00, -0.00, -1.00, 580.7, 442.0)">n</text><text xml:space="preserve" font-family="Impact" font-weight="bold" font-size="47.0" fill="#FAFDC3" transform="matrix(1.00, 0.00, -0.00, -1.00, 605.3, 442.0)">c</text><text xml:space="preserve" font-family="Impact" font-weight="bold" font-size="47.0" fill="#FAFDC3" transform="matrix(1.00, 0.00, -0.00, -1.00, 628.5, 442.0)">e</text><text xml:space="preserve" font-family="Impact" font-weight="bold" font-size="47.0" fill="#FAFDC3" transform="matrix(1.00, 0.00, -0.00, -1.00, 652.5, 442.0)">i</text><text xml:space="preserve" font-family="Impact" font-weight="bold" font-size="47.0" fill="#FAFDC3" transform="matrix(1.00, 0.00, -0.00, -1.00, 665.4, 442.0)">t</text><text xml:space="preserve" font-family="Impact" font-weight="bold" font-size="47.0" fill="#FAFDC3" transform="matrix(1.00, 0.00, -0.00, -1.00, 679.7, 442.0)">o</text><text xml:space="preserve" font-family="Impact" font-weight="bold" font-size="47.0" fill="#FAFDC3" transform="matrix(1.00, 0.00, -0.00, -1.00, 703.7, 442.0)">s</text><text xml:space="preserve" font-family="Impact" font-weight="bold" font-size="47.0" fill="#FAFDC3" transform="matrix(1.00, 0.00, -0.00, -1.00, 725.9, 442.0)"> </text><text xml:space="preserve" font-family="Impact" font-weight="bold" font-size="47.0" fill="#FAFDC3" transform="matrix(1.00, 0.00, -0.00, -1.00, 106.0, 385.0)">b</text><text xml:space="preserve" font-family="Impact" font-weight="bold" font-size="47.0" fill="#FAFDC3" transform="matrix(1.00, 0.00, -0.00, -1.00, 130.4, 385.0)">á</text><text xml:space="preserve" font-family="Impact" font-weight="bold" font-size="47.0" fill="#FAFDC3" transform="matrix(1.00, 0.00, -0.00, -1.00, 154.1, 385.0)">s</text><text xml:space="preserve" font-family="Impact" font-weight="bold" font-size="47.0" fill="#FAFDC3" transform="matrix(1.00, 0.00, -0.00, -1.00, 176.2, 385.0)">i</text><text xml:space="preserve" font-family="Impact" font-weight="bold" font-size="47.0" fill="#FAFDC3" transform="matrix(1.00, 0.00, -0.00, -1.00, 189.0, 385.0)">c</text><text xml:space="preserve" font-family="Impact" font-weight="bold" font-size="47.0" fill="#FAFDC3" transform="matrix(1.00, 0.00, -0.00, -1.00, 212.2, 385.0)">o</text><text xml:space="preserve" font-family="Impact" font-weight="bold" font-size="47.0" fill="#FAFDC3" transform="matrix(1.00, 0.00, -0.00, -1.00, 236.3, 385.0)">s</text><text xml:space="preserve" font-family="Impact" font-weight="bold" font-size="47.0" fill="#FAFDC3" transform="matrix(1.00, 0.00, -0.00, -1.00, 258.4, 385.0)"> </text><text xml:space="preserve" font-family="Impact" font-weight="bold" font-size="47.0" fill="#FAFDC3" transform="matrix(1.00, 0.00, -0.00, -1.00, 266.7, 385.0)">d</text><text xml:space="preserve" font-family="Impact" font-weight="bold" font-size="47.0" fill="#FAFDC3" transform="matrix(1.00, 0.00, -0.00, -1.00, 291.1, 385.0)">e</text><text xml:space="preserve" font-family="Impact" font-weight="bold" font-size="47.0" fill="#FAFDC3" transform="matrix(1.00, 0.00, -0.00, -1.00, 315.1, 385.0)"> </text><text xml:space="preserve" font-family="Impact" font-weight="bold" font-size="47.0" fill="#FAFDC3" transform="matrix(1.00, 0.00, -0.00, -1.00, 323.4, 385.0)">b</text><text xml:space="preserve" font-family="Impact" font-weight="bold" font-size="47.0" fill="#FAFDC3" transform="matrix(1.00, 0.00, -0.00, -1.00, 347.8, 385.0)">i</text><text xml:space="preserve" font-family="Impact" font-weight="bold" font-size="47.0" fill="#FAFDC3" transform="matrix(1.00, 0.00, -0.00, -1.00, 360.7, 385.0)">o</text><text xml:space="preserve" font-family="Impact" font-weight="bold" font-size="47.0" fill="#FAFDC3" transform="matrix(1.00, 0.00, -0.00, -1.00, 384.7, 385.0)">l</text><text xml:space="preserve" font-family="Impact" font-weight="bold" font-size="47.0" fill="#FAFDC3" transform="matrix(1.00, 0.00, -0.00, -1.00, 397.6, 385.0)">o</text><text xml:space="preserve" font-family="Impact" font-weight="bold" font-size="47.0" fill="#FAFDC3" transform="matrix(1.00, 0.00, -0.00, -1.00, 421.6, 385.0)">g</text><text xml:space="preserve" font-family="Impact" font-weight="bold" font-size="47.0" fill="#FAFDC3" transform="matrix(1.00, 0.00, -0.00, -1.00, 446.0, 385.0)">i</text><text xml:space="preserve" font-family="Impact" font-weight="bold" font-size="47.0" fill="#FAFDC3" transform="matrix(1.00, 0.00, -0.00, -1.00, 458.8, 385.0)">a</text><text xml:space="preserve" font-family="Impact" font-weight="bold" font-size="47.0" fill="#FAFDC3" transform="matrix(1.00, 0.00, -0.00, -1.00, 482.5, 385.0)"> </text><text xml:space="preserve" font-family="Impact" font-weight="bold" font-size="47.0" fill="#FAFDC3" transform="matrix(1.00, 0.00, -0.00, -1.00, 490.8, 385.0)">s</text><text xml:space="preserve" font-family="Impact" font-weight="bold" font-size="47.0" fill="#FAFDC3" transform="matrix(1.00, 0.00, -0.00, -1.00, 512.9, 385.0)">i</text><text xml:space="preserve" font-family="Impact" font-weight="bold" font-size="47.0" fill="#FAFDC3" transform="matrix(1.00, 0.00, -0.00, -1.00, 525.8, 385.0)">n</text><text xml:space="preserve" font-family="Impact" font-weight="bold" font-size="47.0" fill="#FAFDC3" transform="matrix(1.00, 0.00, -0.00, -1.00, 550.3, 385.0)">t</text><text xml:space="preserve" font-family="Impact" font-weight="bold" font-size="47.0" fill="#FAFDC3" transform="matrix(1.00, 0.00, -0.00, -1.00, 564.6, 385.0)">é</text><text xml:space="preserve" font-family="Impact" font-weight="bold" font-size="47.0" fill="#FAFDC3" transform="matrix(1.00, 0.00, -0.00, -1.00, 588.7, 385.0)">t</text><text xml:space="preserve" font-family="Impact" font-weight="bold" font-size="47.0" fill="#FAFDC3" transform="matrix(1.00, 0.00, -0.00, -1.00, 603.0, 385.0)">i</text><text xml:space="preserve" font-family="Impact" font-weight="bold" font-size="47.0" fill="#FAFDC3" transform="matrix(1.00, 0.00, -0.00, -1.00, 615.8, 385.0)">c</text><text xml:space="preserve" font-family="Impact" font-weight="bold" font-size="47.0" fill="#FAFDC3" transform="matrix(1.00, 0.00, -0.00, -1.00, 639.0, 385.0)">a</text><text xml:space="preserve" font-family="Impact" font-weight="bold" font-size="47.0" fill="#FAFDC3" transform="matrix(1.00, 0.00, -0.00, -1.00, 662.7, 385.0)">.</text><text xml:space="preserve" font-family="Impact" font-weight="bold" font-size="47.0" fill="#FAFDC3" transform="matrix(1.00, 0.00, -0.00, -1.00, 671.3, 385.0)"> </text><text xml:space="preserve" font-family="Impact" font-weight="bold" font-size="47.0" fill="#FAFDC3" transform="matrix(1.00, 0.00, -0.00, -1.00, 106.0, 289.0)">(</text><text xml:space="preserve" font-family="Impact" font-weight="bold" font-size="47.0" fill="#FAFDC3" transform="matrix(1.00, 0.00, -0.00, -1.00, 120.8, 289.0)">s</text><text xml:space="preserve" font-family="Impact" font-weight="bold" font-size="47.0" fill="#FAFDC3" transform="matrix(1.00, 0.00, -0.00, -1.00, 142.9, 289.0)">i</text><text xml:space="preserve" font-family="Impact" font-weight="bold" font-size="47.0" fill="#FAFDC3" transform="matrix(1.00, 0.00, -0.00, -1.00, 155.7, 289.0)">m</text><text xml:space="preserve" font-family="Impact" font-weight="bold" font-size="47.0" fill="#FAFDC3" transform="matrix(1.00, 0.00, -0.00, -1.00, 192.0, 289.0)">u</text><text xml:space="preserve" font-family="Impact" font-weight="bold" font-size="47.0" fill="#FAFDC3" transform="matrix(1.00, 0.00, -0.00, -1.00, 216.6, 289.0)">l</text><text xml:space="preserve" font-family="Impact" font-weight="bold" font-size="47.0" fill="#FAFDC3" transform="matrix(1.00, 0.00, -0.00, -1.00, 229.4, 289.0)">a</text><text xml:space="preserve" font-family="Impact" font-weight="bold" font-size="47.0" fill="#FAFDC3" transform="matrix(1.00, 0.00, -0.00, -1.00, 253.1, 289.0)">ç</text><text xml:space="preserve" font-family="Impact" font-weight="bold" font-size="47.0" fill="#FAFDC3" transform="matrix(1.00, 0.00, -0.00, -1.00, 276.3, 289.0)">ã</text><text xml:space="preserve" font-family="Impact" font-weight="bold" font-size="47.0" fill="#FAFDC3" transform="matrix(1.00, 0.00, -0.00, -1.00, 300.0, 289.0)">o</text><text xml:space="preserve" font-family="Impact" font-weight="bold" font-size="47.0" fill="#FAFDC3" transform="matrix(1.00, 0.00, -0.00, -1.00, 324.0, 289.0)">)</text><image xlink:href="A26229F39022098111323A69C56DBEB3.png" width="313.00" height="255.00" transform="matrix(1.00, 0.00, -0.00, -1.00, 606.0, 362.0)"></image></g></svg>