<?xml version="1.0" encoding="UTF-8" standalone="no"?><svg xmlns="http://www.w3.org/2000/svg" xmlns:xlink="http://www.w3.org/1999/xlink" clip-rule="evenodd" stroke-miterlimit="4.00" viewBox="0 0 1024 768"><desc>SVG generated by Keynote</desc><defs></defs><g transform="matrix(1.00, 0.00, -0.00, -1.00, 0.0, 768.0)"><path d="M 0.0 768.0 L 1024.0 768.0 L 1024.0 0.0 L 0.0 0.0 Z M 0.0 768.0 " fill="#802438"></path><text xml:space="preserve" font-family="Impact" font-weight="bold" font-size="50.0" fill="#FAFDC3" transform="matrix(1.00, 0.00, -0.00, -1.00, 96.0, 455.0)">C</text><text xml:space="preserve" font-family="Impact" font-weight="bold" font-size="50.0" fill="#FAFDC3" transform="matrix(1.00, 0.00, -0.00, -1.00, 123.7, 455.0)">e</text><text xml:space="preserve" font-family="Impact" font-weight="bold" font-size="50.0" fill="#FAFDC3" transform="matrix(1.00, 0.00, -0.00, -1.00, 149.2, 455.0)">l</text><text xml:space="preserve" font-family="Impact" font-weight="bold" font-size="50.0" fill="#FAFDC3" transform="matrix(1.00, 0.00, -0.00, -1.00, 162.9, 455.0)">u</text><text xml:space="preserve" font-family="Impact" font-weight="bold" font-size="50.0" fill="#FAFDC3" transform="matrix(1.00, 0.00, -0.00, -1.00, 189.1, 455.0)">l</text><text xml:space="preserve" font-family="Impact" font-weight="bold" font-size="50.0" fill="#FAFDC3" transform="matrix(1.00, 0.00, -0.00, -1.00, 202.8, 455.0)">o</text><text xml:space="preserve" font-family="Impact" font-weight="bold" font-size="50.0" fill="#FAFDC3" transform="matrix(1.00, 0.00, -0.00, -1.00, 228.3, 455.0)">s</text><text xml:space="preserve" font-family="Impact" font-weight="bold" font-size="50.0" fill="#FAFDC3" transform="matrix(1.00, 0.00, -0.00, -1.00, 251.9, 455.0)">e</text><text xml:space="preserve" font-family="Impact" font-weight="bold" font-size="50.0" fill="#FAFDC3" transform="matrix(1.00, 0.00, -0.00, -1.00, 277.4, 455.0)"> </text><text xml:space="preserve" font-family="Impact" font-weight="bold" font-size="50.0" fill="#FAFDC3" transform="matrix(1.00, 0.00, -0.00, -1.00, 286.3, 455.0)">c</text><text xml:space="preserve" font-family="Impact" font-weight="bold" font-size="50.0" fill="#FAFDC3" transform="matrix(1.00, 0.00, -0.00, -1.00, 311.0, 455.0)">o</text><text xml:space="preserve" font-family="Impact" font-weight="bold" font-size="50.0" fill="#FAFDC3" transform="matrix(1.00, 0.00, -0.00, -1.00, 336.5, 455.0)">m</text><text xml:space="preserve" font-family="Impact" font-weight="bold" font-size="50.0" fill="#FAFDC3" transform="matrix(1.00, 0.00, -0.00, -1.00, 375.1, 455.0)"> </text><text xml:space="preserve" font-family="Impact" font-weight="bold" font-size="50.0" fill="#FAFDC3" transform="matrix(1.00, 0.00, -0.00, -1.00, 96.0, 394.0)">p</text><text xml:space="preserve" font-family="Impact" font-weight="bold" font-size="50.0" fill="#FAFDC3" transform="matrix(1.00, 0.00, -0.00, -1.00, 122.0, 394.0)">r</text><text xml:space="preserve" font-family="Impact" font-weight="bold" font-size="50.0" fill="#FAFDC3" transform="matrix(1.00, 0.00, -0.00, -1.00, 139.8, 394.0)">o</text><text xml:space="preserve" font-family="Impact" font-weight="bold" font-size="50.0" fill="#FAFDC3" transform="matrix(1.00, 0.00, -0.00, -1.00, 165.4, 394.0)">p</text><text xml:space="preserve" font-family="Impact" font-weight="bold" font-size="50.0" fill="#FAFDC3" transform="matrix(1.00, 0.00, -0.00, -1.00, 191.4, 394.0)">r</text><text xml:space="preserve" font-family="Impact" font-weight="bold" font-size="50.0" fill="#FAFDC3" transform="matrix(1.00, 0.00, -0.00, -1.00, 209.3, 394.0)">i</text><text xml:space="preserve" font-family="Impact" font-weight="bold" font-size="50.0" fill="#FAFDC3" transform="matrix(1.00, 0.00, -0.00, -1.00, 222.9, 394.0)">e</text><text xml:space="preserve" font-family="Impact" font-weight="bold" font-size="50.0" fill="#FAFDC3" transform="matrix(1.00, 0.00, -0.00, -1.00, 248.5, 394.0)">d</text><text xml:space="preserve" font-family="Impact" font-weight="bold" font-size="50.0" fill="#FAFDC3" transform="matrix(1.00, 0.00, -0.00, -1.00, 274.5, 394.0)">a</text><text xml:space="preserve" font-family="Impact" font-weight="bold" font-size="50.0" fill="#FAFDC3" transform="matrix(1.00, 0.00, -0.00, -1.00, 299.7, 394.0)">d</text><text xml:space="preserve" font-family="Impact" font-weight="bold" font-size="50.0" fill="#FAFDC3" transform="matrix(1.00, 0.00, -0.00, -1.00, 325.6, 394.0)">e</text><text xml:space="preserve" font-family="Impact" font-weight="bold" font-size="50.0" fill="#FAFDC3" transform="matrix(1.00, 0.00, -0.00, -1.00, 351.2, 394.0)">s</text><text xml:space="preserve" font-family="Impact" font-weight="bold" font-size="50.0" fill="#FAFDC3" transform="matrix(1.00, 0.00, -0.00, -1.00, 374.7, 394.0)"> </text><text xml:space="preserve" font-family="Impact" font-weight="bold" font-size="50.0" fill="#FAFDC3" transform="matrix(1.00, 0.00, -0.00, -1.00, 383.5, 394.0)">d</text><text xml:space="preserve" font-family="Impact" font-weight="bold" font-size="50.0" fill="#FAFDC3" transform="matrix(1.00, 0.00, -0.00, -1.00, 409.5, 394.0)">e</text><text xml:space="preserve" font-family="Impact" font-weight="bold" font-size="50.0" fill="#FAFDC3" transform="matrix(1.00, 0.00, -0.00, -1.00, 435.1, 394.0)"> </text><text xml:space="preserve" font-family="Impact" font-weight="bold" font-size="50.0" fill="#FAFDC3" transform="matrix(1.00, 0.00, -0.00, -1.00, 96.0, 333.0)">t</text><text xml:space="preserve" font-family="Impact" font-weight="bold" font-size="50.0" fill="#FAFDC3" transform="matrix(1.00, 0.00, -0.00, -1.00, 111.2, 333.0)">r</text><text xml:space="preserve" font-family="Impact" font-weight="bold" font-size="50.0" fill="#FAFDC3" transform="matrix(1.00, 0.00, -0.00, -1.00, 129.1, 333.0)">a</text><text xml:space="preserve" font-family="Impact" font-weight="bold" font-size="50.0" fill="#FAFDC3" transform="matrix(1.00, 0.00, -0.00, -1.00, 154.3, 333.0)">n</text><text xml:space="preserve" font-family="Impact" font-weight="bold" font-size="50.0" fill="#FAFDC3" transform="matrix(1.00, 0.00, -0.00, -1.00, 180.4, 333.0)">s</text><text xml:space="preserve" font-family="Impact" font-weight="bold" font-size="50.0" fill="#FAFDC3" transform="matrix(1.00, 0.00, -0.00, -1.00, 204.0, 333.0)">p</text><text xml:space="preserve" font-family="Impact" font-weight="bold" font-size="50.0" fill="#FAFDC3" transform="matrix(1.00, 0.00, -0.00, -1.00, 229.9, 333.0)">a</text><text xml:space="preserve" font-family="Impact" font-weight="bold" font-size="50.0" fill="#FAFDC3" transform="matrix(1.00, 0.00, -0.00, -1.00, 255.1, 333.0)">r</text><text xml:space="preserve" font-family="Impact" font-weight="bold" font-size="50.0" fill="#FAFDC3" transform="matrix(1.00, 0.00, -0.00, -1.00, 273.0, 333.0)">ê</text><text xml:space="preserve" font-family="Impact" font-weight="bold" font-size="50.0" fill="#FAFDC3" transform="matrix(1.00, 0.00, -0.00, -1.00, 298.6, 333.0)">n</text><text xml:space="preserve" font-family="Impact" font-weight="bold" font-size="50.0" fill="#FAFDC3" transform="matrix(1.00, 0.00, -0.00, -1.00, 324.7, 333.0)">c</text><text xml:space="preserve" font-family="Impact" font-weight="bold" font-size="50.0" fill="#FAFDC3" transform="matrix(1.00, 0.00, -0.00, -1.00, 349.4, 333.0)">i</text><text xml:space="preserve" font-family="Impact" font-weight="bold" font-size="50.0" fill="#FAFDC3" transform="matrix(1.00, 0.00, -0.00, -1.00, 363.1, 333.0)">a</text><text xml:space="preserve" font-family="Impact" font-weight="bold" font-size="50.0" fill="#FAFDC3" transform="matrix(1.00, 0.00, -0.00, -1.00, 388.3, 333.0)"> </text><text xml:space="preserve" font-family="Impact" font-weight="bold" font-size="50.0" fill="#FAFDC3" transform="matrix(1.00, 0.00, -0.00, -1.00, 397.1, 333.0)">e</text><text xml:space="preserve" font-family="Impact" font-weight="bold" font-size="50.0" fill="#FAFDC3" transform="matrix(1.00, 0.00, -0.00, -1.00, 422.7, 333.0)"> </text><text xml:space="preserve" font-family="Impact" font-weight="bold" font-size="50.0" fill="#FAFDC3" transform="matrix(1.00, 0.00, -0.00, -1.00, 96.0, 272.0)">h</text><text xml:space="preserve" font-family="Impact" font-weight="bold" font-size="50.0" fill="#FAFDC3" transform="matrix(1.00, 0.00, -0.00, -1.00, 122.2, 272.0)">i</text><text xml:space="preserve" font-family="Impact" font-weight="bold" font-size="50.0" fill="#FAFDC3" transform="matrix(1.00, 0.00, -0.00, -1.00, 135.9, 272.0)">d</text><text xml:space="preserve" font-family="Impact" font-weight="bold" font-size="50.0" fill="#FAFDC3" transform="matrix(1.00, 0.00, -0.00, -1.00, 161.9, 272.0)">r</text><text xml:space="preserve" font-family="Impact" font-weight="bold" font-size="50.0" fill="#FAFDC3" transform="matrix(1.00, 0.00, -0.00, -1.00, 179.7, 272.0)">o</text><text xml:space="preserve" font-family="Impact" font-weight="bold" font-size="50.0" fill="#FAFDC3" transform="matrix(1.00, 0.00, -0.00, -1.00, 205.3, 272.0)">f</text><text xml:space="preserve" font-family="Impact" font-weight="bold" font-size="50.0" fill="#FAFDC3" transform="matrix(1.00, 0.00, -0.00, -1.00, 219.7, 272.0)">o</text><text xml:space="preserve" font-family="Impact" font-weight="bold" font-size="50.0" fill="#FAFDC3" transform="matrix(1.00, 0.00, -0.00, -1.00, 245.3, 272.0)">b</text><text xml:space="preserve" font-family="Impact" font-weight="bold" font-size="50.0" fill="#FAFDC3" transform="matrix(1.00, 0.00, -0.00, -1.00, 271.3, 272.0)">i</text><text xml:space="preserve" font-family="Impact" font-weight="bold" font-size="50.0" fill="#FAFDC3" transform="matrix(1.00, 0.00, -0.00, -1.00, 285.0, 272.0)">a</text></g></svg>