<?xml version="1.0" encoding="UTF-8" standalone="no"?><svg xmlns="http://www.w3.org/2000/svg" xmlns:xlink="http://www.w3.org/1999/xlink" clip-rule="evenodd" stroke-miterlimit="4.00" viewBox="0 0 1024 768"><desc>SVG generated by Keynote</desc><defs></defs><g transform="matrix(1.00, 0.00, -0.00, -1.00, 0.0, 768.0)"><path d="M 0.0 768.0 L 1024.0 768.0 L 1024.0 0.0 L 0.0 0.0 Z M 0.0 768.0 " fill="#802438"></path><text xml:space="preserve" font-family="Impact" font-weight="bold" font-size="50.0" fill="#FAFDC3" transform="matrix(1.00, 0.00, -0.00, -1.00, 398.0, 594.0)">C</text><text xml:space="preserve" font-family="Impact" font-weight="bold" font-size="50.0" fill="#FAFDC3" transform="matrix(1.00, 0.00, -0.00, -1.00, 425.7, 594.0)">O</text><text xml:space="preserve" font-family="Impact" font-weight="bold" font-size="50.0" fill="#FAFDC3" transform="matrix(1.00, 0.00, -0.00, -1.00, 453.0, 594.0)">R</text><text xml:space="preserve" font-family="Impact" font-weight="bold" font-size="50.0" fill="#FAFDC3" transform="matrix(1.00, 0.00, -0.00, -1.00, 479.9, 594.0)"> </text><text xml:space="preserve" font-family="Impact" font-weight="bold" font-size="50.0" fill="#FAFDC3" transform="matrix(1.00, 0.00, -0.00, -1.00, 488.8, 594.0)">L</text><text xml:space="preserve" font-family="Impact" font-weight="bold" font-size="50.0" fill="#FAFDC3" transform="matrix(1.00, 0.00, -0.00, -1.00, 509.1, 594.0)">A</text><text xml:space="preserve" font-family="Impact" font-weight="bold" font-size="50.0" fill="#FAFDC3" transform="matrix(1.00, 0.00, -0.00, -1.00, 534.5, 594.0)">R</text><text xml:space="preserve" font-family="Impact" font-weight="bold" font-size="50.0" fill="#FAFDC3" transform="matrix(1.00, 0.00, -0.00, -1.00, 561.4, 594.0)">A</text><text xml:space="preserve" font-family="Impact" font-weight="bold" font-size="50.0" fill="#FAFDC3" transform="matrix(1.00, 0.00, -0.00, -1.00, 586.8, 594.0)">N</text><text xml:space="preserve" font-family="Impact" font-weight="bold" font-size="50.0" fill="#FAFDC3" transform="matrix(1.00, 0.00, -0.00, -1.00, 613.8, 594.0)">J</text><text xml:space="preserve" font-family="Impact" font-weight="bold" font-size="50.0" fill="#FAFDC3" transform="matrix(1.00, 0.00, -0.00, -1.00, 630.4, 594.0)">A</text><g><clipPath id="clip-974"><path d="M 479.7 399.1 L 588.9 399.1 L 588.9 487.7 L 479.7 487.7 Z M 479.7 399.1 "></path></clipPath><g clip-path="url(#clip-974)"><text xml:space="preserve" font-family="Impact" font-weight="bold" font-size="46.5" fill="#FAFDC3" transform="matrix(1.00, 0.00, -0.00, -1.00, 494.0, 425.0)">c</text><text xml:space="preserve" font-family="Impact" font-weight="bold" font-size="46.5" fill="#FAFDC3" transform="matrix(1.00, 0.00, -0.00, -1.00, 517.0, 425.0)">r</text><text xml:space="preserve" font-family="Impact" font-weight="bold" font-size="46.5" fill="#FAFDC3" transform="matrix(1.00, 0.00, -0.00, -1.00, 534.4, 425.0)">t</text><text xml:space="preserve" font-family="Impact" font-weight="bold" font-size="46.5" fill="#FAFDC3" transform="matrix(1.00, 0.00, -0.00, -1.00, 548.6, 425.0)">B</text></g></g><g><clipPath id="clip-975"><path d="M 118.1 280.3 L 260.1 280.3 L 260.1 400.5 L 118.1 400.5 Z M 118.1 280.3 "></path></clipPath><g clip-path="url(#clip-975)"><image xlink:href="../../F3F7AD45-781C-4B53-ABB8-59D70332B380/assets/53914902E14C489C3E591E0805068C08.png" width="162.00" height="137.00" transform="matrix(0.88, 0.00, -0.00, -0.88, 118.0, 400.0)"></image></g></g><g><clipPath id="clip-976"><path d="M 608.0 291.2 L 655.3 291.2 L 655.3 333.3 L 608.0 333.3 Z M 608.0 291.2 "></path></clipPath><g clip-path="url(#clip-976)"><image xlink:href="../../F3F7AD45-781C-4B53-ABB8-59D70332B380/assets/3649270E128D84AF7EFA57A0B37E3E9C.png" width="54.00" height="48.00" transform="matrix(0.87, 0.00, -0.00, -0.88, 608.0, 333.0)"></image></g></g><g><clipPath id="clip-977"><path d="M 651.8 288.3 L 793.8 288.3 L 793.8 391.8 L 651.8 391.8 Z M 651.8 288.3 "></path></clipPath><g clip-path="url(#clip-977)"><image xlink:href="../../F3F7AD45-781C-4B53-ABB8-59D70332B380/assets/916EEA7FC5833C0B440A5F04498E5078.png" width="162.00" height="118.00" transform="matrix(0.88, 0.00, -0.00, -0.88, 652.0, 392.0)"></image></g></g><g><clipPath id="clip-978"><path d="M 787.9 291.2 L 835.2 291.2 L 835.2 333.3 L 787.9 333.3 Z M 787.9 291.2 "></path></clipPath><g clip-path="url(#clip-978)"><image xlink:href="../../F3F7AD45-781C-4B53-ABB8-59D70332B380/assets/3649270E128D84AF7EFA57A0B37E3E9C.png" width="54.00" height="48.00" transform="matrix(0.87, 0.00, -0.00, -0.88, 788.0, 333.0)"></image></g></g><g><clipPath id="clip-979"><path d="M 473.3 288.3 L 615.3 288.3 L 615.3 391.8 L 473.3 391.8 Z M 473.3 288.3 "></path></clipPath><g clip-path="url(#clip-979)"><image xlink:href="../../F3F7AD45-781C-4B53-ABB8-59D70332B380/assets/916EEA7FC5833C0B440A5F04498E5078.png" width="162.00" height="118.00" transform="matrix(0.88, 0.00, -0.00, -0.88, 473.0, 392.0)"></image></g></g><g><clipPath id="clip-980"><path d="M 248.3 291.2 L 295.6 291.2 L 295.6 333.3 L 248.3 333.3 Z M 248.3 291.2 "></path></clipPath><g clip-path="url(#clip-980)"><image xlink:href="../../F3F7AD45-781C-4B53-ABB8-59D70332B380/assets/3649270E128D84AF7EFA57A0B37E3E9C.png" width="54.00" height="48.00" transform="matrix(0.89, 0.00, -0.00, -0.88, 248.0, 333.0)"></image></g></g><g><clipPath id="clip-981"><path d="M 292.1 288.3 L 434.1 288.3 L 434.1 391.8 L 292.1 391.8 Z M 292.1 288.3 "></path></clipPath><g clip-path="url(#clip-981)"><image xlink:href="../../F3F7AD45-781C-4B53-ABB8-59D70332B380/assets/916EEA7FC5833C0B440A5F04498E5078.png" width="162.00" height="118.00" transform="matrix(0.88, 0.00, -0.00, -0.88, 292.0, 392.0)"></image></g></g><g><clipPath id="clip-982"><path d="M 428.3 291.2 L 475.6 291.2 L 475.6 333.3 L 428.3 333.3 Z M 428.3 291.2 "></path></clipPath><g clip-path="url(#clip-982)"><image xlink:href="../../F3F7AD45-781C-4B53-ABB8-59D70332B380/assets/3649270E128D84AF7EFA57A0B37E3E9C.png" width="54.00" height="48.00" transform="matrix(0.89, 0.00, -0.00, -0.88, 428.0, 333.0)"></image></g></g><g><clipPath id="clip-983"><path d="M 306.1 400.4 L 409.6 400.4 L 409.6 486.1 L 306.1 486.1 Z M 306.1 400.4 "></path></clipPath><g clip-path="url(#clip-983)"><text xml:space="preserve" font-family="Impact" font-weight="bold" font-size="47.0" fill="#FAFDC3" transform="matrix(1.00, 0.00, -0.00, -1.00, 320.0, 425.0)">c</text><text xml:space="preserve" font-family="Impact" font-weight="bold" font-size="47.0" fill="#FAFDC3" transform="matrix(1.00, 0.00, -0.00, -1.00, 343.2, 425.0)">r</text><text xml:space="preserve" font-family="Impact" font-weight="bold" font-size="47.0" fill="#FAFDC3" transform="matrix(1.00, 0.00, -0.00, -1.00, 360.9, 425.0)">t</text><text xml:space="preserve" font-family="Impact" font-weight="bold" font-size="47.0" fill="#FAFDC3" transform="matrix(1.00, 0.00, -0.00, -1.00, 375.2, 425.0)">E</text></g></g><g><clipPath id="clip-984"><path d="M 655.5 398.8 L 766.2 398.8 L 766.2 487.7 L 655.5 487.7 Z M 655.5 398.8 "></path></clipPath><g clip-path="url(#clip-984)"><text xml:space="preserve" font-family="Impact" font-weight="bold" font-size="49.0" fill="#FAFDC3" transform="matrix(1.00, 0.00, -0.00, -1.00, 670.0, 424.0)">c</text><text xml:space="preserve" font-family="Impact" font-weight="bold" font-size="49.0" fill="#FAFDC3" transform="matrix(1.00, 0.00, -0.00, -1.00, 694.2, 424.0)">r</text><text xml:space="preserve" font-family="Impact" font-weight="bold" font-size="49.0" fill="#FAFDC3" transform="matrix(1.00, 0.00, -0.00, -1.00, 712.6, 424.0)">t</text><text xml:space="preserve" font-family="Impact" font-weight="bold" font-size="49.0" fill="#FAFDC3" transform="matrix(1.00, 0.00, -0.00, -1.00, 727.5, 424.0)">Y</text></g></g><g><clipPath id="clip-985"><path d="M 830.2 296.1 L 940.0 296.1 L 940.0 384.7 L 830.2 384.7 Z M 830.2 296.1 "></path></clipPath><g clip-path="url(#clip-985)"><image xlink:href="../../F3F7AD45-781C-4B53-ABB8-59D70332B380/assets/9084815B5622973931917B0006A63424.png" width="191.00" height="154.00" transform="matrix(0.58, 0.00, -0.00, -0.58, 830.0, 385.0)"></image></g></g><g><clipPath id="clip-986"><path d="M 856.4 317.9 L 913.9 317.9 L 913.9 369.0 L 856.4 369.0 Z M 856.4 317.9 "></path></clipPath><g clip-path="url(#clip-986)"><text xml:space="preserve" font-family="Impact" font-weight="bold" font-size="23.5" fill="#FAFDC3" transform="matrix(1.00, 0.00, -0.00, -1.00, 864.0, 334.0)">s</text><text xml:space="preserve" font-family="Impact" font-weight="bold" font-size="23.5" fill="#FAFDC3" transform="matrix(1.00, 0.00, -0.00, -1.00, 875.1, 334.0)">t</text><text xml:space="preserve" font-family="Impact" font-weight="bold" font-size="23.5" fill="#FAFDC3" transform="matrix(1.00, 0.00, -0.00, -1.00, 882.2, 334.0)">o</text><text xml:space="preserve" font-family="Impact" font-weight="bold" font-size="23.5" fill="#FAFDC3" transform="matrix(1.00, 0.00, -0.00, -1.00, 894.2, 334.0)">p</text></g></g><g><clipPath id="clip-987"><path d="M 108.5 399.1 L 287.5 399.1 L 287.5 487.7 L 108.5 487.7 Z M 108.5 399.1 "></path></clipPath><g clip-path="url(#clip-987)"><text xml:space="preserve" font-family="Impact" font-weight="bold" font-size="33.5" fill="#FAFDC3" transform="matrix(1.00, 0.00, -0.00, -1.00, 119.0, 430.0)">T</text><text xml:space="preserve" font-family="Impact" font-weight="bold" font-size="33.5" fill="#FAFDC3" transform="matrix(1.00, 0.00, -0.00, -1.00, 134.4, 430.0)">7</text><text xml:space="preserve" font-family="Impact" font-weight="bold" font-size="33.5" fill="#FAFDC3" transform="matrix(1.00, 0.00, -0.00, -1.00, 147.5, 430.0)">p</text><text xml:space="preserve" font-family="Impact" font-weight="bold" font-size="33.5" fill="#FAFDC3" transform="matrix(1.00, 0.00, -0.00, -1.00, 164.9, 430.0)">r</text><text xml:space="preserve" font-family="Impact" font-weight="bold" font-size="33.5" fill="#FAFDC3" transform="matrix(1.00, 0.00, -0.00, -1.00, 176.9, 430.0)">o</text><text xml:space="preserve" font-family="Impact" font-weight="bold" font-size="33.5" fill="#FAFDC3" transform="matrix(1.00, 0.00, -0.00, -1.00, 194.1, 430.0)">m</text><text xml:space="preserve" font-family="Impact" font-weight="bold" font-size="33.5" fill="#FAFDC3" transform="matrix(1.00, 0.00, -0.00, -1.00, 219.9, 430.0)">o</text><text xml:space="preserve" font-family="Impact" font-weight="bold" font-size="33.5" fill="#FAFDC3" transform="matrix(1.00, 0.00, -0.00, -1.00, 237.0, 430.0)">t</text><text xml:space="preserve" font-family="Impact" font-weight="bold" font-size="33.5" fill="#FAFDC3" transform="matrix(1.00, 0.00, -0.00, -1.00, 247.2, 430.0)">o</text><text xml:space="preserve" font-family="Impact" font-weight="bold" font-size="33.5" fill="#FAFDC3" transform="matrix(1.00, 0.00, -0.00, -1.00, 264.3, 430.0)">r</text></g></g></g></svg>