<?xml version="1.0" encoding="UTF-8" standalone="no"?><svg xmlns="http://www.w3.org/2000/svg" xmlns:xlink="http://www.w3.org/1999/xlink" clip-rule="evenodd" stroke-miterlimit="4.00" viewBox="0 0 1024 768"><desc>SVG generated by Keynote</desc><defs></defs><g transform="matrix(1.00, 0.00, -0.00, -1.00, 0.0, 768.0)"><path d="M 0.0 768.0 L 1024.0 768.0 L 1024.0 0.0 L 0.0 0.0 Z M 0.0 768.0 " fill="#00DEE1"></path><text xml:space="preserve" font-family="Impact" font-weight="bold" font-size="80.0" fill="#802438" transform="matrix(1.00, 0.00, -0.00, -1.00, 311.0, 138.0)">P</text><text xml:space="preserve" font-family="Impact" font-weight="bold" font-size="80.0" fill="#802438" transform="matrix(1.00, 0.00, -0.00, -1.00, 351.2, 138.0)">l</text><text xml:space="preserve" font-family="Impact" font-weight="bold" font-size="80.0" fill="#802438" transform="matrix(1.00, 0.00, -0.00, -1.00, 373.1, 138.0)">a</text><text xml:space="preserve" font-family="Impact" font-weight="bold" font-size="80.0" fill="#802438" transform="matrix(1.00, 0.00, -0.00, -1.00, 413.4, 138.0)">s</text><text xml:space="preserve" font-family="Impact" font-weight="bold" font-size="80.0" fill="#802438" transform="matrix(1.00, 0.00, -0.00, -1.00, 451.0, 138.0)">m</text><text xml:space="preserve" font-family="Impact" font-weight="bold" font-size="80.0" fill="#802438" transform="matrix(1.00, 0.00, -0.00, -1.00, 512.7, 138.0)">í</text><text xml:space="preserve" font-family="Impact" font-weight="bold" font-size="80.0" fill="#802438" transform="matrix(1.00, 0.00, -0.00, -1.00, 534.6, 138.0)">d</text><text xml:space="preserve" font-family="Impact" font-weight="bold" font-size="80.0" fill="#802438" transform="matrix(1.00, 0.00, -0.00, -1.00, 576.1, 138.0)">e</text><text xml:space="preserve" font-family="Impact" font-weight="bold" font-size="80.0" fill="#802438" transform="matrix(1.00, 0.00, -0.00, -1.00, 617.0, 138.0)">o</text><text xml:space="preserve" font-family="Impact" font-weight="bold" font-size="80.0" fill="#802438" transform="matrix(1.00, 0.00, -0.00, -1.00, 657.9, 138.0)"> </text><text xml:space="preserve" font-family="Impact" font-weight="bold" font-size="80.0" fill="#802438" transform="matrix(1.00, 0.00, -0.00, -1.00, 672.1, 138.0)">V</text></g></svg>