<?xml version="1.0" encoding="UTF-8" standalone="no"?><svg xmlns="http://www.w3.org/2000/svg" xmlns:xlink="http://www.w3.org/1999/xlink" clip-rule="evenodd" stroke-miterlimit="4.00" viewBox="0 0 296 45"><desc>SVG generated by Keynote</desc><defs></defs><g transform="matrix(1.00, 0.00, -0.00, -1.00, 0.0, 45.0)"><text xml:space="preserve" font-family="Impact" font-weight="bold" font-size="50.0" fill="#FAFDC3" transform="matrix(1.00, 0.00, -0.00, -1.00, 0.0, 3.0)">C</text><text xml:space="preserve" font-family="Impact" font-weight="bold" font-size="50.0" fill="#FAFDC3" transform="matrix(1.00, 0.00, -0.00, -1.00, 27.7, 3.0)">O</text><text xml:space="preserve" font-family="Impact" font-weight="bold" font-size="50.0" fill="#FAFDC3" transform="matrix(1.00, 0.00, -0.00, -1.00, 55.0, 3.0)">R</text><text xml:space="preserve" font-family="Impact" font-weight="bold" font-size="50.0" fill="#FAFDC3" transform="matrix(1.00, 0.00, -0.00, -1.00, 81.9, 3.0)"> </text><text xml:space="preserve" font-family="Impact" font-weight="bold" font-size="50.0" fill="#FAFDC3" transform="matrix(1.00, 0.00, -0.00, -1.00, 90.8, 3.0)">V</text><text xml:space="preserve" font-family="Impact" font-weight="bold" font-size="50.0" fill="#FAFDC3" transform="matrix(1.00, 0.00, -0.00, -1.00, 117.0, 3.0)">E</text><text xml:space="preserve" font-family="Impact" font-weight="bold" font-size="50.0" fill="#FAFDC3" transform="matrix(1.00, 0.00, -0.00, -1.00, 137.8, 3.0)">R</text><text xml:space="preserve" font-family="Impact" font-weight="bold" font-size="50.0" fill="#FAFDC3" transform="matrix(1.00, 0.00, -0.00, -1.00, 164.7, 3.0)">M</text><text xml:space="preserve" font-family="Impact" font-weight="bold" font-size="50.0" fill="#FAFDC3" transform="matrix(1.00, 0.00, -0.00, -1.00, 200.5, 3.0)">E</text><text xml:space="preserve" font-family="Impact" font-weight="bold" font-size="50.0" fill="#FAFDC3" transform="matrix(1.00, 0.00, -0.00, -1.00, 221.3, 3.0)">L</text><text xml:space="preserve" font-family="Impact" font-weight="bold" font-size="50.0" fill="#FAFDC3" transform="matrix(1.00, 0.00, -0.00, -1.00, 240.3, 3.0)">H</text><text xml:space="preserve" font-family="Impact" font-weight="bold" font-size="50.0" fill="#FAFDC3" transform="matrix(1.00, 0.00, -0.00, -1.00, 268.1, 3.0)">A</text></g></svg>