<?xml version="1.0" encoding="UTF-8" standalone="no"?><svg xmlns="http://www.w3.org/2000/svg" xmlns:xlink="http://www.w3.org/1999/xlink" clip-rule="evenodd" stroke-miterlimit="4.00" viewBox="0 0 827 209"><desc>SVG generated by Keynote</desc><defs></defs><g transform="matrix(1.00, 0.00, -0.00, -1.00, 0.0, 209.0)"><g><clipPath id="clip-988"><path d="M 366.7 119.1 L 475.9 119.1 L 475.9 207.7 L 366.7 207.7 Z M 366.7 119.1 "></path></clipPath><g clip-path="url(#clip-988)"><text xml:space="preserve" font-family="Impact" font-weight="bold" font-size="46.5" fill="#FAFDC3" transform="matrix(1.00, 0.00, -0.00, -1.00, 381.0, 145.0)">c</text><text xml:space="preserve" font-family="Impact" font-weight="bold" font-size="46.5" fill="#FAFDC3" transform="matrix(1.00, 0.00, -0.00, -1.00, 404.0, 145.0)">r</text><text xml:space="preserve" font-family="Impact" font-weight="bold" font-size="46.5" fill="#FAFDC3" transform="matrix(1.00, 0.00, -0.00, -1.00, 421.4, 145.0)">t</text><text xml:space="preserve" font-family="Impact" font-weight="bold" font-size="46.5" fill="#FAFDC3" transform="matrix(1.00, 0.00, -0.00, -1.00, 435.6, 145.0)">B</text></g></g><g><clipPath id="clip-989"><path d="M 5.1 0.3 L 147.1 0.3 L 147.1 120.5 L 5.1 120.5 Z M 5.1 0.3 "></path></clipPath><g clip-path="url(#clip-989)"><image xlink:href="../../F3F7AD45-781C-4B53-ABB8-59D70332B380/assets/53914902E14C489C3E591E0805068C08.png" width="162.00" height="137.00" transform="matrix(0.88, 0.00, -0.00, -0.88, 5.0, 120.0)"></image></g></g><g><clipPath id="clip-990"><path d="M 495.0 11.2 L 542.3 11.2 L 542.3 53.3 L 495.0 53.3 Z M 495.0 11.2 "></path></clipPath><g clip-path="url(#clip-990)"><image xlink:href="../../F3F7AD45-781C-4B53-ABB8-59D70332B380/assets/3649270E128D84AF7EFA57A0B37E3E9C.png" width="54.00" height="48.00" transform="matrix(0.87, 0.00, -0.00, -0.88, 495.0, 53.0)"></image></g></g><g><clipPath id="clip-991"><path d="M 538.8 8.3 L 680.8 8.3 L 680.8 111.8 L 538.8 111.8 Z M 538.8 8.3 "></path></clipPath><g clip-path="url(#clip-991)"><image xlink:href="../../F3F7AD45-781C-4B53-ABB8-59D70332B380/assets/916EEA7FC5833C0B440A5F04498E5078.png" width="162.00" height="118.00" transform="matrix(0.88, 0.00, -0.00, -0.88, 539.0, 112.0)"></image></g></g><g><clipPath id="clip-992"><path d="M 674.9 11.2 L 722.2 11.2 L 722.2 53.3 L 674.9 53.3 Z M 674.9 11.2 "></path></clipPath><g clip-path="url(#clip-992)"><image xlink:href="../../F3F7AD45-781C-4B53-ABB8-59D70332B380/assets/3649270E128D84AF7EFA57A0B37E3E9C.png" width="54.00" height="48.00" transform="matrix(0.87, 0.00, -0.00, -0.88, 675.0, 53.0)"></image></g></g><g><clipPath id="clip-993"><path d="M 360.3 8.3 L 502.3 8.3 L 502.3 111.8 L 360.3 111.8 Z M 360.3 8.3 "></path></clipPath><g clip-path="url(#clip-993)"><image xlink:href="../../F3F7AD45-781C-4B53-ABB8-59D70332B380/assets/916EEA7FC5833C0B440A5F04498E5078.png" width="162.00" height="118.00" transform="matrix(0.88, 0.00, -0.00, -0.88, 360.0, 112.0)"></image></g></g><g><clipPath id="clip-994"><path d="M 135.3 11.2 L 182.6 11.2 L 182.6 53.3 L 135.3 53.3 Z M 135.3 11.2 "></path></clipPath><g clip-path="url(#clip-994)"><image xlink:href="../../F3F7AD45-781C-4B53-ABB8-59D70332B380/assets/3649270E128D84AF7EFA57A0B37E3E9C.png" width="54.00" height="48.00" transform="matrix(0.89, 0.00, -0.00, -0.88, 135.0, 53.0)"></image></g></g><g><clipPath id="clip-995"><path d="M 179.1 8.3 L 321.1 8.3 L 321.1 111.8 L 179.1 111.8 Z M 179.1 8.3 "></path></clipPath><g clip-path="url(#clip-995)"><image xlink:href="../../F3F7AD45-781C-4B53-ABB8-59D70332B380/assets/916EEA7FC5833C0B440A5F04498E5078.png" width="162.00" height="118.00" transform="matrix(0.88, 0.00, -0.00, -0.88, 179.0, 112.0)"></image></g></g><g><clipPath id="clip-996"><path d="M 315.3 11.2 L 362.6 11.2 L 362.6 53.3 L 315.3 53.3 Z M 315.3 11.2 "></path></clipPath><g clip-path="url(#clip-996)"><image xlink:href="../../F3F7AD45-781C-4B53-ABB8-59D70332B380/assets/3649270E128D84AF7EFA57A0B37E3E9C.png" width="54.00" height="48.00" transform="matrix(0.89, 0.00, -0.00, -0.88, 315.0, 53.0)"></image></g></g><g><clipPath id="clip-997"><path d="M 193.1 120.4 L 296.6 120.4 L 296.6 206.1 L 193.1 206.1 Z M 193.1 120.4 "></path></clipPath><g clip-path="url(#clip-997)"><text xml:space="preserve" font-family="Impact" font-weight="bold" font-size="47.0" fill="#FAFDC3" transform="matrix(1.00, 0.00, -0.00, -1.00, 207.0, 145.0)">c</text><text xml:space="preserve" font-family="Impact" font-weight="bold" font-size="47.0" fill="#FAFDC3" transform="matrix(1.00, 0.00, -0.00, -1.00, 230.2, 145.0)">r</text><text xml:space="preserve" font-family="Impact" font-weight="bold" font-size="47.0" fill="#FAFDC3" transform="matrix(1.00, 0.00, -0.00, -1.00, 247.9, 145.0)">t</text><text xml:space="preserve" font-family="Impact" font-weight="bold" font-size="47.0" fill="#FAFDC3" transform="matrix(1.00, 0.00, -0.00, -1.00, 262.2, 145.0)">E</text></g></g><g><clipPath id="clip-998"><path d="M 542.2 117.5 L 653.5 117.5 L 653.5 209.0 L 542.2 209.0 Z M 542.2 117.5 "></path></clipPath><g clip-path="url(#clip-998)"><text xml:space="preserve" font-family="Impact" font-weight="bold" font-size="50.0" fill="#FAFDC3" transform="matrix(1.00, 0.00, -0.00, -1.00, 557.0, 143.0)">c</text><text xml:space="preserve" font-family="Impact" font-weight="bold" font-size="50.0" fill="#FAFDC3" transform="matrix(1.00, 0.00, -0.00, -1.00, 581.7, 143.0)">r</text><text xml:space="preserve" font-family="Impact" font-weight="bold" font-size="50.0" fill="#FAFDC3" transform="matrix(1.00, 0.00, -0.00, -1.00, 600.5, 143.0)">t</text><text xml:space="preserve" font-family="Impact" font-weight="bold" font-size="50.0" fill="#FAFDC3" transform="matrix(1.00, 0.00, -0.00, -1.00, 615.7, 143.0)">I</text></g></g><g><clipPath id="clip-999"><path d="M 717.2 16.1 L 827.0 16.1 L 827.0 104.7 L 717.2 104.7 Z M 717.2 16.1 "></path></clipPath><g clip-path="url(#clip-999)"><image xlink:href="../../F3F7AD45-781C-4B53-ABB8-59D70332B380/assets/9084815B5622973931917B0006A63424.png" width="191.00" height="154.00" transform="matrix(0.58, 0.00, -0.00, -0.58, 717.0, 105.0)"></image></g></g><g><clipPath id="clip-1000"><path d="M 743.4 37.9 L 800.9 37.9 L 800.9 89.0 L 743.4 89.0 Z M 743.4 37.9 "></path></clipPath><g clip-path="url(#clip-1000)"><text xml:space="preserve" font-family="Impact" font-weight="bold" font-size="23.5" fill="#FAFDC3" transform="matrix(1.00, 0.00, -0.00, -1.00, 751.0, 54.0)">s</text><text xml:space="preserve" font-family="Impact" font-weight="bold" font-size="23.5" fill="#FAFDC3" transform="matrix(1.00, 0.00, -0.00, -1.00, 762.1, 54.0)">t</text><text xml:space="preserve" font-family="Impact" font-weight="bold" font-size="23.5" fill="#FAFDC3" transform="matrix(1.00, 0.00, -0.00, -1.00, 769.2, 54.0)">o</text><text xml:space="preserve" font-family="Impact" font-weight="bold" font-size="23.5" fill="#FAFDC3" transform="matrix(1.00, 0.00, -0.00, -1.00, 781.2, 54.0)">p</text></g></g><g><clipPath id="clip-1001"><path d="M -4.5 119.1 L 174.5 119.1 L 174.5 207.7 L -4.5 207.7 Z M -4.5 119.1 "></path></clipPath><g clip-path="url(#clip-1001)"><text xml:space="preserve" font-family="Impact" font-weight="bold" font-size="33.5" fill="#FAFDC3" transform="matrix(1.00, 0.00, -0.00, -1.00, 6.0, 150.0)">T</text><text xml:space="preserve" font-family="Impact" font-weight="bold" font-size="33.5" fill="#FAFDC3" transform="matrix(1.00, 0.00, -0.00, -1.00, 21.4, 150.0)">7</text><text xml:space="preserve" font-family="Impact" font-weight="bold" font-size="33.5" fill="#FAFDC3" transform="matrix(1.00, 0.00, -0.00, -1.00, 34.5, 150.0)">p</text><text xml:space="preserve" font-family="Impact" font-weight="bold" font-size="33.5" fill="#FAFDC3" transform="matrix(1.00, 0.00, -0.00, -1.00, 51.9, 150.0)">r</text><text xml:space="preserve" font-family="Impact" font-weight="bold" font-size="33.5" fill="#FAFDC3" transform="matrix(1.00, 0.00, -0.00, -1.00, 63.9, 150.0)">o</text><text xml:space="preserve" font-family="Impact" font-weight="bold" font-size="33.5" fill="#FAFDC3" transform="matrix(1.00, 0.00, -0.00, -1.00, 81.1, 150.0)">m</text><text xml:space="preserve" font-family="Impact" font-weight="bold" font-size="33.5" fill="#FAFDC3" transform="matrix(1.00, 0.00, -0.00, -1.00, 106.9, 150.0)">o</text><text xml:space="preserve" font-family="Impact" font-weight="bold" font-size="33.5" fill="#FAFDC3" transform="matrix(1.00, 0.00, -0.00, -1.00, 124.0, 150.0)">t</text><text xml:space="preserve" font-family="Impact" font-weight="bold" font-size="33.5" fill="#FAFDC3" transform="matrix(1.00, 0.00, -0.00, -1.00, 134.2, 150.0)">o</text><text xml:space="preserve" font-family="Impact" font-weight="bold" font-size="33.5" fill="#FAFDC3" transform="matrix(1.00, 0.00, -0.00, -1.00, 151.3, 150.0)">r</text></g></g></g></svg>