<?xml version="1.0" encoding="UTF-8" standalone="no"?><svg xmlns="http://www.w3.org/2000/svg" xmlns:xlink="http://www.w3.org/1999/xlink" clip-rule="evenodd" stroke-miterlimit="4.00" viewBox="0 0 977 210"><desc>SVG generated by Keynote</desc><defs></defs><g transform="matrix(1.00, 0.00, -0.00, -1.00, 0.0, 210.0)"><g><clipPath id="clip-912"><path d="M 369.9 119.7 L 473.2 119.7 L 473.2 208.3 L 369.9 208.3 Z M 369.9 119.7 "></path></clipPath><g clip-path="url(#clip-912)"><text xml:space="preserve" font-family="Impact" font-weight="bold" font-size="37.0" fill="#FAFDC3" transform="matrix(1.00, 0.00, -0.00, -1.00, 381.0, 149.0)">w</text><text xml:space="preserve" font-family="Impact" font-weight="bold" font-size="37.0" fill="#FAFDC3" transform="matrix(1.00, 0.00, -0.00, -1.00, 405.8, 149.0)">s</text><text xml:space="preserve" font-family="Impact" font-weight="bold" font-size="37.0" fill="#FAFDC3" transform="matrix(1.00, 0.00, -0.00, -1.00, 423.2, 149.0)">s</text><text xml:space="preserve" font-family="Impact" font-weight="bold" font-size="37.0" fill="#FAFDC3" transform="matrix(1.00, 0.00, -0.00, -1.00, 440.6, 149.0)">G</text></g></g><g><clipPath id="clip-913"><path d="M 5.4 0.8 L 147.3 0.8 L 147.3 121.0 L 5.4 121.0 Z M 5.4 0.8 "></path></clipPath><g clip-path="url(#clip-913)"><image xlink:href="../../F3F7AD45-781C-4B53-ABB8-59D70332B380/assets/53914902E14C489C3E591E0805068C08.png" width="162.00" height="137.00" transform="matrix(0.88, 0.00, -0.00, -0.88, 5.0, 121.0)"></image></g></g><g><clipPath id="clip-914"><path d="M 720.2 8.8 L 862.2 8.8 L 862.2 112.3 L 720.2 112.3 Z M 720.2 8.8 "></path></clipPath><g clip-path="url(#clip-914)"><image xlink:href="../../F3F7AD45-781C-4B53-ABB8-59D70332B380/assets/916EEA7FC5833C0B440A5F04498E5078.png" width="162.00" height="118.00" transform="matrix(0.88, 0.00, -0.00, -0.87, 720.0, 112.0)"></image></g></g><g><clipPath id="clip-915"><path d="M 495.2 11.7 L 542.5 11.7 L 542.5 53.8 L 495.2 53.8 Z M 495.2 11.7 "></path></clipPath><g clip-path="url(#clip-915)"><image xlink:href="../../F3F7AD45-781C-4B53-ABB8-59D70332B380/assets/3649270E128D84AF7EFA57A0B37E3E9C.png" width="54.00" height="48.00" transform="matrix(0.87, 0.00, -0.00, -0.88, 495.0, 54.0)"></image></g></g><g><clipPath id="clip-916"><path d="M 539.0 8.8 L 681.0 8.8 L 681.0 112.3 L 539.0 112.3 Z M 539.0 8.8 "></path></clipPath><g clip-path="url(#clip-916)"><image xlink:href="../../F3F7AD45-781C-4B53-ABB8-59D70332B380/assets/916EEA7FC5833C0B440A5F04498E5078.png" width="162.00" height="118.00" transform="matrix(0.88, 0.00, -0.00, -0.87, 539.0, 112.0)"></image></g></g><g><clipPath id="clip-917"><path d="M 675.1 11.7 L 722.4 11.7 L 722.4 53.8 L 675.1 53.8 Z M 675.1 11.7 "></path></clipPath><g clip-path="url(#clip-917)"><image xlink:href="../../F3F7AD45-781C-4B53-ABB8-59D70332B380/assets/3649270E128D84AF7EFA57A0B37E3E9C.png" width="54.00" height="48.00" transform="matrix(0.87, 0.00, -0.00, -0.88, 675.0, 54.0)"></image></g></g><g><clipPath id="clip-918"><path d="M 360.5 8.8 L 502.5 8.8 L 502.5 112.3 L 360.5 112.3 Z M 360.5 8.8 "></path></clipPath><g clip-path="url(#clip-918)"><image xlink:href="../../F3F7AD45-781C-4B53-ABB8-59D70332B380/assets/916EEA7FC5833C0B440A5F04498E5078.png" width="162.00" height="118.00" transform="matrix(0.88, 0.00, -0.00, -0.87, 361.0, 112.0)"></image></g></g><g><clipPath id="clip-919"><path d="M 135.5 11.7 L 182.8 11.7 L 182.8 53.8 L 135.5 53.8 Z M 135.5 11.7 "></path></clipPath><g clip-path="url(#clip-919)"><image xlink:href="../../F3F7AD45-781C-4B53-ABB8-59D70332B380/assets/3649270E128D84AF7EFA57A0B37E3E9C.png" width="54.00" height="48.00" transform="matrix(0.87, 0.00, -0.00, -0.88, 136.0, 54.0)"></image></g></g><g><clipPath id="clip-920"><path d="M 179.3 8.8 L 321.3 8.8 L 321.3 112.3 L 179.3 112.3 Z M 179.3 8.8 "></path></clipPath><g clip-path="url(#clip-920)"><image xlink:href="../../F3F7AD45-781C-4B53-ABB8-59D70332B380/assets/916EEA7FC5833C0B440A5F04498E5078.png" width="162.00" height="118.00" transform="matrix(0.88, 0.00, -0.00, -0.87, 179.0, 112.0)"></image></g></g><g><clipPath id="clip-921"><path d="M 315.5 11.7 L 362.8 11.7 L 362.8 53.8 L 315.5 53.8 Z M 315.5 11.7 "></path></clipPath><g clip-path="url(#clip-921)"><image xlink:href="../../F3F7AD45-781C-4B53-ABB8-59D70332B380/assets/3649270E128D84AF7EFA57A0B37E3E9C.png" width="54.00" height="48.00" transform="matrix(0.89, 0.00, -0.00, -0.88, 315.0, 54.0)"></image></g></g><g><clipPath id="clip-922"><path d="M 196.4 127.7 L 293.7 127.7 L 293.7 200.3 L 196.4 200.3 Z M 196.4 127.7 "></path></clipPath><g clip-path="url(#clip-922)"><text xml:space="preserve" font-family="Impact" font-weight="bold" font-size="37.0" fill="#FAFDC3" transform="matrix(1.00, 0.00, -0.00, -1.00, 208.0, 149.0)">w</text><text xml:space="preserve" font-family="Impact" font-weight="bold" font-size="37.0" fill="#FAFDC3" transform="matrix(1.00, 0.00, -0.00, -1.00, 232.8, 149.0)">s</text><text xml:space="preserve" font-family="Impact" font-weight="bold" font-size="37.0" fill="#FAFDC3" transform="matrix(1.00, 0.00, -0.00, -1.00, 250.2, 149.0)">s</text><text xml:space="preserve" font-family="Impact" font-weight="bold" font-size="37.0" fill="#FAFDC3" transform="matrix(1.00, 0.00, -0.00, -1.00, 267.6, 149.0)">F</text></g></g><g><clipPath id="clip-923"><path d="M 546.4 119.7 L 649.7 119.7 L 649.7 208.3 L 546.4 208.3 Z M 546.4 119.7 "></path></clipPath><g clip-path="url(#clip-923)"><text xml:space="preserve" font-family="Impact" font-weight="bold" font-size="37.0" fill="#FAFDC3" transform="matrix(1.00, 0.00, -0.00, -1.00, 558.0, 149.0)">w</text><text xml:space="preserve" font-family="Impact" font-weight="bold" font-size="37.0" fill="#FAFDC3" transform="matrix(1.00, 0.00, -0.00, -1.00, 582.8, 149.0)">s</text><text xml:space="preserve" font-family="Impact" font-weight="bold" font-size="37.0" fill="#FAFDC3" transform="matrix(1.00, 0.00, -0.00, -1.00, 600.2, 149.0)">s</text><text xml:space="preserve" font-family="Impact" font-weight="bold" font-size="37.0" fill="#FAFDC3" transform="matrix(1.00, 0.00, -0.00, -1.00, 617.6, 149.0)">H</text></g></g><g><clipPath id="clip-924"><path d="M 726.9 127.7 L 825.5 127.7 L 825.5 200.3 L 726.9 200.3 Z M 726.9 127.7 "></path></clipPath><g clip-path="url(#clip-924)"><text xml:space="preserve" font-family="Impact" font-weight="bold" font-size="39.0" fill="#FAFDC3" transform="matrix(1.00, 0.00, -0.00, -1.00, 739.0, 148.0)">w</text><text xml:space="preserve" font-family="Impact" font-weight="bold" font-size="39.0" fill="#FAFDC3" transform="matrix(1.00, 0.00, -0.00, -1.00, 765.1, 148.0)">s</text><text xml:space="preserve" font-family="Impact" font-weight="bold" font-size="39.0" fill="#FAFDC3" transform="matrix(1.00, 0.00, -0.00, -1.00, 783.5, 148.0)">s</text><text xml:space="preserve" font-family="Impact" font-weight="bold" font-size="39.0" fill="#FAFDC3" transform="matrix(1.00, 0.00, -0.00, -1.00, 801.8, 148.0)">I</text></g></g><g><clipPath id="clip-925"><path d="M 867.1 14.7 L 976.8 14.7 L 976.8 103.3 L 867.1 103.3 Z M 867.1 14.7 "></path></clipPath><g clip-path="url(#clip-925)"><image xlink:href="../../F3F7AD45-781C-4B53-ABB8-59D70332B380/assets/9084815B5622973931917B0006A63424.png" width="191.00" height="154.00" transform="matrix(0.58, 0.00, -0.00, -0.57, 867.0, 103.0)"></image></g></g><g><clipPath id="clip-926"><path d="M 893.3 36.6 L 950.7 36.6 L 950.7 87.6 L 893.3 87.6 Z M 893.3 36.6 "></path></clipPath><g clip-path="url(#clip-926)"><text xml:space="preserve" font-family="Impact" font-weight="bold" font-size="23.5" fill="#FAFDC3" transform="matrix(1.00, 0.00, -0.00, -1.00, 900.0, 53.0)">s</text><text xml:space="preserve" font-family="Impact" font-weight="bold" font-size="23.5" fill="#FAFDC3" transform="matrix(1.00, 0.00, -0.00, -1.00, 911.1, 53.0)">t</text><text xml:space="preserve" font-family="Impact" font-weight="bold" font-size="23.5" fill="#FAFDC3" transform="matrix(1.00, 0.00, -0.00, -1.00, 918.2, 53.0)">o</text><text xml:space="preserve" font-family="Impact" font-weight="bold" font-size="23.5" fill="#FAFDC3" transform="matrix(1.00, 0.00, -0.00, -1.00, 930.2, 53.0)">p</text></g></g><g><clipPath id="clip-927"><path d="M -4.3 119.7 L 174.7 119.7 L 174.7 208.3 L -4.3 208.3 Z M -4.3 119.7 "></path></clipPath><g clip-path="url(#clip-927)"><text xml:space="preserve" font-family="Impact" font-weight="bold" font-size="33.5" fill="#FAFDC3" transform="matrix(1.00, 0.00, -0.00, -1.00, 6.0, 150.0)">T</text><text xml:space="preserve" font-family="Impact" font-weight="bold" font-size="33.5" fill="#FAFDC3" transform="matrix(1.00, 0.00, -0.00, -1.00, 21.4, 150.0)">7</text><text xml:space="preserve" font-family="Impact" font-weight="bold" font-size="33.5" fill="#FAFDC3" transform="matrix(1.00, 0.00, -0.00, -1.00, 34.5, 150.0)">p</text><text xml:space="preserve" font-family="Impact" font-weight="bold" font-size="33.5" fill="#FAFDC3" transform="matrix(1.00, 0.00, -0.00, -1.00, 51.9, 150.0)">r</text><text xml:space="preserve" font-family="Impact" font-weight="bold" font-size="33.5" fill="#FAFDC3" transform="matrix(1.00, 0.00, -0.00, -1.00, 63.9, 150.0)">o</text><text xml:space="preserve" font-family="Impact" font-weight="bold" font-size="33.5" fill="#FAFDC3" transform="matrix(1.00, 0.00, -0.00, -1.00, 81.1, 150.0)">m</text><text xml:space="preserve" font-family="Impact" font-weight="bold" font-size="33.5" fill="#FAFDC3" transform="matrix(1.00, 0.00, -0.00, -1.00, 106.9, 150.0)">o</text><text xml:space="preserve" font-family="Impact" font-weight="bold" font-size="33.5" fill="#FAFDC3" transform="matrix(1.00, 0.00, -0.00, -1.00, 124.0, 150.0)">t</text><text xml:space="preserve" font-family="Impact" font-weight="bold" font-size="33.5" fill="#FAFDC3" transform="matrix(1.00, 0.00, -0.00, -1.00, 134.2, 150.0)">o</text><text xml:space="preserve" font-family="Impact" font-weight="bold" font-size="33.5" fill="#FAFDC3" transform="matrix(1.00, 0.00, -0.00, -1.00, 151.3, 150.0)">r</text></g></g></g></svg>