<?xml version="1.0" encoding="UTF-8" standalone="no"?><svg xmlns="http://www.w3.org/2000/svg" xmlns:xlink="http://www.w3.org/1999/xlink" clip-rule="evenodd" stroke-miterlimit="4.00" viewBox="0 0 1024 768"><desc>SVG generated by Keynote</desc><defs></defs><g transform="matrix(1.00, 0.00, -0.00, -1.00, 0.0, 768.0)"><path d="M 0.0 768.0 L 1024.0 768.0 L 1024.0 0.0 L 0.0 0.0 Z M 0.0 768.0 " fill="#802438"></path><text xml:space="preserve" font-family="Impact" font-weight="bold" font-size="50.0" fill="#FAFDC3" transform="matrix(1.00, 0.00, -0.00, -1.00, 268.0, 662.0)">P</text><text xml:space="preserve" font-family="Impact" font-weight="bold" font-size="50.0" fill="#FAFDC3" transform="matrix(1.00, 0.00, -0.00, -1.00, 293.1, 662.0)">R</text><text xml:space="preserve" font-family="Impact" font-weight="bold" font-size="50.0" fill="#FAFDC3" transform="matrix(1.00, 0.00, -0.00, -1.00, 320.0, 662.0)">O</text><text xml:space="preserve" font-family="Impact" font-weight="bold" font-size="50.0" fill="#FAFDC3" transform="matrix(1.00, 0.00, -0.00, -1.00, 347.3, 662.0)">D</text><text xml:space="preserve" font-family="Impact" font-weight="bold" font-size="50.0" fill="#FAFDC3" transform="matrix(1.00, 0.00, -0.00, -1.00, 375.0, 662.0)">U</text><text xml:space="preserve" font-family="Impact" font-weight="bold" font-size="50.0" fill="#FAFDC3" transform="matrix(1.00, 0.00, -0.00, -1.00, 402.3, 662.0)">Ç</text><text xml:space="preserve" font-family="Impact" font-weight="bold" font-size="50.0" fill="#FAFDC3" transform="matrix(1.00, 0.00, -0.00, -1.00, 430.0, 662.0)">Ã</text><text xml:space="preserve" font-family="Impact" font-weight="bold" font-size="50.0" fill="#FAFDC3" transform="matrix(1.00, 0.00, -0.00, -1.00, 455.4, 662.0)">O</text><text xml:space="preserve" font-family="Impact" font-weight="bold" font-size="50.0" fill="#FAFDC3" transform="matrix(1.00, 0.00, -0.00, -1.00, 482.7, 662.0)"> </text><text xml:space="preserve" font-family="Impact" font-weight="bold" font-size="50.0" fill="#FAFDC3" transform="matrix(1.00, 0.00, -0.00, -1.00, 491.5, 662.0)">D</text><text xml:space="preserve" font-family="Impact" font-weight="bold" font-size="50.0" fill="#FAFDC3" transform="matrix(1.00, 0.00, -0.00, -1.00, 519.1, 662.0)">E</text><text xml:space="preserve" font-family="Impact" font-weight="bold" font-size="50.0" fill="#FAFDC3" transform="matrix(1.00, 0.00, -0.00, -1.00, 539.9, 662.0)"> </text><text xml:space="preserve" font-family="Impact" font-weight="bold" font-size="50.0" fill="#FAFDC3" transform="matrix(1.00, 0.00, -0.00, -1.00, 548.7, 662.0)">C</text><text xml:space="preserve" font-family="Impact" font-weight="bold" font-size="50.0" fill="#FAFDC3" transform="matrix(1.00, 0.00, -0.00, -1.00, 576.4, 662.0)">E</text><text xml:space="preserve" font-family="Impact" font-weight="bold" font-size="50.0" fill="#FAFDC3" transform="matrix(1.00, 0.00, -0.00, -1.00, 597.1, 662.0)">L</text><text xml:space="preserve" font-family="Impact" font-weight="bold" font-size="50.0" fill="#FAFDC3" transform="matrix(1.00, 0.00, -0.00, -1.00, 616.2, 662.0)">U</text><text xml:space="preserve" font-family="Impact" font-weight="bold" font-size="50.0" fill="#FAFDC3" transform="matrix(1.00, 0.00, -0.00, -1.00, 643.5, 662.0)">L</text><text xml:space="preserve" font-family="Impact" font-weight="bold" font-size="50.0" fill="#FAFDC3" transform="matrix(1.00, 0.00, -0.00, -1.00, 661.8, 662.0)">O</text><text xml:space="preserve" font-family="Impact" font-weight="bold" font-size="50.0" fill="#FAFDC3" transform="matrix(1.00, 0.00, -0.00, -1.00, 689.1, 662.0)">S</text><text xml:space="preserve" font-family="Impact" font-weight="bold" font-size="50.0" fill="#FAFDC3" transform="matrix(1.00, 0.00, -0.00, -1.00, 715.0, 662.0)">E</text><text xml:space="preserve" font-family="Impact" font-weight="bold" font-size="50.0" fill="#FAFDC3" transform="matrix(1.00, 0.00, -0.00, -1.00, 268.0, 306.0)">A</text><text xml:space="preserve" font-family="Impact" font-weight="bold" font-size="50.0" fill="#FAFDC3" transform="matrix(1.00, 0.00, -0.00, -1.00, 293.4, 306.0)">C</text><text xml:space="preserve" font-family="Impact" font-weight="bold" font-size="50.0" fill="#FAFDC3" transform="matrix(1.00, 0.00, -0.00, -1.00, 321.1, 306.0)">E</text><text xml:space="preserve" font-family="Impact" font-weight="bold" font-size="50.0" fill="#FAFDC3" transform="matrix(1.00, 0.00, -0.00, -1.00, 341.1, 306.0)">T</text><text xml:space="preserve" font-family="Impact" font-weight="bold" font-size="50.0" fill="#FAFDC3" transform="matrix(1.00, 0.00, -0.00, -1.00, 364.2, 306.0)">I</text><text xml:space="preserve" font-family="Impact" font-weight="bold" font-size="50.0" fill="#FAFDC3" transform="matrix(1.00, 0.00, -0.00, -1.00, 378.6, 306.0)">L</text><text xml:space="preserve" font-family="Impact" font-weight="bold" font-size="50.0" fill="#FAFDC3" transform="matrix(1.00, 0.00, -0.00, -1.00, 398.9, 306.0)">A</text><text xml:space="preserve" font-family="Impact" font-weight="bold" font-size="50.0" fill="#FAFDC3" transform="matrix(1.00, 0.00, -0.00, -1.00, 424.2, 306.0)">Ç</text><text xml:space="preserve" font-family="Impact" font-weight="bold" font-size="50.0" fill="#FAFDC3" transform="matrix(1.00, 0.00, -0.00, -1.00, 451.9, 306.0)">Ã</text><text xml:space="preserve" font-family="Impact" font-weight="bold" font-size="50.0" fill="#FAFDC3" transform="matrix(1.00, 0.00, -0.00, -1.00, 477.3, 306.0)">O</text><text xml:space="preserve" font-family="Impact" font-weight="bold" font-size="50.0" fill="#FAFDC3" transform="matrix(1.00, 0.00, -0.00, -1.00, 504.7, 306.0)"> </text><text xml:space="preserve" font-family="Impact" font-weight="bold" font-size="50.0" fill="#FAFDC3" transform="matrix(1.00, 0.00, -0.00, -1.00, 513.5, 306.0)">D</text><text xml:space="preserve" font-family="Impact" font-weight="bold" font-size="50.0" fill="#FAFDC3" transform="matrix(1.00, 0.00, -0.00, -1.00, 541.1, 306.0)">A</text><text xml:space="preserve" font-family="Impact" font-weight="bold" font-size="50.0" fill="#FAFDC3" transform="matrix(1.00, 0.00, -0.00, -1.00, 566.5, 306.0)"> </text><text xml:space="preserve" font-family="Impact" font-weight="bold" font-size="50.0" fill="#FAFDC3" transform="matrix(1.00, 0.00, -0.00, -1.00, 575.4, 306.0)">C</text><text xml:space="preserve" font-family="Impact" font-weight="bold" font-size="50.0" fill="#FAFDC3" transform="matrix(1.00, 0.00, -0.00, -1.00, 603.0, 306.0)">E</text><text xml:space="preserve" font-family="Impact" font-weight="bold" font-size="50.0" fill="#FAFDC3" transform="matrix(1.00, 0.00, -0.00, -1.00, 623.8, 306.0)">L</text><text xml:space="preserve" font-family="Impact" font-weight="bold" font-size="50.0" fill="#FAFDC3" transform="matrix(1.00, 0.00, -0.00, -1.00, 642.9, 306.0)">U</text><text xml:space="preserve" font-family="Impact" font-weight="bold" font-size="50.0" fill="#FAFDC3" transform="matrix(1.00, 0.00, -0.00, -1.00, 670.2, 306.0)">L</text><text xml:space="preserve" font-family="Impact" font-weight="bold" font-size="50.0" fill="#FAFDC3" transform="matrix(1.00, 0.00, -0.00, -1.00, 688.5, 306.0)">O</text><text xml:space="preserve" font-family="Impact" font-weight="bold" font-size="50.0" fill="#FAFDC3" transform="matrix(1.00, 0.00, -0.00, -1.00, 715.8, 306.0)">S</text><text xml:space="preserve" font-family="Impact" font-weight="bold" font-size="50.0" fill="#FAFDC3" transform="matrix(1.00, 0.00, -0.00, -1.00, 741.7, 306.0)">E</text><g><clipPath id="clip-928"><path d="M 405.1 546.7 L 510.0 546.7 L 510.0 635.3 L 405.1 635.3 Z M 405.1 546.7 "></path></clipPath><g clip-path="url(#clip-928)"><text xml:space="preserve" font-family="Impact" font-weight="bold" font-size="39.5" fill="#FAFDC3" transform="matrix(1.00, 0.00, -0.00, -1.00, 417.0, 575.0)">b</text><text xml:space="preserve" font-family="Impact" font-weight="bold" font-size="39.5" fill="#FAFDC3" transform="matrix(1.00, 0.00, -0.00, -1.00, 437.5, 575.0)">s</text><text xml:space="preserve" font-family="Impact" font-weight="bold" font-size="39.5" fill="#FAFDC3" transform="matrix(1.00, 0.00, -0.00, -1.00, 456.1, 575.0)">c</text><text xml:space="preserve" font-family="Impact" font-weight="bold" font-size="39.5" fill="#FAFDC3" transform="matrix(1.00, 0.00, -0.00, -1.00, 475.6, 575.0)">B</text></g></g><g><clipPath id="clip-929"><path d="M 41.4 427.8 L 183.3 427.8 L 183.3 548.0 L 41.4 548.0 Z M 41.4 427.8 "></path></clipPath><g clip-path="url(#clip-929)"><image xlink:href="../../F3F7AD45-781C-4B53-ABB8-59D70332B380/assets/53914902E14C489C3E591E0805068C08.png" width="162.00" height="137.00" transform="matrix(0.88, 0.00, -0.00, -0.88, 41.0, 548.0)"></image></g></g><g><clipPath id="clip-930"><path d="M 756.2 435.8 L 898.2 435.8 L 898.2 539.3 L 756.2 539.3 Z M 756.2 435.8 "></path></clipPath><g clip-path="url(#clip-930)"><image xlink:href="../../F3F7AD45-781C-4B53-ABB8-59D70332B380/assets/916EEA7FC5833C0B440A5F04498E5078.png" width="162.00" height="118.00" transform="matrix(0.88, 0.00, -0.00, -0.87, 756.0, 539.0)"></image></g></g><g><clipPath id="clip-931"><path d="M 530.2 445.7 L 577.5 445.7 L 577.5 487.8 L 530.2 487.8 Z M 530.2 445.7 "></path></clipPath><g clip-path="url(#clip-931)"><image xlink:href="../../F3F7AD45-781C-4B53-ABB8-59D70332B380/assets/3649270E128D84AF7EFA57A0B37E3E9C.png" width="54.00" height="48.00" transform="matrix(0.87, 0.00, -0.00, -0.88, 530.0, 488.0)"></image></g></g><g><clipPath id="clip-932"><path d="M 575.0 435.8 L 717.0 435.8 L 717.0 539.3 L 575.0 539.3 Z M 575.0 435.8 "></path></clipPath><g clip-path="url(#clip-932)"><image xlink:href="../../F3F7AD45-781C-4B53-ABB8-59D70332B380/assets/916EEA7FC5833C0B440A5F04498E5078.png" width="162.00" height="118.00" transform="matrix(0.88, 0.00, -0.00, -0.87, 575.0, 539.0)"></image></g></g><g><clipPath id="clip-933"><path d="M 711.1 445.7 L 758.4 445.7 L 758.4 487.8 L 711.1 487.8 Z M 711.1 445.7 "></path></clipPath><g clip-path="url(#clip-933)"><image xlink:href="../../F3F7AD45-781C-4B53-ABB8-59D70332B380/assets/3649270E128D84AF7EFA57A0B37E3E9C.png" width="54.00" height="48.00" transform="matrix(0.87, 0.00, -0.00, -0.88, 711.0, 488.0)"></image></g></g><g><clipPath id="clip-934"><path d="M 396.5 435.8 L 538.5 435.8 L 538.5 539.3 L 396.5 539.3 Z M 396.5 435.8 "></path></clipPath><g clip-path="url(#clip-934)"><image xlink:href="../../F3F7AD45-781C-4B53-ABB8-59D70332B380/assets/916EEA7FC5833C0B440A5F04498E5078.png" width="162.00" height="118.00" transform="matrix(0.88, 0.00, -0.00, -0.87, 397.0, 539.0)"></image></g></g><g><clipPath id="clip-935"><path d="M 168.5 445.7 L 215.8 445.7 L 215.8 487.8 L 168.5 487.8 Z M 168.5 445.7 "></path></clipPath><g clip-path="url(#clip-935)"><image xlink:href="../../F3F7AD45-781C-4B53-ABB8-59D70332B380/assets/3649270E128D84AF7EFA57A0B37E3E9C.png" width="54.00" height="48.00" transform="matrix(0.87, 0.00, -0.00, -0.88, 169.0, 488.0)"></image></g></g><g><clipPath id="clip-936"><path d="M 215.3 435.8 L 357.3 435.8 L 357.3 539.3 L 215.3 539.3 Z M 215.3 435.8 "></path></clipPath><g clip-path="url(#clip-936)"><image xlink:href="../../F3F7AD45-781C-4B53-ABB8-59D70332B380/assets/916EEA7FC5833C0B440A5F04498E5078.png" width="162.00" height="118.00" transform="matrix(0.88, 0.00, -0.00, -0.87, 215.0, 539.0)"></image></g></g><g><clipPath id="clip-937"><path d="M 350.5 445.7 L 397.8 445.7 L 397.8 487.8 L 350.5 487.8 Z M 350.5 445.7 "></path></clipPath><g clip-path="url(#clip-937)"><image xlink:href="../../F3F7AD45-781C-4B53-ABB8-59D70332B380/assets/3649270E128D84AF7EFA57A0B37E3E9C.png" width="54.00" height="48.00" transform="matrix(0.89, 0.00, -0.00, -0.88, 350.0, 488.0)"></image></g></g><g><clipPath id="clip-938"><path d="M 228.3 546.7 L 333.8 546.7 L 333.8 635.3 L 228.3 635.3 Z M 228.3 546.7 "></path></clipPath><g clip-path="url(#clip-938)"><text xml:space="preserve" font-family="Impact" font-weight="bold" font-size="40.5" fill="#FAFDC3" transform="matrix(1.00, 0.00, -0.00, -1.00, 241.0, 574.0)">b</text><text xml:space="preserve" font-family="Impact" font-weight="bold" font-size="40.5" fill="#FAFDC3" transform="matrix(1.00, 0.00, -0.00, -1.00, 262.0, 574.0)">s</text><text xml:space="preserve" font-family="Impact" font-weight="bold" font-size="40.5" fill="#FAFDC3" transform="matrix(1.00, 0.00, -0.00, -1.00, 281.1, 574.0)">c</text><text xml:space="preserve" font-family="Impact" font-weight="bold" font-size="40.5" fill="#FAFDC3" transform="matrix(1.00, 0.00, -0.00, -1.00, 301.1, 574.0)">A</text></g></g><g><clipPath id="clip-939"><path d="M 581.6 546.7 L 686.5 546.7 L 686.5 635.3 L 581.6 635.3 Z M 581.6 546.7 "></path></clipPath><g clip-path="url(#clip-939)"><text xml:space="preserve" font-family="Impact" font-weight="bold" font-size="39.5" fill="#FAFDC3" transform="matrix(1.00, 0.00, -0.00, -1.00, 594.0, 575.0)">b</text><text xml:space="preserve" font-family="Impact" font-weight="bold" font-size="39.5" fill="#FAFDC3" transform="matrix(1.00, 0.00, -0.00, -1.00, 614.5, 575.0)">s</text><text xml:space="preserve" font-family="Impact" font-weight="bold" font-size="39.5" fill="#FAFDC3" transform="matrix(1.00, 0.00, -0.00, -1.00, 633.1, 575.0)">c</text><text xml:space="preserve" font-family="Impact" font-weight="bold" font-size="39.5" fill="#FAFDC3" transform="matrix(1.00, 0.00, -0.00, -1.00, 652.6, 575.0)">C</text></g></g><g><clipPath id="clip-940"><path d="M 762.6 546.7 L 867.5 546.7 L 867.5 635.3 L 762.6 635.3 Z M 762.6 546.7 "></path></clipPath><g clip-path="url(#clip-940)"><text xml:space="preserve" font-family="Impact" font-weight="bold" font-size="39.5" fill="#FAFDC3" transform="matrix(1.00, 0.00, -0.00, -1.00, 775.0, 575.0)">b</text><text xml:space="preserve" font-family="Impact" font-weight="bold" font-size="39.5" fill="#FAFDC3" transform="matrix(1.00, 0.00, -0.00, -1.00, 795.5, 575.0)">s</text><text xml:space="preserve" font-family="Impact" font-weight="bold" font-size="39.5" fill="#FAFDC3" transform="matrix(1.00, 0.00, -0.00, -1.00, 814.1, 575.0)">c</text><text xml:space="preserve" font-family="Impact" font-weight="bold" font-size="39.5" fill="#FAFDC3" transform="matrix(1.00, 0.00, -0.00, -1.00, 833.6, 575.0)">D</text></g></g><g><clipPath id="clip-941"><path d="M 903.1 441.7 L 1012.8 441.7 L 1012.8 530.3 L 903.1 530.3 Z M 903.1 441.7 "></path></clipPath><g clip-path="url(#clip-941)"><image xlink:href="../../F3F7AD45-781C-4B53-ABB8-59D70332B380/assets/9084815B5622973931917B0006A63424.png" width="191.00" height="154.00" transform="matrix(0.58, 0.00, -0.00, -0.57, 903.0, 530.0)"></image></g></g><g><clipPath id="clip-942"><path d="M 929.3 463.6 L 986.7 463.6 L 986.7 514.6 L 929.3 514.6 Z M 929.3 463.6 "></path></clipPath><g clip-path="url(#clip-942)"><text xml:space="preserve" font-family="Impact" font-weight="bold" font-size="23.5" fill="#FAFDC3" transform="matrix(1.00, 0.00, -0.00, -1.00, 936.0, 480.0)">s</text><text xml:space="preserve" font-family="Impact" font-weight="bold" font-size="23.5" fill="#FAFDC3" transform="matrix(1.00, 0.00, -0.00, -1.00, 947.1, 480.0)">t</text><text xml:space="preserve" font-family="Impact" font-weight="bold" font-size="23.5" fill="#FAFDC3" transform="matrix(1.00, 0.00, -0.00, -1.00, 954.2, 480.0)">o</text><text xml:space="preserve" font-family="Impact" font-weight="bold" font-size="23.5" fill="#FAFDC3" transform="matrix(1.00, 0.00, -0.00, -1.00, 966.2, 480.0)">p</text></g></g><g><clipPath id="clip-943"><path d="M 31.7 546.7 L 210.7 546.7 L 210.7 635.3 L 31.7 635.3 Z M 31.7 546.7 "></path></clipPath><g clip-path="url(#clip-943)"><text xml:space="preserve" font-family="Impact" font-weight="bold" font-size="33.5" fill="#FAFDC3" transform="matrix(1.00, 0.00, -0.00, -1.00, 42.0, 577.0)">T</text><text xml:space="preserve" font-family="Impact" font-weight="bold" font-size="33.5" fill="#FAFDC3" transform="matrix(1.00, 0.00, -0.00, -1.00, 57.4, 577.0)">7</text><text xml:space="preserve" font-family="Impact" font-weight="bold" font-size="33.5" fill="#FAFDC3" transform="matrix(1.00, 0.00, -0.00, -1.00, 70.5, 577.0)">p</text><text xml:space="preserve" font-family="Impact" font-weight="bold" font-size="33.5" fill="#FAFDC3" transform="matrix(1.00, 0.00, -0.00, -1.00, 87.9, 577.0)">r</text><text xml:space="preserve" font-family="Impact" font-weight="bold" font-size="33.5" fill="#FAFDC3" transform="matrix(1.00, 0.00, -0.00, -1.00, 99.9, 577.0)">o</text><text xml:space="preserve" font-family="Impact" font-weight="bold" font-size="33.5" fill="#FAFDC3" transform="matrix(1.00, 0.00, -0.00, -1.00, 117.1, 577.0)">m</text><text xml:space="preserve" font-family="Impact" font-weight="bold" font-size="33.5" fill="#FAFDC3" transform="matrix(1.00, 0.00, -0.00, -1.00, 142.9, 577.0)">o</text><text xml:space="preserve" font-family="Impact" font-weight="bold" font-size="33.5" fill="#FAFDC3" transform="matrix(1.00, 0.00, -0.00, -1.00, 160.0, 577.0)">t</text><text xml:space="preserve" font-family="Impact" font-weight="bold" font-size="33.5" fill="#FAFDC3" transform="matrix(1.00, 0.00, -0.00, -1.00, 170.2, 577.0)">o</text><text xml:space="preserve" font-family="Impact" font-weight="bold" font-size="33.5" fill="#FAFDC3" transform="matrix(1.00, 0.00, -0.00, -1.00, 187.3, 577.0)">r</text></g></g><g><clipPath id="clip-944"><path d="M 405.9 196.7 L 509.2 196.7 L 509.2 285.3 L 405.9 285.3 Z M 405.9 196.7 "></path></clipPath><g clip-path="url(#clip-944)"><text xml:space="preserve" font-family="Impact" font-weight="bold" font-size="37.0" fill="#FAFDC3" transform="matrix(1.00, 0.00, -0.00, -1.00, 417.0, 226.0)">w</text><text xml:space="preserve" font-family="Impact" font-weight="bold" font-size="37.0" fill="#FAFDC3" transform="matrix(1.00, 0.00, -0.00, -1.00, 441.8, 226.0)">s</text><text xml:space="preserve" font-family="Impact" font-weight="bold" font-size="37.0" fill="#FAFDC3" transform="matrix(1.00, 0.00, -0.00, -1.00, 459.2, 226.0)">s</text><text xml:space="preserve" font-family="Impact" font-weight="bold" font-size="37.0" fill="#FAFDC3" transform="matrix(1.00, 0.00, -0.00, -1.00, 476.6, 226.0)">G</text></g></g><g><clipPath id="clip-945"><path d="M 41.4 77.8 L 183.3 77.8 L 183.3 198.0 L 41.4 198.0 Z M 41.4 77.8 "></path></clipPath><g clip-path="url(#clip-945)"><image xlink:href="../../F3F7AD45-781C-4B53-ABB8-59D70332B380/assets/53914902E14C489C3E591E0805068C08.png" width="162.00" height="137.00" transform="matrix(0.88, 0.00, -0.00, -0.88, 41.0, 198.0)"></image></g></g><g><clipPath id="clip-946"><path d="M 756.2 85.8 L 898.2 85.8 L 898.2 189.3 L 756.2 189.3 Z M 756.2 85.8 "></path></clipPath><g clip-path="url(#clip-946)"><image xlink:href="../../F3F7AD45-781C-4B53-ABB8-59D70332B380/assets/916EEA7FC5833C0B440A5F04498E5078.png" width="162.00" height="118.00" transform="matrix(0.88, 0.00, -0.00, -0.87, 756.0, 189.0)"></image></g></g><g><clipPath id="clip-947"><path d="M 531.2 88.7 L 578.5 88.7 L 578.5 130.8 L 531.2 130.8 Z M 531.2 88.7 "></path></clipPath><g clip-path="url(#clip-947)"><image xlink:href="../../F3F7AD45-781C-4B53-ABB8-59D70332B380/assets/3649270E128D84AF7EFA57A0B37E3E9C.png" width="54.00" height="48.00" transform="matrix(0.87, 0.00, -0.00, -0.88, 531.0, 131.0)"></image></g></g><g><clipPath id="clip-948"><path d="M 575.0 85.8 L 717.0 85.8 L 717.0 189.3 L 575.0 189.3 Z M 575.0 85.8 "></path></clipPath><g clip-path="url(#clip-948)"><image xlink:href="../../F3F7AD45-781C-4B53-ABB8-59D70332B380/assets/916EEA7FC5833C0B440A5F04498E5078.png" width="162.00" height="118.00" transform="matrix(0.88, 0.00, -0.00, -0.87, 575.0, 189.0)"></image></g></g><g><clipPath id="clip-949"><path d="M 711.1 88.7 L 758.4 88.7 L 758.4 130.8 L 711.1 130.8 Z M 711.1 88.7 "></path></clipPath><g clip-path="url(#clip-949)"><image xlink:href="../../F3F7AD45-781C-4B53-ABB8-59D70332B380/assets/3649270E128D84AF7EFA57A0B37E3E9C.png" width="54.00" height="48.00" transform="matrix(0.87, 0.00, -0.00, -0.88, 711.0, 131.0)"></image></g></g><g><clipPath id="clip-950"><path d="M 396.5 85.8 L 538.5 85.8 L 538.5 189.3 L 396.5 189.3 Z M 396.5 85.8 "></path></clipPath><g clip-path="url(#clip-950)"><image xlink:href="../../F3F7AD45-781C-4B53-ABB8-59D70332B380/assets/916EEA7FC5833C0B440A5F04498E5078.png" width="162.00" height="118.00" transform="matrix(0.88, 0.00, -0.00, -0.87, 397.0, 189.0)"></image></g></g><g><clipPath id="clip-951"><path d="M 171.5 88.7 L 218.8 88.7 L 218.8 130.8 L 171.5 130.8 Z M 171.5 88.7 "></path></clipPath><g clip-path="url(#clip-951)"><image xlink:href="../../F3F7AD45-781C-4B53-ABB8-59D70332B380/assets/3649270E128D84AF7EFA57A0B37E3E9C.png" width="54.00" height="48.00" transform="matrix(0.87, 0.00, -0.00, -0.88, 172.0, 131.0)"></image></g></g><g><clipPath id="clip-952"><path d="M 215.3 85.8 L 357.3 85.8 L 357.3 189.3 L 215.3 189.3 Z M 215.3 85.8 "></path></clipPath><g clip-path="url(#clip-952)"><image xlink:href="../../F3F7AD45-781C-4B53-ABB8-59D70332B380/assets/916EEA7FC5833C0B440A5F04498E5078.png" width="162.00" height="118.00" transform="matrix(0.88, 0.00, -0.00, -0.87, 215.0, 189.0)"></image></g></g><g><clipPath id="clip-953"><path d="M 351.5 88.7 L 398.8 88.7 L 398.8 130.8 L 351.5 130.8 Z M 351.5 88.7 "></path></clipPath><g clip-path="url(#clip-953)"><image xlink:href="../../F3F7AD45-781C-4B53-ABB8-59D70332B380/assets/3649270E128D84AF7EFA57A0B37E3E9C.png" width="54.00" height="48.00" transform="matrix(0.89, 0.00, -0.00, -0.88, 351.0, 131.0)"></image></g></g><g><clipPath id="clip-954"><path d="M 232.4 204.7 L 329.7 204.7 L 329.7 277.3 L 232.4 277.3 Z M 232.4 204.7 "></path></clipPath><g clip-path="url(#clip-954)"><text xml:space="preserve" font-family="Impact" font-weight="bold" font-size="37.0" fill="#FAFDC3" transform="matrix(1.00, 0.00, -0.00, -1.00, 244.0, 226.0)">w</text><text xml:space="preserve" font-family="Impact" font-weight="bold" font-size="37.0" fill="#FAFDC3" transform="matrix(1.00, 0.00, -0.00, -1.00, 268.8, 226.0)">s</text><text xml:space="preserve" font-family="Impact" font-weight="bold" font-size="37.0" fill="#FAFDC3" transform="matrix(1.00, 0.00, -0.00, -1.00, 286.2, 226.0)">s</text><text xml:space="preserve" font-family="Impact" font-weight="bold" font-size="37.0" fill="#FAFDC3" transform="matrix(1.00, 0.00, -0.00, -1.00, 303.6, 226.0)">F</text></g></g><g><clipPath id="clip-955"><path d="M 582.4 196.7 L 685.7 196.7 L 685.7 285.3 L 582.4 285.3 Z M 582.4 196.7 "></path></clipPath><g clip-path="url(#clip-955)"><text xml:space="preserve" font-family="Impact" font-weight="bold" font-size="37.0" fill="#FAFDC3" transform="matrix(1.00, 0.00, -0.00, -1.00, 594.0, 226.0)">w</text><text xml:space="preserve" font-family="Impact" font-weight="bold" font-size="37.0" fill="#FAFDC3" transform="matrix(1.00, 0.00, -0.00, -1.00, 618.8, 226.0)">s</text><text xml:space="preserve" font-family="Impact" font-weight="bold" font-size="37.0" fill="#FAFDC3" transform="matrix(1.00, 0.00, -0.00, -1.00, 636.2, 226.0)">s</text><text xml:space="preserve" font-family="Impact" font-weight="bold" font-size="37.0" fill="#FAFDC3" transform="matrix(1.00, 0.00, -0.00, -1.00, 653.6, 226.0)">H</text></g></g><g><clipPath id="clip-956"><path d="M 762.9 204.7 L 861.5 204.7 L 861.5 277.3 L 762.9 277.3 Z M 762.9 204.7 "></path></clipPath><g clip-path="url(#clip-956)"><text xml:space="preserve" font-family="Impact" font-weight="bold" font-size="39.0" fill="#FAFDC3" transform="matrix(1.00, 0.00, -0.00, -1.00, 775.0, 225.0)">w</text><text xml:space="preserve" font-family="Impact" font-weight="bold" font-size="39.0" fill="#FAFDC3" transform="matrix(1.00, 0.00, -0.00, -1.00, 801.1, 225.0)">s</text><text xml:space="preserve" font-family="Impact" font-weight="bold" font-size="39.0" fill="#FAFDC3" transform="matrix(1.00, 0.00, -0.00, -1.00, 819.5, 225.0)">s</text><text xml:space="preserve" font-family="Impact" font-weight="bold" font-size="39.0" fill="#FAFDC3" transform="matrix(1.00, 0.00, -0.00, -1.00, 837.8, 225.0)">I</text></g></g><g><clipPath id="clip-957"><path d="M 903.1 91.7 L 1012.8 91.7 L 1012.8 180.3 L 903.1 180.3 Z M 903.1 91.7 "></path></clipPath><g clip-path="url(#clip-957)"><image xlink:href="../../F3F7AD45-781C-4B53-ABB8-59D70332B380/assets/9084815B5622973931917B0006A63424.png" width="191.00" height="154.00" transform="matrix(0.58, 0.00, -0.00, -0.57, 903.0, 180.0)"></image></g></g><g><clipPath id="clip-958"><path d="M 929.3 113.6 L 986.7 113.6 L 986.7 164.6 L 929.3 164.6 Z M 929.3 113.6 "></path></clipPath><g clip-path="url(#clip-958)"><text xml:space="preserve" font-family="Impact" font-weight="bold" font-size="23.5" fill="#FAFDC3" transform="matrix(1.00, 0.00, -0.00, -1.00, 936.0, 130.0)">s</text><text xml:space="preserve" font-family="Impact" font-weight="bold" font-size="23.5" fill="#FAFDC3" transform="matrix(1.00, 0.00, -0.00, -1.00, 947.1, 130.0)">t</text><text xml:space="preserve" font-family="Impact" font-weight="bold" font-size="23.5" fill="#FAFDC3" transform="matrix(1.00, 0.00, -0.00, -1.00, 954.2, 130.0)">o</text><text xml:space="preserve" font-family="Impact" font-weight="bold" font-size="23.5" fill="#FAFDC3" transform="matrix(1.00, 0.00, -0.00, -1.00, 966.2, 130.0)">p</text></g></g><g><clipPath id="clip-959"><path d="M 31.7 196.7 L 210.7 196.7 L 210.7 285.3 L 31.7 285.3 Z M 31.7 196.7 "></path></clipPath><g clip-path="url(#clip-959)"><text xml:space="preserve" font-family="Impact" font-weight="bold" font-size="33.5" fill="#FAFDC3" transform="matrix(1.00, 0.00, -0.00, -1.00, 42.0, 227.0)">T</text><text xml:space="preserve" font-family="Impact" font-weight="bold" font-size="33.5" fill="#FAFDC3" transform="matrix(1.00, 0.00, -0.00, -1.00, 57.4, 227.0)">7</text><text xml:space="preserve" font-family="Impact" font-weight="bold" font-size="33.5" fill="#FAFDC3" transform="matrix(1.00, 0.00, -0.00, -1.00, 70.5, 227.0)">p</text><text xml:space="preserve" font-family="Impact" font-weight="bold" font-size="33.5" fill="#FAFDC3" transform="matrix(1.00, 0.00, -0.00, -1.00, 87.9, 227.0)">r</text><text xml:space="preserve" font-family="Impact" font-weight="bold" font-size="33.5" fill="#FAFDC3" transform="matrix(1.00, 0.00, -0.00, -1.00, 99.9, 227.0)">o</text><text xml:space="preserve" font-family="Impact" font-weight="bold" font-size="33.5" fill="#FAFDC3" transform="matrix(1.00, 0.00, -0.00, -1.00, 117.1, 227.0)">m</text><text xml:space="preserve" font-family="Impact" font-weight="bold" font-size="33.5" fill="#FAFDC3" transform="matrix(1.00, 0.00, -0.00, -1.00, 142.9, 227.0)">o</text><text xml:space="preserve" font-family="Impact" font-weight="bold" font-size="33.5" fill="#FAFDC3" transform="matrix(1.00, 0.00, -0.00, -1.00, 160.0, 227.0)">t</text><text xml:space="preserve" font-family="Impact" font-weight="bold" font-size="33.5" fill="#FAFDC3" transform="matrix(1.00, 0.00, -0.00, -1.00, 170.2, 227.0)">o</text><text xml:space="preserve" font-family="Impact" font-weight="bold" font-size="33.5" fill="#FAFDC3" transform="matrix(1.00, 0.00, -0.00, -1.00, 187.3, 227.0)">r</text></g></g></g></svg>