<?xml version="1.0" encoding="UTF-8" standalone="no"?><svg xmlns="http://www.w3.org/2000/svg" xmlns:xlink="http://www.w3.org/1999/xlink" clip-rule="evenodd" stroke-miterlimit="4.00" viewBox="0 0 977 210"><desc>SVG generated by Keynote</desc><defs></defs><g transform="matrix(1.00, 0.00, -0.00, -1.00, 0.0, 210.0)"><g><clipPath id="clip-896"><path d="M 369.1 119.7 L 474.0 119.7 L 474.0 208.3 L 369.1 208.3 Z M 369.1 119.7 "></path></clipPath><g clip-path="url(#clip-896)"><text xml:space="preserve" font-family="Impact" font-weight="bold" font-size="39.5" fill="#FAFDC3" transform="matrix(1.00, 0.00, -0.00, -1.00, 381.0, 148.0)">b</text><text xml:space="preserve" font-family="Impact" font-weight="bold" font-size="39.5" fill="#FAFDC3" transform="matrix(1.00, 0.00, -0.00, -1.00, 401.5, 148.0)">s</text><text xml:space="preserve" font-family="Impact" font-weight="bold" font-size="39.5" fill="#FAFDC3" transform="matrix(1.00, 0.00, -0.00, -1.00, 420.1, 148.0)">c</text><text xml:space="preserve" font-family="Impact" font-weight="bold" font-size="39.5" fill="#FAFDC3" transform="matrix(1.00, 0.00, -0.00, -1.00, 439.6, 148.0)">B</text></g></g><g><clipPath id="clip-897"><path d="M 5.4 0.8 L 147.3 0.8 L 147.3 121.0 L 5.4 121.0 Z M 5.4 0.8 "></path></clipPath><g clip-path="url(#clip-897)"><image xlink:href="../../F3F7AD45-781C-4B53-ABB8-59D70332B380/assets/53914902E14C489C3E591E0805068C08.png" width="162.00" height="137.00" transform="matrix(0.88, 0.00, -0.00, -0.88, 5.0, 121.0)"></image></g></g><g><clipPath id="clip-898"><path d="M 720.2 8.8 L 862.2 8.8 L 862.2 112.3 L 720.2 112.3 Z M 720.2 8.8 "></path></clipPath><g clip-path="url(#clip-898)"><image xlink:href="../../F3F7AD45-781C-4B53-ABB8-59D70332B380/assets/916EEA7FC5833C0B440A5F04498E5078.png" width="162.00" height="118.00" transform="matrix(0.88, 0.00, -0.00, -0.87, 720.0, 112.0)"></image></g></g><g><clipPath id="clip-899"><path d="M 494.2 18.7 L 541.5 18.7 L 541.5 60.8 L 494.2 60.8 Z M 494.2 18.7 "></path></clipPath><g clip-path="url(#clip-899)"><image xlink:href="../../F3F7AD45-781C-4B53-ABB8-59D70332B380/assets/3649270E128D84AF7EFA57A0B37E3E9C.png" width="54.00" height="48.00" transform="matrix(0.87, 0.00, -0.00, -0.88, 494.0, 61.0)"></image></g></g><g><clipPath id="clip-900"><path d="M 539.0 8.8 L 681.0 8.8 L 681.0 112.3 L 539.0 112.3 Z M 539.0 8.8 "></path></clipPath><g clip-path="url(#clip-900)"><image xlink:href="../../F3F7AD45-781C-4B53-ABB8-59D70332B380/assets/916EEA7FC5833C0B440A5F04498E5078.png" width="162.00" height="118.00" transform="matrix(0.88, 0.00, -0.00, -0.87, 539.0, 112.0)"></image></g></g><g><clipPath id="clip-901"><path d="M 675.1 18.7 L 722.4 18.7 L 722.4 60.8 L 675.1 60.8 Z M 675.1 18.7 "></path></clipPath><g clip-path="url(#clip-901)"><image xlink:href="../../F3F7AD45-781C-4B53-ABB8-59D70332B380/assets/3649270E128D84AF7EFA57A0B37E3E9C.png" width="54.00" height="48.00" transform="matrix(0.87, 0.00, -0.00, -0.88, 675.0, 61.0)"></image></g></g><g><clipPath id="clip-902"><path d="M 360.5 8.8 L 502.5 8.8 L 502.5 112.3 L 360.5 112.3 Z M 360.5 8.8 "></path></clipPath><g clip-path="url(#clip-902)"><image xlink:href="../../F3F7AD45-781C-4B53-ABB8-59D70332B380/assets/916EEA7FC5833C0B440A5F04498E5078.png" width="162.00" height="118.00" transform="matrix(0.88, 0.00, -0.00, -0.87, 361.0, 112.0)"></image></g></g><g><clipPath id="clip-903"><path d="M 132.5 18.7 L 179.8 18.7 L 179.8 60.8 L 132.5 60.8 Z M 132.5 18.7 "></path></clipPath><g clip-path="url(#clip-903)"><image xlink:href="../../F3F7AD45-781C-4B53-ABB8-59D70332B380/assets/3649270E128D84AF7EFA57A0B37E3E9C.png" width="54.00" height="48.00" transform="matrix(0.87, 0.00, -0.00, -0.88, 133.0, 61.0)"></image></g></g><g><clipPath id="clip-904"><path d="M 179.3 8.8 L 321.3 8.8 L 321.3 112.3 L 179.3 112.3 Z M 179.3 8.8 "></path></clipPath><g clip-path="url(#clip-904)"><image xlink:href="../../F3F7AD45-781C-4B53-ABB8-59D70332B380/assets/916EEA7FC5833C0B440A5F04498E5078.png" width="162.00" height="118.00" transform="matrix(0.88, 0.00, -0.00, -0.87, 179.0, 112.0)"></image></g></g><g><clipPath id="clip-905"><path d="M 314.5 18.7 L 361.8 18.7 L 361.8 60.8 L 314.5 60.8 Z M 314.5 18.7 "></path></clipPath><g clip-path="url(#clip-905)"><image xlink:href="../../F3F7AD45-781C-4B53-ABB8-59D70332B380/assets/3649270E128D84AF7EFA57A0B37E3E9C.png" width="54.00" height="48.00" transform="matrix(0.89, 0.00, -0.00, -0.88, 314.0, 61.0)"></image></g></g><g><clipPath id="clip-906"><path d="M 192.3 119.7 L 297.8 119.7 L 297.8 208.3 L 192.3 208.3 Z M 192.3 119.7 "></path></clipPath><g clip-path="url(#clip-906)"><text xml:space="preserve" font-family="Impact" font-weight="bold" font-size="40.5" fill="#FAFDC3" transform="matrix(1.00, 0.00, -0.00, -1.00, 205.0, 147.0)">b</text><text xml:space="preserve" font-family="Impact" font-weight="bold" font-size="40.5" fill="#FAFDC3" transform="matrix(1.00, 0.00, -0.00, -1.00, 226.0, 147.0)">s</text><text xml:space="preserve" font-family="Impact" font-weight="bold" font-size="40.5" fill="#FAFDC3" transform="matrix(1.00, 0.00, -0.00, -1.00, 245.1, 147.0)">c</text><text xml:space="preserve" font-family="Impact" font-weight="bold" font-size="40.5" fill="#FAFDC3" transform="matrix(1.00, 0.00, -0.00, -1.00, 265.1, 147.0)">A</text></g></g><g><clipPath id="clip-907"><path d="M 545.6 119.7 L 650.5 119.7 L 650.5 208.3 L 545.6 208.3 Z M 545.6 119.7 "></path></clipPath><g clip-path="url(#clip-907)"><text xml:space="preserve" font-family="Impact" font-weight="bold" font-size="39.5" fill="#FAFDC3" transform="matrix(1.00, 0.00, -0.00, -1.00, 558.0, 148.0)">b</text><text xml:space="preserve" font-family="Impact" font-weight="bold" font-size="39.5" fill="#FAFDC3" transform="matrix(1.00, 0.00, -0.00, -1.00, 578.5, 148.0)">s</text><text xml:space="preserve" font-family="Impact" font-weight="bold" font-size="39.5" fill="#FAFDC3" transform="matrix(1.00, 0.00, -0.00, -1.00, 597.1, 148.0)">c</text><text xml:space="preserve" font-family="Impact" font-weight="bold" font-size="39.5" fill="#FAFDC3" transform="matrix(1.00, 0.00, -0.00, -1.00, 616.6, 148.0)">C</text></g></g><g><clipPath id="clip-908"><path d="M 726.6 119.7 L 831.5 119.7 L 831.5 208.3 L 726.6 208.3 Z M 726.6 119.7 "></path></clipPath><g clip-path="url(#clip-908)"><text xml:space="preserve" font-family="Impact" font-weight="bold" font-size="39.5" fill="#FAFDC3" transform="matrix(1.00, 0.00, -0.00, -1.00, 739.0, 148.0)">b</text><text xml:space="preserve" font-family="Impact" font-weight="bold" font-size="39.5" fill="#FAFDC3" transform="matrix(1.00, 0.00, -0.00, -1.00, 759.5, 148.0)">s</text><text xml:space="preserve" font-family="Impact" font-weight="bold" font-size="39.5" fill="#FAFDC3" transform="matrix(1.00, 0.00, -0.00, -1.00, 778.1, 148.0)">c</text><text xml:space="preserve" font-family="Impact" font-weight="bold" font-size="39.5" fill="#FAFDC3" transform="matrix(1.00, 0.00, -0.00, -1.00, 797.6, 148.0)">D</text></g></g><g><clipPath id="clip-909"><path d="M 867.1 14.7 L 976.8 14.7 L 976.8 103.3 L 867.1 103.3 Z M 867.1 14.7 "></path></clipPath><g clip-path="url(#clip-909)"><image xlink:href="../../F3F7AD45-781C-4B53-ABB8-59D70332B380/assets/9084815B5622973931917B0006A63424.png" width="191.00" height="154.00" transform="matrix(0.58, 0.00, -0.00, -0.57, 867.0, 103.0)"></image></g></g><g><clipPath id="clip-910"><path d="M 893.3 36.6 L 950.7 36.6 L 950.7 87.6 L 893.3 87.6 Z M 893.3 36.6 "></path></clipPath><g clip-path="url(#clip-910)"><text xml:space="preserve" font-family="Impact" font-weight="bold" font-size="23.5" fill="#FAFDC3" transform="matrix(1.00, 0.00, -0.00, -1.00, 900.0, 53.0)">s</text><text xml:space="preserve" font-family="Impact" font-weight="bold" font-size="23.5" fill="#FAFDC3" transform="matrix(1.00, 0.00, -0.00, -1.00, 911.1, 53.0)">t</text><text xml:space="preserve" font-family="Impact" font-weight="bold" font-size="23.5" fill="#FAFDC3" transform="matrix(1.00, 0.00, -0.00, -1.00, 918.2, 53.0)">o</text><text xml:space="preserve" font-family="Impact" font-weight="bold" font-size="23.5" fill="#FAFDC3" transform="matrix(1.00, 0.00, -0.00, -1.00, 930.2, 53.0)">p</text></g></g><g><clipPath id="clip-911"><path d="M -4.3 119.7 L 174.7 119.7 L 174.7 208.3 L -4.3 208.3 Z M -4.3 119.7 "></path></clipPath><g clip-path="url(#clip-911)"><text xml:space="preserve" font-family="Impact" font-weight="bold" font-size="33.5" fill="#FAFDC3" transform="matrix(1.00, 0.00, -0.00, -1.00, 6.0, 150.0)">T</text><text xml:space="preserve" font-family="Impact" font-weight="bold" font-size="33.5" fill="#FAFDC3" transform="matrix(1.00, 0.00, -0.00, -1.00, 21.4, 150.0)">7</text><text xml:space="preserve" font-family="Impact" font-weight="bold" font-size="33.5" fill="#FAFDC3" transform="matrix(1.00, 0.00, -0.00, -1.00, 34.5, 150.0)">p</text><text xml:space="preserve" font-family="Impact" font-weight="bold" font-size="33.5" fill="#FAFDC3" transform="matrix(1.00, 0.00, -0.00, -1.00, 51.9, 150.0)">r</text><text xml:space="preserve" font-family="Impact" font-weight="bold" font-size="33.5" fill="#FAFDC3" transform="matrix(1.00, 0.00, -0.00, -1.00, 63.9, 150.0)">o</text><text xml:space="preserve" font-family="Impact" font-weight="bold" font-size="33.5" fill="#FAFDC3" transform="matrix(1.00, 0.00, -0.00, -1.00, 81.1, 150.0)">m</text><text xml:space="preserve" font-family="Impact" font-weight="bold" font-size="33.5" fill="#FAFDC3" transform="matrix(1.00, 0.00, -0.00, -1.00, 106.9, 150.0)">o</text><text xml:space="preserve" font-family="Impact" font-weight="bold" font-size="33.5" fill="#FAFDC3" transform="matrix(1.00, 0.00, -0.00, -1.00, 124.0, 150.0)">t</text><text xml:space="preserve" font-family="Impact" font-weight="bold" font-size="33.5" fill="#FAFDC3" transform="matrix(1.00, 0.00, -0.00, -1.00, 134.2, 150.0)">o</text><text xml:space="preserve" font-family="Impact" font-weight="bold" font-size="33.5" fill="#FAFDC3" transform="matrix(1.00, 0.00, -0.00, -1.00, 151.3, 150.0)">r</text></g></g></g></svg>