<?xml version="1.0" encoding="UTF-8" standalone="no"?><svg xmlns="http://www.w3.org/2000/svg" xmlns:xlink="http://www.w3.org/1999/xlink" clip-rule="evenodd" stroke-miterlimit="4.00" viewBox="0 0 407 267"><desc>SVG generated by Keynote</desc><defs><linearGradient id="gradSh1.1" x1="0.0" y1="0.0" x2="100.0" y2="0.0" gradientUnits="userSpaceOnUse" gradientTransform="matrix(0.00, -1.44, -1.43, 0.00, 226.1, 265.8)"><stop offset="0.00000" stop-color="#FBFBFB"></stop><stop offset="0.01466" stop-color="#FAFAFA"></stop><stop offset="1.00000" stop-color="#BEBEBE"></stop></linearGradient><linearGradient id="gradSh1.2" x1="0.0" y1="0.0" x2="100.0" y2="0.0" gradientUnits="userSpaceOnUse" gradientTransform="matrix(0.00, -1.22, -1.19, 0.00, 344.1, 244.4)"><stop offset="0.00000" stop-color="#FBFBFB"></stop><stop offset="0.01466" stop-color="#FAFAFA"></stop><stop offset="1.00000" stop-color="#BEBEBE"></stop></linearGradient><linearGradient id="gradSh1.3" x1="0.0" y1="0.0" x2="100.0" y2="0.0" gradientUnits="userSpaceOnUse" gradientTransform="matrix(0.00, -1.44, -1.43, 0.00, 285.4, 149.0)"><stop offset="0.00000" stop-color="#FBFBFB"></stop><stop offset="0.01466" stop-color="#FAFAFA"></stop><stop offset="1.00000" stop-color="#BEBEBE"></stop></linearGradient></defs><g transform="matrix(1.00, 0.00, -0.00, -1.00, 0.0, 267.0)"><g><clipPath id="clip-1068"><path d="M 151.4 117.2 L 300.8 117.2 L 300.8 266.8 L 151.4 266.8 Z M 151.4 117.2 "></path></clipPath><g clip-path="url(#clip-1068)"><image xlink:href="20DDA8DE41CABB84C08E4571DD8AB7D8.png" width="147.00" height="148.00" transform="matrix(1.00, 0.00, -0.00, -1.00, 152.4, 265.8)" opacity="0.50"></image></g></g><g><clipPath id="clip-1069"><path d="M 276.1 244.1 C 303.6 216.4 303.6 171.6 276.1 144.0 C 248.5 116.3 203.7 116.3 176.1 144.0 C 148.5 171.6 148.5 216.4 176.1 244.1 C 203.7 271.7 248.5 271.7 276.1 244.1 Z M 276.1 244.1 "></path></clipPath><g clip-path="url(#clip-1069)"><g><clipPath id="clip-1070"><path d="M 151.4 117.2 L 300.8 117.2 L 300.8 266.8 L 151.4 266.8 Z M 151.4 117.2 "></path></clipPath><g clip-path="url(#clip-1070)"><path d="M 151.4 117.2 L 300.8 117.2 L 300.8 266.8 L 151.4 266.8 Z M 151.4 117.2 " fill="url(#gradSh1.1)"></path></g></g></g></g><g><clipPath id="clip-1071"><path d="M 153.8 123.2 L 298.3 123.2 L 298.3 264.8 L 153.8 264.8 Z M 153.8 123.2 "></path></clipPath><g clip-path="url(#clip-1071)"><text xml:space="preserve" font-family="Impact" font-weight="bold" font-size="24.0" fill="#802438" transform="matrix(1.00, 0.00, -0.00, -1.00, 186.0, 213.0)">P</text><text xml:space="preserve" font-family="Impact" font-weight="bold" font-size="24.0" fill="#802438" transform="matrix(1.00, 0.00, -0.00, -1.00, 198.0, 213.0)">e</text><text xml:space="preserve" font-family="Impact" font-weight="bold" font-size="24.0" fill="#802438" transform="matrix(1.00, 0.00, -0.00, -1.00, 210.3, 213.0)">n</text><text xml:space="preserve" font-family="Impact" font-weight="bold" font-size="24.0" fill="#802438" transform="matrix(1.00, 0.00, -0.00, -1.00, 222.9, 213.0)">t</text><text xml:space="preserve" font-family="Impact" font-weight="bold" font-size="24.0" fill="#802438" transform="matrix(1.00, 0.00, -0.00, -1.00, 230.2, 213.0)">o</text><text xml:space="preserve" font-family="Impact" font-weight="bold" font-size="24.0" fill="#802438" transform="matrix(1.00, 0.00, -0.00, -1.00, 242.4, 213.0)">s</text><text xml:space="preserve" font-family="Impact" font-weight="bold" font-size="24.0" fill="#802438" transform="matrix(1.00, 0.00, -0.00, -1.00, 253.7, 213.0)">e</text><text xml:space="preserve" font-family="Impact" font-weight="bold" font-size="24.0" fill="#802438" transform="matrix(1.00, 0.00, -0.00, -1.00, 266.0, 213.0)"> </text><text xml:space="preserve" font-family="Impact" font-weight="bold" font-size="24.0" fill="#802438" transform="matrix(1.00, 0.00, -0.00, -1.00, 168.0, 184.0)">P</text><text xml:space="preserve" font-family="Impact" font-weight="bold" font-size="24.0" fill="#802438" transform="matrix(1.00, 0.00, -0.00, -1.00, 180.0, 184.0)">h</text><text xml:space="preserve" font-family="Impact" font-weight="bold" font-size="24.0" fill="#802438" transform="matrix(1.00, 0.00, -0.00, -1.00, 192.6, 184.0)">o</text><text xml:space="preserve" font-family="Impact" font-weight="bold" font-size="24.0" fill="#802438" transform="matrix(1.00, 0.00, -0.00, -1.00, 204.9, 184.0)">s</text><text xml:space="preserve" font-family="Impact" font-weight="bold" font-size="24.0" fill="#802438" transform="matrix(1.00, 0.00, -0.00, -1.00, 216.2, 184.0)">p</text><text xml:space="preserve" font-family="Impact" font-weight="bold" font-size="24.0" fill="#802438" transform="matrix(1.00, 0.00, -0.00, -1.00, 228.6, 184.0)">h</text><text xml:space="preserve" font-family="Impact" font-weight="bold" font-size="24.0" fill="#802438" transform="matrix(1.00, 0.00, -0.00, -1.00, 241.2, 184.0)">a</text><text xml:space="preserve" font-family="Impact" font-weight="bold" font-size="24.0" fill="#802438" transform="matrix(1.00, 0.00, -0.00, -1.00, 253.3, 184.0)">s</text><text xml:space="preserve" font-family="Impact" font-weight="bold" font-size="24.0" fill="#802438" transform="matrix(1.00, 0.00, -0.00, -1.00, 264.6, 184.0)">t</text><text xml:space="preserve" font-family="Impact" font-weight="bold" font-size="24.0" fill="#802438" transform="matrix(1.00, 0.00, -0.00, -1.00, 271.9, 184.0)">e</text><text xml:space="preserve" font-family="Impact" font-weight="bold" font-size="24.0" fill="#802438" transform="matrix(1.00, 0.00, -0.00, -1.00, 284.2, 184.0)"> </text><text xml:space="preserve" font-family="Impact" font-weight="bold" font-size="24.0" fill="#802438" transform="matrix(1.00, 0.00, -0.00, -1.00, 199.0, 155.0)">C</text><text xml:space="preserve" font-family="Impact" font-weight="bold" font-size="24.0" fill="#802438" transform="matrix(1.00, 0.00, -0.00, -1.00, 212.3, 155.0)">y</text><text xml:space="preserve" font-family="Impact" font-weight="bold" font-size="24.0" fill="#802438" transform="matrix(1.00, 0.00, -0.00, -1.00, 223.1, 155.0)">c</text><text xml:space="preserve" font-family="Impact" font-weight="bold" font-size="24.0" fill="#802438" transform="matrix(1.00, 0.00, -0.00, -1.00, 234.9, 155.0)">l</text><text xml:space="preserve" font-family="Impact" font-weight="bold" font-size="24.0" fill="#802438" transform="matrix(1.00, 0.00, -0.00, -1.00, 241.5, 155.0)">e</text></g></g><g><clipPath id="clip-1072"><path d="M 281.4 117.2 L 406.9 117.2 L 406.9 245.4 L 281.4 245.4 Z M 281.4 117.2 "></path></clipPath><g clip-path="url(#clip-1072)"><image xlink:href="8393123E44226841F5AC4E9000973654.png" width="123.00" height="126.00" transform="matrix(1.00, 0.00, -0.00, -1.00, 282.4, 244.4)" opacity="0.50"></image></g></g><g><clipPath id="clip-1073"><path d="M 385.7 225.8 C 408.6 202.3 408.6 164.3 385.7 140.8 C 362.7 117.4 325.5 117.4 302.6 140.8 C 279.7 164.3 279.7 202.3 302.6 225.8 C 325.5 249.3 362.7 249.3 385.7 225.8 Z M 385.7 225.8 "></path></clipPath><g clip-path="url(#clip-1073)"><g><clipPath id="clip-1074"><path d="M 281.4 117.2 L 406.9 117.2 L 406.9 245.4 L 281.4 245.4 Z M 281.4 117.2 "></path></clipPath><g clip-path="url(#clip-1074)"><path d="M 281.4 117.2 L 406.9 117.2 L 406.9 245.4 L 281.4 245.4 Z M 281.4 117.2 " fill="url(#gradSh1.2)"></path></g></g></g></g><g><clipPath id="clip-1075"><path d="M 285.4 123.2 L 402.9 123.2 L 402.9 243.4 L 285.4 243.4 Z M 285.4 123.2 "></path></clipPath><g clip-path="url(#clip-1075)"><text xml:space="preserve" font-family="Impact" font-weight="bold" font-size="24.0" fill="#802438" transform="matrix(1.00, 0.00, -0.00, -1.00, 315.0, 189.0)">K</text><text xml:space="preserve" font-family="Impact" font-weight="bold" font-size="24.0" fill="#802438" transform="matrix(1.00, 0.00, -0.00, -1.00, 327.9, 189.0)">r</text><text xml:space="preserve" font-family="Impact" font-weight="bold" font-size="24.0" fill="#802438" transform="matrix(1.00, 0.00, -0.00, -1.00, 336.4, 189.0)">e</text><text xml:space="preserve" font-family="Impact" font-weight="bold" font-size="24.0" fill="#802438" transform="matrix(1.00, 0.00, -0.00, -1.00, 348.7, 189.0)">b</text><text xml:space="preserve" font-family="Impact" font-weight="bold" font-size="24.0" fill="#802438" transform="matrix(1.00, 0.00, -0.00, -1.00, 361.2, 189.0)">s</text><text xml:space="preserve" font-family="Impact" font-weight="bold" font-size="24.0" fill="#802438" transform="matrix(1.00, 0.00, -0.00, -1.00, 372.5, 189.0)"> </text><text xml:space="preserve" font-family="Impact" font-weight="bold" font-size="24.0" fill="#802438" transform="matrix(1.00, 0.00, -0.00, -1.00, 317.0, 160.0)">C</text><text xml:space="preserve" font-family="Impact" font-weight="bold" font-size="24.0" fill="#802438" transform="matrix(1.00, 0.00, -0.00, -1.00, 330.3, 160.0)">y</text><text xml:space="preserve" font-family="Impact" font-weight="bold" font-size="24.0" fill="#802438" transform="matrix(1.00, 0.00, -0.00, -1.00, 341.1, 160.0)">c</text><text xml:space="preserve" font-family="Impact" font-weight="bold" font-size="24.0" fill="#802438" transform="matrix(1.00, 0.00, -0.00, -1.00, 352.9, 160.0)">l</text><text xml:space="preserve" font-family="Impact" font-weight="bold" font-size="24.0" fill="#802438" transform="matrix(1.00, 0.00, -0.00, -1.00, 359.5, 160.0)">e</text></g></g><g><clipPath id="clip-1076"><path d="M 210.7 0.4 L 360.1 0.4 L 360.1 150.0 L 210.7 150.0 Z M 210.7 0.4 "></path></clipPath><g clip-path="url(#clip-1076)"><image xlink:href="../../C3E9A7EE-0470-440C-8611-BEA4B093CC0E/assets/20DDA8DE41CABB84C08E4571DD8AB7D8.png" width="147.00" height="148.00" transform="matrix(1.00, 0.00, -0.00, -1.00, 211.7, 149.0)" opacity="0.50"></image></g></g><g><clipPath id="clip-1077"><path d="M 335.4 127.3 C 363.0 99.6 363.0 54.8 335.4 27.1 C 307.8 -0.5 263.0 -0.5 235.4 27.1 C 207.8 54.8 207.8 99.6 235.4 127.3 C 263.0 154.9 307.8 154.9 335.4 127.3 Z M 335.4 127.3 "></path></clipPath><g clip-path="url(#clip-1077)"><g><clipPath id="clip-1078"><path d="M 210.7 0.4 L 360.1 0.4 L 360.1 150.0 L 210.7 150.0 Z M 210.7 0.4 "></path></clipPath><g clip-path="url(#clip-1078)"><path d="M 210.7 0.4 L 360.1 0.4 L 360.1 150.0 L 210.7 150.0 Z M 210.7 0.4 " fill="url(#gradSh1.3)"></path></g></g></g></g><g><clipPath id="clip-1079"><path d="M 214.7 6.4 L 356.1 6.4 L 356.1 148.0 L 214.7 148.0 Z M 214.7 6.4 "></path></clipPath><g clip-path="url(#clip-1079)"><text xml:space="preserve" font-family="Impact" font-weight="bold" font-size="24.0" fill="#802438" transform="matrix(1.00, 0.00, -0.00, -1.00, 239.0, 82.0)">G</text><text xml:space="preserve" font-family="Impact" font-weight="bold" font-size="24.0" fill="#802438" transform="matrix(1.00, 0.00, -0.00, -1.00, 252.2, 82.0)">l</text><text xml:space="preserve" font-family="Impact" font-weight="bold" font-size="24.0" fill="#802438" transform="matrix(1.00, 0.00, -0.00, -1.00, 258.8, 82.0)">u</text><text xml:space="preserve" font-family="Impact" font-weight="bold" font-size="24.0" fill="#802438" transform="matrix(1.00, 0.00, -0.00, -1.00, 271.4, 82.0)">c</text><text xml:space="preserve" font-family="Impact" font-weight="bold" font-size="24.0" fill="#802438" transform="matrix(1.00, 0.00, -0.00, -1.00, 283.2, 82.0)">o</text><text xml:space="preserve" font-family="Impact" font-weight="bold" font-size="24.0" fill="#802438" transform="matrix(1.00, 0.00, -0.00, -1.00, 295.5, 82.0)">n</text><text xml:space="preserve" font-family="Impact" font-weight="bold" font-size="24.0" fill="#802438" transform="matrix(1.00, 0.00, -0.00, -1.00, 308.1, 82.0)">e</text><text xml:space="preserve" font-family="Impact" font-weight="bold" font-size="24.0" fill="#802438" transform="matrix(1.00, 0.00, -0.00, -1.00, 320.3, 82.0)">o</text><text xml:space="preserve" font-family="Impact" font-weight="bold" font-size="24.0" fill="#802438" transform="matrix(1.00, 0.00, -0.00, -1.00, 332.6, 82.0)"> </text><text xml:space="preserve" font-family="Impact" font-weight="bold" font-size="24.0" fill="#802438" transform="matrix(1.00, 0.00, -0.00, -1.00, 246.0, 53.0)">G</text><text xml:space="preserve" font-family="Impact" font-weight="bold" font-size="24.0" fill="#802438" transform="matrix(1.00, 0.00, -0.00, -1.00, 259.2, 53.0)">e</text><text xml:space="preserve" font-family="Impact" font-weight="bold" font-size="24.0" fill="#802438" transform="matrix(1.00, 0.00, -0.00, -1.00, 271.5, 53.0)">n</text><text xml:space="preserve" font-family="Impact" font-weight="bold" font-size="24.0" fill="#802438" transform="matrix(1.00, 0.00, -0.00, -1.00, 284.1, 53.0)">e</text><text xml:space="preserve" font-family="Impact" font-weight="bold" font-size="24.0" fill="#802438" transform="matrix(1.00, 0.00, -0.00, -1.00, 296.3, 53.0)">s</text><text xml:space="preserve" font-family="Impact" font-weight="bold" font-size="24.0" fill="#802438" transform="matrix(1.00, 0.00, -0.00, -1.00, 307.6, 53.0)">i</text><text xml:space="preserve" font-family="Impact" font-weight="bold" font-size="24.0" fill="#802438" transform="matrix(1.00, 0.00, -0.00, -1.00, 314.2, 53.0)">s</text></g></g><g><clipPath id="clip-1080"><path d="M 154.9 134.7 L 13.4 197.6 L 18.1 208.2 L 159.6 145.3 Z M 154.9 134.7 "></path></clipPath><g clip-path="url(#clip-1080)"><path d="M 0.0 0.0 L 143.3 0.0 L 144.3 0.0 " fill="none" stroke="#85878C" stroke-width="2.00" transform="matrix(-0.91, 0.41, 0.41, 0.91, 156.3, 140.4)"></path><path d="M 27.3 203.0 L 16.6 202.5 L 23.4 194.2 Z M 27.3 203.0 " fill="#85878C"></path></g></g><g><clipPath id="clip-1081"><path d="M 157.0 122.1 L 4.4 68.7 L 0.5 79.6 L 153.2 133.1 Z M 157.0 122.1 "></path></clipPath><g clip-path="url(#clip-1081)"><path d="M 0.0 0.0 L 150.1 0.0 L 151.1 0.0 " fill="none" stroke="#85878C" stroke-width="2.00" transform="matrix(-0.94, -0.33, -0.33, 0.94, 154.2, 127.3)"></path><path d="M 10.9 82.2 L 3.4 74.5 L 14.0 73.1 Z M 10.9 82.2 " fill="#85878C"></path></g></g></g></svg>