<?xml version="1.0" encoding="UTF-8" standalone="no"?><svg xmlns="http://www.w3.org/2000/svg" xmlns:xlink="http://www.w3.org/1999/xlink" clip-rule="evenodd" stroke-miterlimit="4.00" viewBox="0 0 446 307"><desc>SVG generated by Keynote</desc><defs></defs><g transform="matrix(1.00, 0.00, -0.00, -1.00, 0.0, 307.0)"><g><clipPath id="clip-1051"><path d="M 8.2 136.3 L 139.3 136.3 L 139.3 200.9 L 8.2 200.9 Z M 8.2 136.3 "></path></clipPath><g clip-path="url(#clip-1051)"><text xml:space="preserve" font-family="Impact" font-weight="bold" font-size="35.5" fill="#FAFDC3" transform="matrix(1.00, 0.00, -0.00, -1.00, 19.0, 155.0)">F</text><text xml:space="preserve" font-family="Impact" font-weight="bold" font-size="35.5" fill="#FAFDC3" transform="matrix(1.00, 0.00, -0.00, -1.00, 33.1, 155.0)">r</text><text xml:space="preserve" font-family="Impact" font-weight="bold" font-size="35.5" fill="#FAFDC3" transform="matrix(1.00, 0.00, -0.00, -1.00, 45.8, 155.0)">u</text><text xml:space="preserve" font-family="Impact" font-weight="bold" font-size="35.5" fill="#FAFDC3" transform="matrix(1.00, 0.00, -0.00, -1.00, 64.4, 155.0)">t</text><text xml:space="preserve" font-family="Impact" font-weight="bold" font-size="35.5" fill="#FAFDC3" transform="matrix(1.00, 0.00, -0.00, -1.00, 75.2, 155.0)">o</text><text xml:space="preserve" font-family="Impact" font-weight="bold" font-size="35.5" fill="#FAFDC3" transform="matrix(1.00, 0.00, -0.00, -1.00, 93.4, 155.0)">s</text><text xml:space="preserve" font-family="Impact" font-weight="bold" font-size="35.5" fill="#FAFDC3" transform="matrix(1.00, 0.00, -0.00, -1.00, 110.1, 155.0)">e</text></g></g><g><clipPath id="clip-1052"><path d="M 299.4 130.8 L 410.4 130.8 L 410.4 202.1 L 299.4 202.1 Z M 299.4 130.8 "></path></clipPath><g clip-path="url(#clip-1052)"><image xlink:href="../../C3E9A7EE-0470-440C-8611-BEA4B093CC0E/assets/80568C12A87419A65BA77F64E3DCEAAA.png" width="109.00" height="69.00" transform="matrix(1.00, 0.00, -0.00, -1.00, 300.4, 201.1)" opacity="0.50"></image><path d="M 303.4 200.1 L 406.4 200.1 L 406.4 136.8 L 303.4 136.8 Z M 303.4 200.1 " fill="#52575F"></path></g></g><g><clipPath id="clip-1053"><path d="M 300.1 136.8 L 409.8 136.8 L 409.8 200.1 L 300.1 200.1 Z M 300.1 136.8 "></path></clipPath><g clip-path="url(#clip-1053)"><text xml:space="preserve" font-family="Impact" font-weight="bold" font-size="24.0" fill="#802438" transform="matrix(1.00, 0.00, -0.00, -1.00, 320.0, 159.0)">F</text><text xml:space="preserve" font-family="Impact" font-weight="bold" font-size="24.0" fill="#802438" transform="matrix(1.00, 0.00, -0.00, -1.00, 329.5, 159.0)">r</text><text xml:space="preserve" font-family="Impact" font-weight="bold" font-size="24.0" fill="#802438" transform="matrix(1.00, 0.00, -0.00, -1.00, 338.1, 159.0)">u</text><text xml:space="preserve" font-family="Impact" font-weight="bold" font-size="24.0" fill="#802438" transform="matrix(1.00, 0.00, -0.00, -1.00, 350.7, 159.0)">-</text><text xml:space="preserve" font-family="Impact" font-weight="bold" font-size="24.0" fill="#802438" transform="matrix(1.00, 0.00, -0.00, -1.00, 357.8, 159.0)">6</text><text xml:space="preserve" font-family="Impact" font-weight="bold" font-size="24.0" fill="#802438" transform="matrix(1.00, 0.00, -0.00, -1.00, 370.8, 159.0)">-</text><text xml:space="preserve" font-family="Impact" font-weight="bold" font-size="24.0" fill="#802438" transform="matrix(1.00, 0.00, -0.00, -1.00, 377.9, 159.0)">P</text></g></g><g><clipPath id="clip-1054"><path d="M 368.3 306.2 L 368.3 209.6 L 341.6 209.6 L 341.6 306.2 Z M 368.3 306.2 "></path></clipPath><g clip-path="url(#clip-1054)"><path d="M 17.1 0.0 L 19.6 0.0 L 75.0 0.0 L 77.5 0.0 " fill="none" stroke="#85878C" stroke-width="5.00" transform="matrix(0.00, -1.00, -1.00, 0.00, 354.9, 305.2)"></path><path d="M 0.0 0.0 L 3.0 5.0 L 6.0 0.0 M 3.0 0.0 L 3.0 5.0 " fill="none" stroke="#85878C" stroke-width="1.47" stroke-miterlimit="10.00" stroke-linejoin="round" transform="matrix(3.40, 0.00, 0.00, -3.40, 344.7, 230.1)"></path><path d="M 0.0 0.0 L 3.0 5.0 L 6.0 0.0 M 3.0 0.0 L 3.0 5.0 " fill="none" stroke="#85878C" stroke-width="1.47" stroke-miterlimit="10.00" stroke-linejoin="round" transform="matrix(-3.40, 0.00, 0.00, 3.40, 365.1, 285.6)"></path></g></g><g><clipPath id="clip-1055"><path d="M 137.8 162.7 L 306.3 162.7 L 306.3 174.3 L 137.8 174.3 Z M 137.8 162.7 "></path></clipPath><g clip-path="url(#clip-1055)"><path d="M 0.0 0.0 L 157.0 0.0 L 158.0 0.0 " fill="none" stroke="#85878C" stroke-width="2.00" transform="matrix(1.00, 0.00, 0.00, -1.00, 138.8, 168.5)"></path><path d="M 295.7 163.7 L 305.3 168.5 L 295.7 173.3 Z M 295.7 163.7 " fill="#85878C"></path></g></g><g><clipPath id="clip-1056"><path d="M 193.9 172.1 L 250.2 172.1 L 250.2 227.7 L 193.9 227.7 Z M 193.9 172.1 "></path></clipPath><g clip-path="url(#clip-1056)"><text xml:space="preserve" font-family="Impact" font-weight="bold" font-size="30.5" fill="#FAFDC3" transform="matrix(1.00, 0.00, -0.00, -1.00, 203.0, 188.0)">F</text><text xml:space="preserve" font-family="Impact" font-weight="bold" font-size="30.5" fill="#FAFDC3" transform="matrix(1.00, 0.00, -0.00, -1.00, 215.1, 188.0)">K</text></g></g><g><clipPath id="clip-1057"><path d="M 299.4 2.8 L 410.4 2.8 L 410.4 74.1 L 299.4 74.1 Z M 299.4 2.8 "></path></clipPath><g clip-path="url(#clip-1057)"><image xlink:href="../../C3E9A7EE-0470-440C-8611-BEA4B093CC0E/assets/80568C12A87419A65BA77F64E3DCEAAA.png" width="109.00" height="69.00" transform="matrix(1.00, 0.00, -0.00, -1.00, 300.4, 73.1)" opacity="0.50"></image><path d="M 303.4 72.1 L 406.4 72.1 L 406.4 8.8 L 303.4 8.8 Z M 303.4 72.1 " fill="#52575F"></path></g></g><g><clipPath id="clip-1058"><path d="M 300.1 8.8 L 409.8 8.8 L 409.8 72.1 L 300.1 72.1 Z M 300.1 8.8 "></path></clipPath><g clip-path="url(#clip-1058)"><text xml:space="preserve" font-family="Impact" font-weight="bold" font-size="24.0" fill="#802438" transform="matrix(1.00, 0.00, -0.00, -1.00, 317.0, 31.0)">F</text><text xml:space="preserve" font-family="Impact" font-weight="bold" font-size="24.0" fill="#802438" transform="matrix(1.00, 0.00, -0.00, -1.00, 326.5, 31.0)">r</text><text xml:space="preserve" font-family="Impact" font-weight="bold" font-size="24.0" fill="#802438" transform="matrix(1.00, 0.00, -0.00, -1.00, 335.1, 31.0)">u</text><text xml:space="preserve" font-family="Impact" font-weight="bold" font-size="24.0" fill="#802438" transform="matrix(1.00, 0.00, -0.00, -1.00, 347.7, 31.0)">-</text><text xml:space="preserve" font-family="Impact" font-weight="bold" font-size="24.0" fill="#802438" transform="matrix(1.00, 0.00, -0.00, -1.00, 354.8, 31.0)">b</text><text xml:space="preserve" font-family="Impact" font-weight="bold" font-size="24.0" fill="#802438" transform="matrix(1.00, 0.00, -0.00, -1.00, 367.3, 31.0)">i</text><text xml:space="preserve" font-family="Impact" font-weight="bold" font-size="24.0" fill="#802438" transform="matrix(1.00, 0.00, -0.00, -1.00, 373.8, 31.0)">-</text><text xml:space="preserve" font-family="Impact" font-weight="bold" font-size="24.0" fill="#802438" transform="matrix(1.00, 0.00, -0.00, -1.00, 380.9, 31.0)">P</text></g></g><g><clipPath id="clip-1059"><path d="M 360.7 134.2 L 360.7 69.0 L 349.1 69.0 L 349.1 134.2 Z M 360.7 134.2 "></path></clipPath><g clip-path="url(#clip-1059)"><path d="M 0.0 0.0 L 53.7 0.0 L 54.7 0.0 " fill="none" stroke="#85878C" stroke-width="2.00" transform="matrix(0.00, -1.00, -1.00, 0.00, 354.9, 133.2)"></path><path d="M 350.1 79.6 L 354.9 70.0 L 359.7 79.6 Z M 350.1 79.6 " fill="#85878C"></path></g></g><g><clipPath id="clip-1060"><path d="M 25.4 0.8 L 136.4 0.8 L 136.4 72.1 L 25.4 72.1 Z M 25.4 0.8 "></path></clipPath><g clip-path="url(#clip-1060)"><image xlink:href="../../C3E9A7EE-0470-440C-8611-BEA4B093CC0E/assets/80568C12A87419A65BA77F64E3DCEAAA.png" width="109.00" height="69.00" transform="matrix(1.00, 0.00, -0.00, -1.00, 26.4, 71.1)" opacity="0.50"></image><path d="M 29.4 70.1 L 132.4 70.1 L 132.4 6.8 L 29.4 6.8 Z M 29.4 70.1 " fill="#52575F"></path></g></g><g><clipPath id="clip-1061"><path d="M 26.1 6.8 L 135.8 6.8 L 135.8 70.1 L 26.1 70.1 Z M 26.1 6.8 "></path></clipPath><g clip-path="url(#clip-1061)"><text xml:space="preserve" font-family="Impact" font-weight="bold" font-size="24.0" fill="#802438" transform="matrix(1.00, 0.00, -0.00, -1.00, 48.0, 29.0)">F</text><text xml:space="preserve" font-family="Impact" font-weight="bold" font-size="24.0" fill="#802438" transform="matrix(1.00, 0.00, -0.00, -1.00, 57.5, 29.0)">r</text><text xml:space="preserve" font-family="Impact" font-weight="bold" font-size="24.0" fill="#802438" transform="matrix(1.00, 0.00, -0.00, -1.00, 66.1, 29.0)">u</text><text xml:space="preserve" font-family="Impact" font-weight="bold" font-size="24.0" fill="#802438" transform="matrix(1.00, 0.00, -0.00, -1.00, 78.7, 29.0)">-</text><text xml:space="preserve" font-family="Impact" font-weight="bold" font-size="24.0" fill="#802438" transform="matrix(1.00, 0.00, -0.00, -1.00, 85.8, 29.0)">1</text><text xml:space="preserve" font-family="Impact" font-weight="bold" font-size="24.0" fill="#802438" transform="matrix(1.00, 0.00, -0.00, -1.00, 94.9, 29.0)">-</text><text xml:space="preserve" font-family="Impact" font-weight="bold" font-size="24.0" fill="#802438" transform="matrix(1.00, 0.00, -0.00, -1.00, 102.0, 29.0)">P</text></g></g><g><clipPath id="clip-1062"><path d="M 86.7 132.2 L 86.7 67.0 L 75.1 67.0 L 75.1 132.2 Z M 86.7 132.2 "></path></clipPath><g clip-path="url(#clip-1062)"><path d="M 0.0 0.0 L 53.7 0.0 L 54.7 0.0 " fill="none" stroke="#85878C" stroke-width="2.00" transform="matrix(0.00, -1.00, -1.00, 0.00, 80.9, 131.2)"></path><path d="M 76.1 77.6 L 80.9 68.0 L 85.7 77.6 Z M 76.1 77.6 " fill="#85878C"></path></g></g><g><clipPath id="clip-1063"><path d="M 137.8 32.7 L 306.3 32.7 L 306.3 44.3 L 137.8 44.3 Z M 137.8 32.7 "></path></clipPath><g clip-path="url(#clip-1063)"><path d="M 0.0 0.0 L 157.0 0.0 L 158.0 0.0 " fill="none" stroke="#85878C" stroke-width="2.00" transform="matrix(1.00, 0.00, 0.00, -1.00, 138.8, 38.5)"></path><path d="M 295.7 33.7 L 305.3 38.5 L 295.7 43.3 Z M 295.7 33.7 " fill="#85878C"></path></g></g><g><clipPath id="clip-1064"><path d="M 183.2 29.3 L 260.9 29.3 L 260.9 84.9 L 183.2 84.9 Z M 183.2 29.3 "></path></clipPath><g clip-path="url(#clip-1064)"><text xml:space="preserve" font-family="Impact" font-weight="bold" font-size="30.5" fill="#FAFDC3" transform="matrix(1.00, 0.00, -0.00, -1.00, 193.0, 45.0)">1</text><text xml:space="preserve" font-family="Impact" font-weight="bold" font-size="30.5" fill="#FAFDC3" transform="matrix(1.00, 0.00, -0.00, -1.00, 204.6, 45.0)">P</text><text xml:space="preserve" font-family="Impact" font-weight="bold" font-size="30.5" fill="#FAFDC3" transform="matrix(1.00, 0.00, -0.00, -1.00, 219.9, 45.0)">F</text><text xml:space="preserve" font-family="Impact" font-weight="bold" font-size="30.5" fill="#FAFDC3" transform="matrix(1.00, 0.00, -0.00, -1.00, 232.1, 45.0)">K</text></g></g><g><clipPath id="clip-1065"><path d="M -4.1 72.6 L 62.3 72.6 L 62.3 130.8 L -4.1 130.8 Z M -4.1 72.6 "></path></clipPath><g clip-path="url(#clip-1065)"><text xml:space="preserve" font-family="Impact" font-weight="bold" font-size="31.5" fill="#FAFDC3" transform="matrix(1.00, 0.00, -0.00, -1.00, 5.0, 89.0)">P</text><text xml:space="preserve" font-family="Impact" font-weight="bold" font-size="31.5" fill="#FAFDC3" transform="matrix(1.00, 0.00, -0.00, -1.00, 20.8, 89.0)">T</text><text xml:space="preserve" font-family="Impact" font-weight="bold" font-size="31.5" fill="#FAFDC3" transform="matrix(1.00, 0.00, -0.00, -1.00, 35.3, 89.0)">S</text></g></g><g><clipPath id="clip-1066"><path d="M 381.5 69.3 L 448.5 69.3 L 448.5 129.1 L 381.5 129.1 Z M 381.5 69.3 "></path></clipPath><g clip-path="url(#clip-1066)"><text xml:space="preserve" font-family="Impact" font-weight="bold" font-size="32.5" fill="#FAFDC3" transform="matrix(1.00, 0.00, -0.00, -1.00, 391.0, 86.0)">F</text><text xml:space="preserve" font-family="Impact" font-weight="bold" font-size="32.5" fill="#FAFDC3" transform="matrix(1.00, 0.00, -0.00, -1.00, 403.9, 86.0)">B</text><text xml:space="preserve" font-family="Impact" font-weight="bold" font-size="32.5" fill="#FAFDC3" transform="matrix(1.00, 0.00, -0.00, -1.00, 421.9, 86.0)">P</text></g></g><g><clipPath id="clip-1067"><path d="M 382.7 219.8 L 451.3 219.8 L 451.3 283.2 L 382.7 283.2 Z M 382.7 219.8 "></path></clipPath><g clip-path="url(#clip-1067)"><text xml:space="preserve" font-family="Impact" font-weight="bold" font-size="35.0" fill="#FAFDC3" transform="matrix(1.00, 0.00, -0.00, -1.00, 393.0, 238.0)">P</text><text xml:space="preserve" font-family="Impact" font-weight="bold" font-size="35.0" fill="#FAFDC3" transform="matrix(1.00, 0.00, -0.00, -1.00, 410.6, 238.0)">G</text><text xml:space="preserve" font-family="Impact" font-weight="bold" font-size="35.0" fill="#FAFDC3" transform="matrix(1.00, 0.00, -0.00, -1.00, 429.9, 238.0)">I</text></g></g></g></svg>