<?xml version="1.0" encoding="UTF-8" standalone="no"?><svg xmlns="http://www.w3.org/2000/svg" xmlns:xlink="http://www.w3.org/1999/xlink" clip-rule="evenodd" stroke-miterlimit="4.00" viewBox="0 0 614 231"><desc>SVG generated by Keynote</desc><defs><linearGradient id="gradSh1.0" x1="0.0" y1="0.0" x2="100.0" y2="0.0" gradientUnits="userSpaceOnUse" gradientTransform="matrix(0.00, -0.65, -1.05, 0.00, 160.9, 201.3)"><stop offset="0.00000" stop-color="#FBFBFB"></stop><stop offset="0.01466" stop-color="#FAFAFA"></stop><stop offset="1.00000" stop-color="#BEBEBE"></stop></linearGradient></defs><g transform="matrix(1.00, 0.00, -0.00, -1.00, 0.0, 231.0)"><g><clipPath id="clip-1032"><path d="M 105.4 131.0 L 216.4 131.0 L 216.4 202.3 L 105.4 202.3 Z M 105.4 131.0 "></path></clipPath><g clip-path="url(#clip-1032)"><image xlink:href="80568C12A87419A65BA77F64E3DCEAAA.png" width="109.00" height="69.00" transform="matrix(1.00, 0.00, -0.00, -1.00, 106.4, 201.3)" opacity="0.50"></image></g></g><g><clipPath id="clip-1033"><path d="M 109.4 200.3 L 212.4 200.3 L 212.4 137.0 L 109.4 137.0 Z M 109.4 200.3 "></path></clipPath><g clip-path="url(#clip-1033)"><g><clipPath id="clip-1034"><path d="M 105.4 131.0 L 216.4 131.0 L 216.4 202.3 L 105.4 202.3 Z M 105.4 131.0 "></path></clipPath><g clip-path="url(#clip-1034)"><path d="M 105.4 131.0 L 216.4 131.0 L 216.4 202.3 L 105.4 202.3 Z M 105.4 131.0 " fill="url(#gradSh1.0)"></path></g></g></g></g><g><clipPath id="clip-1035"><path d="M 106.1 137.0 L 215.8 137.0 L 215.8 200.3 L 106.1 200.3 Z M 106.1 137.0 "></path></clipPath><g clip-path="url(#clip-1035)"><text xml:space="preserve" font-family="Impact" font-weight="bold" font-size="24.0" fill="#802438" transform="matrix(1.00, 0.00, -0.00, -1.00, 126.0, 159.0)">U</text><text xml:space="preserve" font-family="Impact" font-weight="bold" font-size="24.0" fill="#802438" transform="matrix(1.00, 0.00, -0.00, -1.00, 139.1, 159.0)">D</text><text xml:space="preserve" font-family="Impact" font-weight="bold" font-size="24.0" fill="#802438" transform="matrix(1.00, 0.00, -0.00, -1.00, 152.4, 159.0)">P</text><text xml:space="preserve" font-family="Impact" font-weight="bold" font-size="24.0" fill="#802438" transform="matrix(1.00, 0.00, -0.00, -1.00, 164.4, 159.0)">G</text><text xml:space="preserve" font-family="Impact" font-weight="bold" font-size="24.0" fill="#802438" transform="matrix(1.00, 0.00, -0.00, -1.00, 177.7, 159.0)">I</text><text xml:space="preserve" font-family="Impact" font-weight="bold" font-size="24.0" fill="#802438" transform="matrix(1.00, 0.00, -0.00, -1.00, 184.6, 159.0)">c</text></g></g><g><clipPath id="clip-1036"><path d="M 105.1 167.0 L 0.1 167.0 L 0.1 178.6 L 105.1 178.6 Z M 105.1 167.0 "></path></clipPath><g clip-path="url(#clip-1036)"><path d="M 0.0 0.0 L 93.4 0.0 L 94.4 0.0 " fill="none" stroke="#85878C" stroke-width="2.00" transform="matrix(-1.00, 0.00, 0.00, 1.00, 104.1, 172.8)"></path><path d="M 10.7 177.6 L 1.1 172.8 L 10.7 168.0 Z M 10.7 177.6 " fill="#85878C"></path></g></g><g><clipPath id="clip-1037"><path d="M 105.4 1.0 L 216.4 1.0 L 216.4 72.3 L 105.4 72.3 Z M 105.4 1.0 "></path></clipPath><g clip-path="url(#clip-1037)"><image xlink:href="../../C3E9A7EE-0470-440C-8611-BEA4B093CC0E/assets/80568C12A87419A65BA77F64E3DCEAAA.png" width="109.00" height="69.00" transform="matrix(1.00, 0.00, -0.00, -1.00, 106.4, 71.3)" opacity="0.50"></image><path d="M 109.4 70.3 L 212.4 70.3 L 212.4 7.0 L 109.4 7.0 Z M 109.4 70.3 " fill="#A6AAA8"></path></g></g><g><clipPath id="clip-1038"><path d="M 106.1 7.0 L 215.8 7.0 L 215.8 70.3 L 106.1 70.3 Z M 106.1 7.0 "></path></clipPath><g clip-path="url(#clip-1038)"><text xml:space="preserve" font-family="Impact" font-weight="bold" font-size="24.0" fill="#802438" transform="matrix(1.00, 0.00, -0.00, -1.00, 127.0, 29.0)">G</text><text xml:space="preserve" font-family="Impact" font-weight="bold" font-size="24.0" fill="#802438" transform="matrix(1.00, 0.00, -0.00, -1.00, 140.2, 29.0)">l</text><text xml:space="preserve" font-family="Impact" font-weight="bold" font-size="24.0" fill="#802438" transform="matrix(1.00, 0.00, -0.00, -1.00, 146.8, 29.0)">c</text><text xml:space="preserve" font-family="Impact" font-weight="bold" font-size="24.0" fill="#802438" transform="matrix(1.00, 0.00, -0.00, -1.00, 158.7, 29.0)">-</text><text xml:space="preserve" font-family="Impact" font-weight="bold" font-size="24.0" fill="#802438" transform="matrix(1.00, 0.00, -0.00, -1.00, 165.7, 29.0)">1</text><text xml:space="preserve" font-family="Impact" font-weight="bold" font-size="24.0" fill="#802438" transform="matrix(1.00, 0.00, -0.00, -1.00, 174.9, 29.0)">-</text><text xml:space="preserve" font-family="Impact" font-weight="bold" font-size="24.0" fill="#802438" transform="matrix(1.00, 0.00, -0.00, -1.00, 182.0, 29.0)">P</text></g></g><g><clipPath id="clip-1039"><path d="M 155.1 71.5 L 155.1 136.8 L 166.7 136.8 L 166.7 71.5 Z M 155.1 71.5 "></path></clipPath><g clip-path="url(#clip-1039)"><path d="M 0.0 0.0 L 53.7 0.0 L 54.7 0.0 " fill="none" stroke="#85878C" stroke-width="2.00" transform="matrix(0.00, 1.00, 1.00, 0.00, 160.9, 72.5)"></path><path d="M 165.7 126.2 L 160.9 135.8 L 156.1 126.2 Z M 165.7 126.2 " fill="#85878C"></path></g></g><g><clipPath id="clip-1040"><path d="M 315.4 1.0 L 426.4 1.0 L 426.4 72.3 L 315.4 72.3 Z M 315.4 1.0 "></path></clipPath><g clip-path="url(#clip-1040)"><image xlink:href="../../C3E9A7EE-0470-440C-8611-BEA4B093CC0E/assets/80568C12A87419A65BA77F64E3DCEAAA.png" width="109.00" height="69.00" transform="matrix(1.00, 0.00, -0.00, -1.00, 316.4, 71.3)" opacity="0.50"></image><path d="M 319.4 70.3 L 422.4 70.3 L 422.4 7.0 L 319.4 7.0 Z M 319.4 70.3 " fill="#A6AAA8"></path></g></g><g><clipPath id="clip-1041"><path d="M 316.1 7.0 L 425.8 7.0 L 425.8 70.3 L 316.1 70.3 Z M 316.1 7.0 "></path></clipPath><g clip-path="url(#clip-1041)"><text xml:space="preserve" font-family="Impact" font-weight="bold" font-size="24.0" fill="#802438" transform="matrix(1.00, 0.00, -0.00, -1.00, 336.0, 29.0)">G</text><text xml:space="preserve" font-family="Impact" font-weight="bold" font-size="24.0" fill="#802438" transform="matrix(1.00, 0.00, -0.00, -1.00, 349.2, 29.0)">l</text><text xml:space="preserve" font-family="Impact" font-weight="bold" font-size="24.0" fill="#802438" transform="matrix(1.00, 0.00, -0.00, -1.00, 355.8, 29.0)">c</text><text xml:space="preserve" font-family="Impact" font-weight="bold" font-size="24.0" fill="#802438" transform="matrix(1.00, 0.00, -0.00, -1.00, 367.7, 29.0)">-</text><text xml:space="preserve" font-family="Impact" font-weight="bold" font-size="24.0" fill="#802438" transform="matrix(1.00, 0.00, -0.00, -1.00, 374.7, 29.0)">6</text><text xml:space="preserve" font-family="Impact" font-weight="bold" font-size="24.0" fill="#802438" transform="matrix(1.00, 0.00, -0.00, -1.00, 387.7, 29.0)">-</text><text xml:space="preserve" font-family="Impact" font-weight="bold" font-size="24.0" fill="#802438" transform="matrix(1.00, 0.00, -0.00, -1.00, 394.8, 29.0)">P</text></g></g><g><clipPath id="clip-1042"><path d="M 376.7 170.3 L 376.7 73.7 L 365.1 73.7 L 365.1 170.3 Z M 376.7 170.3 "></path></clipPath><g clip-path="url(#clip-1042)"><path d="M 0.0 0.0 L 85.0 0.0 L 86.0 0.0 " fill="none" stroke="#85878C" stroke-width="2.00" transform="matrix(0.00, -1.00, -1.00, 0.00, 370.9, 169.3)"></path><path d="M 366.1 84.3 L 370.9 74.7 L 375.7 84.3 Z M 366.1 84.3 " fill="#85878C"></path></g></g><g><clipPath id="clip-1043"><path d="M 320.3 37.5 L 211.6 37.5 L 211.6 49.1 L 320.3 49.1 Z M 320.3 37.5 "></path></clipPath><g clip-path="url(#clip-1043)"><path d="M 0.0 0.0 L 97.1 0.0 L 98.1 0.0 " fill="none" stroke="#85878C" stroke-width="2.00" transform="matrix(-1.00, 0.00, 0.00, 1.00, 319.3, 43.3)"></path><path d="M 222.2 48.1 L 212.6 43.3 L 222.2 38.5 Z M 222.2 48.1 " fill="#85878C"></path></g></g><g><clipPath id="clip-1044"><path d="M 80.5 78.1 L 145.7 78.1 L 145.7 133.4 L 80.5 133.4 Z M 80.5 78.1 "></path></clipPath><g clip-path="url(#clip-1044)"><text xml:space="preserve" font-family="Impact" font-weight="bold" font-size="29.5" fill="#FAFDC3" transform="matrix(1.00, 0.00, -0.00, -1.00, 89.0, 94.0)">U</text><text xml:space="preserve" font-family="Impact" font-weight="bold" font-size="29.5" fill="#FAFDC3" transform="matrix(1.00, 0.00, -0.00, -1.00, 105.1, 94.0)">G</text><text xml:space="preserve" font-family="Impact" font-weight="bold" font-size="29.5" fill="#FAFDC3" transform="matrix(1.00, 0.00, -0.00, -1.00, 121.4, 94.0)">P</text></g></g><g><clipPath id="clip-1045"><path d="M 234.2 43.8 L 297.6 43.8 L 297.6 99.0 L 234.2 99.0 Z M 234.2 43.8 "></path></clipPath><g clip-path="url(#clip-1045)"><text xml:space="preserve" font-family="Impact" font-weight="bold" font-size="26.5" fill="#FAFDC3" transform="matrix(1.00, 0.00, -0.00, -1.00, 242.0, 61.0)">P</text><text xml:space="preserve" font-family="Impact" font-weight="bold" font-size="26.5" fill="#FAFDC3" transform="matrix(1.00, 0.00, -0.00, -1.00, 255.3, 61.0)">G</text><text xml:space="preserve" font-family="Impact" font-weight="bold" font-size="26.5" fill="#FAFDC3" transform="matrix(1.00, 0.00, -0.00, -1.00, 269.9, 61.0)">M</text></g></g><g><clipPath id="clip-1046"><path d="M 423.3 37.5 L 542.7 37.5 L 542.7 49.1 L 423.3 49.1 Z M 423.3 37.5 "></path></clipPath><g clip-path="url(#clip-1046)"><path d="M 0.0 0.0 L 107.8 0.0 L 108.8 0.0 " fill="none" stroke="#85878C" stroke-width="2.00" transform="matrix(1.00, 0.00, 0.00, -1.00, 424.3, 43.3)"></path><path d="M 532.1 38.5 L 541.7 43.3 L 532.1 48.1 Z M 532.1 38.5 " fill="#85878C"></path></g></g><g><clipPath id="clip-1047"><path d="M 441.9 43.8 L 524.1 43.8 L 524.1 99.0 L 441.9 99.0 Z M 441.9 43.8 "></path></clipPath><g clip-path="url(#clip-1047)"><text xml:space="preserve" font-family="Impact" font-weight="bold" font-size="24.5" fill="#FAFDC3" transform="matrix(1.00, 0.00, -0.00, -1.00, 449.0, 61.0)">G</text><text xml:space="preserve" font-family="Impact" font-weight="bold" font-size="24.5" fill="#FAFDC3" transform="matrix(1.00, 0.00, -0.00, -1.00, 462.5, 61.0)">6</text><text xml:space="preserve" font-family="Impact" font-weight="bold" font-size="24.5" fill="#FAFDC3" transform="matrix(1.00, 0.00, -0.00, -1.00, 475.8, 61.0)">P</text><text xml:space="preserve" font-family="Impact" font-weight="bold" font-size="24.5" fill="#FAFDC3" transform="matrix(1.00, 0.00, -0.00, -1.00, 488.1, 61.0)">D</text><text xml:space="preserve" font-family="Impact" font-weight="bold" font-size="24.5" fill="#FAFDC3" transform="matrix(1.00, 0.00, -0.00, -1.00, 501.6, 61.0)">H</text></g></g><g><clipPath id="clip-1048"><path d="M 552.4 15.7 L 617.9 15.7 L 617.9 71.0 L 552.4 71.0 Z M 552.4 15.7 "></path></clipPath><g clip-path="url(#clip-1048)"><text xml:space="preserve" font-family="Impact" font-weight="bold" font-size="30.0" fill="#FAFDC3" transform="matrix(1.00, 0.00, -0.00, -1.00, 562.0, 31.0)">P</text><text xml:space="preserve" font-family="Impact" font-weight="bold" font-size="30.0" fill="#FAFDC3" transform="matrix(1.00, 0.00, -0.00, -1.00, 577.1, 31.0)">G</text><text xml:space="preserve" font-family="Impact" font-weight="bold" font-size="30.0" fill="#FAFDC3" transform="matrix(1.00, 0.00, -0.00, -1.00, 593.6, 31.0)">A</text></g></g><g><clipPath id="clip-1049"><path d="M 314.9 173.8 L 427.0 173.8 L 427.0 229.0 L 314.9 229.0 Z M 314.9 173.8 "></path></clipPath><g clip-path="url(#clip-1049)"><text xml:space="preserve" font-family="Impact" font-weight="bold" font-size="28.0" fill="#FAFDC3" transform="matrix(1.00, 0.00, -0.00, -1.00, 323.0, 190.0)">G</text><text xml:space="preserve" font-family="Impact" font-weight="bold" font-size="28.0" fill="#FAFDC3" transform="matrix(1.00, 0.00, -0.00, -1.00, 338.4, 190.0)">l</text><text xml:space="preserve" font-family="Impact" font-weight="bold" font-size="28.0" fill="#FAFDC3" transform="matrix(1.00, 0.00, -0.00, -1.00, 346.1, 190.0)">u</text><text xml:space="preserve" font-family="Impact" font-weight="bold" font-size="28.0" fill="#FAFDC3" transform="matrix(1.00, 0.00, -0.00, -1.00, 360.8, 190.0)">c</text><text xml:space="preserve" font-family="Impact" font-weight="bold" font-size="28.0" fill="#FAFDC3" transform="matrix(1.00, 0.00, -0.00, -1.00, 374.6, 190.0)">o</text><text xml:space="preserve" font-family="Impact" font-weight="bold" font-size="28.0" fill="#FAFDC3" transform="matrix(1.00, 0.00, -0.00, -1.00, 388.9, 190.0)">s</text><text xml:space="preserve" font-family="Impact" font-weight="bold" font-size="28.0" fill="#FAFDC3" transform="matrix(1.00, 0.00, -0.00, -1.00, 402.1, 190.0)">e</text></g></g><g><clipPath id="clip-1050"><path d="M 24.5 173.5 L 80.7 173.5 L 80.7 229.1 L 24.5 229.1 Z M 24.5 173.5 "></path></clipPath><g clip-path="url(#clip-1050)"><text xml:space="preserve" font-family="Impact" font-weight="bold" font-size="30.5" fill="#FAFDC3" transform="matrix(1.00, 0.00, -0.00, -1.00, 34.0, 189.0)">C</text><text xml:space="preserve" font-family="Impact" font-weight="bold" font-size="30.5" fill="#FAFDC3" transform="matrix(1.00, 0.00, -0.00, -1.00, 50.9, 189.0)">G</text></g></g></g></svg>