<?xml version="1.0" encoding="UTF-8" standalone="no"?><svg xmlns="http://www.w3.org/2000/svg" xmlns:xlink="http://www.w3.org/1999/xlink" clip-rule="evenodd" stroke-miterlimit="4.00" viewBox="0 0 162 156"><desc>SVG generated by Keynote</desc><defs></defs><g transform="matrix(1.00, 0.00, -0.00, -1.00, 0.0, 156.0)"><g><clipPath id="clip-870"><path d="M 27.1 28.1 L 135.0 28.1 L 135.0 116.6 L 27.1 116.6 Z M 27.1 28.1 "></path></clipPath><g clip-path="url(#clip-870)"><text xml:space="preserve" font-family="Impact" font-weight="bold" font-size="44.5" fill="#FAFDC3" transform="matrix(1.00, 0.00, -0.00, -1.00, 41.0, 54.0)">I</text><text xml:space="preserve" font-family="Impact" font-weight="bold" font-size="44.5" fill="#FAFDC3" transform="matrix(1.00, 0.00, -0.00, -1.00, 53.8, 54.0)">P</text><text xml:space="preserve" font-family="Impact" font-weight="bold" font-size="44.5" fill="#FAFDC3" transform="matrix(1.00, 0.00, -0.00, -1.00, 76.2, 54.0)">T</text><text xml:space="preserve" font-family="Impact" font-weight="bold" font-size="44.5" fill="#FAFDC3" transform="matrix(1.00, 0.00, -0.00, -1.00, 96.7, 54.0)">G</text></g></g><g><clipPath id="clip-871"><path d="M 0.5 0.8 L 161.5 0.8 L 161.5 155.9 L 0.5 155.9 Z M 0.5 0.8 "></path></clipPath><g clip-path="url(#clip-871)"><path d="M 82.4 0.0 L 160.7 57.6 L 130.8 150.9 L 34.0 150.9 L 4.0 57.6 Z M 82.4 0.0 " fill="none" stroke="#85878C" stroke-width="2.00" transform="matrix(1.00, 0.00, 0.00, -1.00, -1.3, 153.7)"></path></g></g></g></svg>