<?xml version="1.0" encoding="UTF-8" standalone="no"?><svg xmlns="http://www.w3.org/2000/svg" xmlns:xlink="http://www.w3.org/1999/xlink" clip-rule="evenodd" stroke-miterlimit="4.00" viewBox="0 0 606 154"><desc>SVG generated by Keynote</desc><defs></defs><g transform="matrix(1.00, 0.00, -0.00, -1.00, 0.0, 154.0)"><g><clipPath id="clip-872"><path d="M 60.5 64.0 L 607.5 64.0 L 607.5 152.6 L 60.5 152.6 Z M 60.5 64.0 "></path></clipPath><g clip-path="url(#clip-872)"><text xml:space="preserve" font-family="Impact" font-weight="bold" font-size="46.5" fill="#FAFDC3" transform="matrix(1.00, 0.00, -0.00, -1.00, 75.0, 89.0)">i</text><text xml:space="preserve" font-family="Impact" font-weight="bold" font-size="46.5" fill="#FAFDC3" transform="matrix(1.00, 0.00, -0.00, -1.00, 87.7, 89.0)">s</text><text xml:space="preserve" font-family="Impact" font-weight="bold" font-size="46.5" fill="#FAFDC3" transform="matrix(1.00, 0.00, -0.00, -1.00, 109.6, 89.0)">o</text><text xml:space="preserve" font-family="Impact" font-weight="bold" font-size="46.5" fill="#FAFDC3" transform="matrix(1.00, 0.00, -0.00, -1.00, 133.4, 89.0)">p</text><text xml:space="preserve" font-family="Impact" font-weight="bold" font-size="46.5" fill="#FAFDC3" transform="matrix(1.00, 0.00, -0.00, -1.00, 157.5, 89.0)">r</text><text xml:space="preserve" font-family="Impact" font-weight="bold" font-size="46.5" fill="#FAFDC3" transform="matrix(1.00, 0.00, -0.00, -1.00, 174.2, 89.0)">o</text><text xml:space="preserve" font-family="Impact" font-weight="bold" font-size="46.5" fill="#FAFDC3" transform="matrix(1.00, 0.00, -0.00, -1.00, 197.9, 89.0)">p</text><text xml:space="preserve" font-family="Impact" font-weight="bold" font-size="46.5" fill="#FAFDC3" transform="matrix(1.00, 0.00, -0.00, -1.00, 222.1, 89.0)">i</text><text xml:space="preserve" font-family="Impact" font-weight="bold" font-size="46.5" fill="#FAFDC3" transform="matrix(1.00, 0.00, -0.00, -1.00, 234.8, 89.0)">l</text><text xml:space="preserve" font-family="Impact" font-weight="bold" font-size="46.5" fill="#FAFDC3" transform="matrix(1.00, 0.00, -0.00, -1.00, 247.5, 89.0)">-</text><text xml:space="preserve" font-family="Impact" font-weight="bold" font-size="46.5" fill="#FAFDC3" transform="matrix(1.00, 0.00, -0.00, -1.00, 261.3, 89.0)">b</text><text xml:space="preserve" font-family="Impact" font-weight="bold" font-size="46.5" fill="#FAFDC3" transform="matrix(1.00, 0.00, -0.00, -1.00, 285.4, 89.0)">-</text><text xml:space="preserve" font-family="Impact" font-weight="bold" font-size="46.5" fill="#FAFDC3" transform="matrix(1.00, 0.00, -0.00, -1.00, 299.1, 89.0)">D</text><text xml:space="preserve" font-family="Impact" font-weight="bold" font-size="46.5" fill="#FAFDC3" transform="matrix(1.00, 0.00, -0.00, -1.00, 324.8, 89.0)">-</text><text xml:space="preserve" font-family="Impact" font-weight="bold" font-size="46.5" fill="#FAFDC3" transform="matrix(1.00, 0.00, -0.00, -1.00, 338.5, 89.0)">g</text><text xml:space="preserve" font-family="Impact" font-weight="bold" font-size="46.5" fill="#FAFDC3" transform="matrix(1.00, 0.00, -0.00, -1.00, 362.6, 89.0)">a</text><text xml:space="preserve" font-family="Impact" font-weight="bold" font-size="46.5" fill="#FAFDC3" transform="matrix(1.00, 0.00, -0.00, -1.00, 386.0, 89.0)">l</text><text xml:space="preserve" font-family="Impact" font-weight="bold" font-size="46.5" fill="#FAFDC3" transform="matrix(1.00, 0.00, -0.00, -1.00, 398.8, 89.0)">a</text><text xml:space="preserve" font-family="Impact" font-weight="bold" font-size="46.5" fill="#FAFDC3" transform="matrix(1.00, 0.00, -0.00, -1.00, 422.2, 89.0)">c</text><text xml:space="preserve" font-family="Impact" font-weight="bold" font-size="46.5" fill="#FAFDC3" transform="matrix(1.00, 0.00, -0.00, -1.00, 445.2, 89.0)">t</text><text xml:space="preserve" font-family="Impact" font-weight="bold" font-size="46.5" fill="#FAFDC3" transform="matrix(1.00, 0.00, -0.00, -1.00, 459.3, 89.0)">o</text><text xml:space="preserve" font-family="Impact" font-weight="bold" font-size="46.5" fill="#FAFDC3" transform="matrix(1.00, 0.00, -0.00, -1.00, 483.1, 89.0)">s</text><text xml:space="preserve" font-family="Impact" font-weight="bold" font-size="46.5" fill="#FAFDC3" transform="matrix(1.00, 0.00, -0.00, -1.00, 505.0, 89.0)">í</text><text xml:space="preserve" font-family="Impact" font-weight="bold" font-size="46.5" fill="#FAFDC3" transform="matrix(1.00, 0.00, -0.00, -1.00, 517.7, 89.0)">d</text><text xml:space="preserve" font-family="Impact" font-weight="bold" font-size="46.5" fill="#FAFDC3" transform="matrix(1.00, 0.00, -0.00, -1.00, 541.8, 89.0)">e</text><text xml:space="preserve" font-family="Impact" font-weight="bold" font-size="46.5" fill="#FAFDC3" transform="matrix(1.00, 0.00, -0.00, -1.00, 565.6, 89.0)">o</text></g></g><g><clipPath id="clip-873"><path d="M 0.4 52.2 L 605.6 52.2 L 605.6 63.8 L 0.4 63.8 Z M 0.4 52.2 "></path></clipPath><g clip-path="url(#clip-873)"><path d="M 0.0 0.0 L 593.6 0.0 L 594.6 0.0 " fill="none" stroke="#000000" stroke-width="2.00" transform="matrix(1.00, 0.00, 0.00, -1.00, 1.4, 58.0)"></path><path d="M 595.0 53.2 L 604.6 58.0 L 595.0 62.8 Z M 595.0 53.2 " fill="#000000"></path></g></g><g><clipPath id="clip-874"><path d="M 233.5 1.0 L 330.5 1.0 L 330.5 52.0 L 233.5 52.0 Z M 233.5 1.0 "></path></clipPath><g clip-path="url(#clip-874)"><text xml:space="preserve" font-family="Impact" font-weight="bold" font-size="26.5" fill="#FAFDC3" transform="matrix(1.00, 0.00, -0.00, -1.00, 242.0, 16.0)">i</text><text xml:space="preserve" font-family="Impact" font-weight="bold" font-size="26.5" fill="#FAFDC3" transform="matrix(1.00, 0.00, -0.00, -1.00, 249.3, 16.0)">n</text><text xml:space="preserve" font-family="Impact" font-weight="bold" font-size="26.5" fill="#FAFDC3" transform="matrix(1.00, 0.00, -0.00, -1.00, 263.1, 16.0)">d</text><text xml:space="preserve" font-family="Impact" font-weight="bold" font-size="26.5" fill="#FAFDC3" transform="matrix(1.00, 0.00, -0.00, -1.00, 276.9, 16.0)">u</text><text xml:space="preserve" font-family="Impact" font-weight="bold" font-size="26.5" fill="#FAFDC3" transform="matrix(1.00, 0.00, -0.00, -1.00, 290.7, 16.0)">t</text><text xml:space="preserve" font-family="Impact" font-weight="bold" font-size="26.5" fill="#FAFDC3" transform="matrix(1.00, 0.00, -0.00, -1.00, 298.8, 16.0)">o</text><text xml:space="preserve" font-family="Impact" font-weight="bold" font-size="26.5" fill="#FAFDC3" transform="matrix(1.00, 0.00, -0.00, -1.00, 312.4, 16.0)">r</text></g></g></g></svg>