<?xml version="1.0" encoding="UTF-8" standalone="no"?><svg xmlns="http://www.w3.org/2000/svg" xmlns:xlink="http://www.w3.org/1999/xlink" clip-rule="evenodd" stroke-miterlimit="4.00" viewBox="0 0 137 31"><desc>SVG generated by Keynote</desc><defs></defs><g transform="matrix(1.00, 0.00, -0.00, -1.00, 0.0, 31.0)"><text xml:space="preserve" font-family="Impact" font-weight="bold" font-size="26.4" fill="#FAFDC3" transform="matrix(1.00, 0.00, -0.00, -1.00, 1.0, 7.0)">M</text><text xml:space="preserve" font-family="Impact" font-weight="bold" font-size="26.4" fill="#FAFDC3" transform="matrix(1.00, 0.00, -0.00, -1.00, 19.9, 7.0)">a</text><text xml:space="preserve" font-family="Impact" font-weight="bold" font-size="26.4" fill="#FAFDC3" transform="matrix(1.00, 0.00, -0.00, -1.00, 33.2, 7.0)">n</text><text xml:space="preserve" font-family="Impact" font-weight="bold" font-size="26.4" fill="#FAFDC3" transform="matrix(1.00, 0.00, -0.00, -1.00, 47.0, 7.0)">u</text><text xml:space="preserve" font-family="Impact" font-weight="bold" font-size="26.4" fill="#FAFDC3" transform="matrix(1.00, 0.00, -0.00, -1.00, 60.8, 7.0)">t</text><text xml:space="preserve" font-family="Impact" font-weight="bold" font-size="26.4" fill="#FAFDC3" transform="matrix(1.00, 0.00, -0.00, -1.00, 68.9, 7.0)">e</text><text xml:space="preserve" font-family="Impact" font-weight="bold" font-size="26.4" fill="#FAFDC3" transform="matrix(1.00, 0.00, -0.00, -1.00, 82.4, 7.0)">n</text><text xml:space="preserve" font-family="Impact" font-weight="bold" font-size="26.4" fill="#FAFDC3" transform="matrix(1.00, 0.00, -0.00, -1.00, 96.2, 7.0)">รง</text><text xml:space="preserve" font-family="Impact" font-weight="bold" font-size="26.4" fill="#FAFDC3" transform="matrix(1.00, 0.00, -0.00, -1.00, 109.2, 7.0)">รฃ</text><text xml:space="preserve" font-family="Impact" font-weight="bold" font-size="26.4" fill="#FAFDC3" transform="matrix(1.00, 0.00, -0.00, -1.00, 122.5, 7.0)">o</text></g></svg>