<?xml version="1.0" encoding="UTF-8" standalone="no"?><svg xmlns="http://www.w3.org/2000/svg" xmlns:xlink="http://www.w3.org/1999/xlink" clip-rule="evenodd" stroke-miterlimit="4.00" viewBox="0 0 153 26"><desc>SVG generated by Keynote</desc><defs></defs><g transform="matrix(1.00, 0.00, -0.00, -1.00, 0.0, 26.0)"><text xml:space="preserve" font-family="Impact" font-weight="bold" font-size="26.7" fill="#FAFDC3" transform="matrix(1.00, 0.00, -0.00, -1.00, 2.0, 2.0)">C</text><text xml:space="preserve" font-family="Impact" font-weight="bold" font-size="26.7" fill="#FAFDC3" transform="matrix(1.00, 0.00, -0.00, -1.00, 16.8, 2.0)">o</text><text xml:space="preserve" font-family="Impact" font-weight="bold" font-size="26.7" fill="#FAFDC3" transform="matrix(1.00, 0.00, -0.00, -1.00, 30.4, 2.0)">m</text><text xml:space="preserve" font-family="Impact" font-weight="bold" font-size="26.7" fill="#FAFDC3" transform="matrix(1.00, 0.00, -0.00, -1.00, 51.0, 2.0)">b</text><text xml:space="preserve" font-family="Impact" font-weight="bold" font-size="26.7" fill="#FAFDC3" transform="matrix(1.00, 0.00, -0.00, -1.00, 64.9, 2.0)">u</text><text xml:space="preserve" font-family="Impact" font-weight="bold" font-size="26.7" fill="#FAFDC3" transform="matrix(1.00, 0.00, -0.00, -1.00, 78.8, 2.0)">s</text><text xml:space="preserve" font-family="Impact" font-weight="bold" font-size="26.7" fill="#FAFDC3" transform="matrix(1.00, 0.00, -0.00, -1.00, 91.4, 2.0)">t</text><text xml:space="preserve" font-family="Impact" font-weight="bold" font-size="26.7" fill="#FAFDC3" transform="matrix(1.00, 0.00, -0.00, -1.00, 99.5, 2.0)">í</text><text xml:space="preserve" font-family="Impact" font-weight="bold" font-size="26.7" fill="#FAFDC3" transform="matrix(1.00, 0.00, -0.00, -1.00, 106.8, 2.0)">v</text><text xml:space="preserve" font-family="Impact" font-weight="bold" font-size="26.7" fill="#FAFDC3" transform="matrix(1.00, 0.00, -0.00, -1.00, 118.5, 2.0)">e</text><text xml:space="preserve" font-family="Impact" font-weight="bold" font-size="26.7" fill="#FAFDC3" transform="matrix(1.00, 0.00, -0.00, -1.00, 132.2, 2.0)">i</text><text xml:space="preserve" font-family="Impact" font-weight="bold" font-size="26.7" fill="#FAFDC3" transform="matrix(1.00, 0.00, -0.00, -1.00, 139.5, 2.0)">s</text></g></svg>